SplineFontDB: 3.0
FontName: Bevan
FullName: Bevan
FamilyName: Bevan
Weight: Normal
Copyright: Copyright (c) 2011 by . All rights reserved.
Version: 001.001
ItalicAngle: 0
UnderlinePosition: -205
UnderlineWidth: 102
Ascent: 1638
Descent: 410
sfntRevision: 0x00010000
LayerCount: 2
Layer: 0 0 "Back"  1
Layer: 1 0 "Fore"  0
XUID: [1021 14 500265001 10851299]
FSType: 0
OS2Version: 3
OS2_WeightWidthSlopeOnly: 0
OS2_UseTypoMetrics: 1
CreationTime: 1314018767
ModificationTime: 1327078127
PfmFamily: 17
TTFWeight: 400
TTFWidth: 5
LineGap: 0
VLineGap: 0
Panose: 2 0 0 0 0 0 0 0 0 0
OS2TypoAscent: 727
OS2TypoAOffset: 1
OS2TypoDescent: -515
OS2TypoDOffset: 1
OS2TypoLinegap: 0
OS2WinAscent: 94
OS2WinAOffset: 1
OS2WinDescent: -35
OS2WinDOffset: 1
HheadAscent: 94
HheadAOffset: 1
HheadDescent: 35
HheadDOffset: 1
OS2SubXSize: 1331
OS2SubYSize: 1228
OS2SubXOff: 0
OS2SubYOff: 153
OS2SupXSize: 1331
OS2SupYSize: 1228
OS2SupXOff: 0
OS2SupYOff: 716
OS2StrikeYSize: 102
OS2StrikeYPos: 643
OS2Vendor: 'newt'
OS2CodePages: 20000081.00000000
OS2UnicodeRanges: 00000007.00000000.00000000.00000000
Lookup: 1 0 0 "'smcp' Lowercase to Small Capitals in Latin lookup 0"  {"'smcp' Lowercase to Small Capitals in Latin lookup 0 subtable"  } ['smcp' ('latn' <'dflt' > ) ]
Lookup: 1 0 0 "'c2sc' Capitals to Small Capitals in Latin lookup 0"  {"'c2sc' Capitals to Small Capitals in Latin lookup 0 subtable"  } ['c2sc' ('latn' <'dflt' > ) ]
Lookup: 4 0 0 "'dlig' Discretionary Ligatures in Latin lookup 4"  {"'dlig' Discretionary Ligatures in Latin lookup 4-1"  } ['dlig' ('DFLT' <'dflt' > 'latn' <'dflt' > ) ]
Lookup: 1 0 0 "alt endings"  {"alt endings-t"  } []
Lookup: 4 0 0 "Numbers No"  {"'dlig' Discretionary Ligatures in Latin lookup 3-1"  } ['dlig' ('DFLT' <'dflt' > 'latn' <'dflt' > ) ]
Lookup: 6 0 0 "Contextual chains"  {"Contextual chains-No"  "Contextual chains-t.fin"  } ['dlig' ('DFLT' <'dflt' > 'latn' <'dflt' > ) ]

StartChar: macron
Encoding: 109 175 0
Width: 783
Flags: HW
LayerCount: 2
Fore
SplineSet
832.492 836 m 1
 790.471 537 l 1
 143.471 537 l 1
 185.492 836 l 1
 832.492 836 l 1
EndSplineSet
EndChar

StartChar: exclam
Encoding: 1 33 2
Width: 679
Flags: HW
LayerCount: 2
Fore
SplineSet
625.422 558 m 1
 204.141 556 l 1
 231.06 1331 l 1
 273.082 1630 l 1
 860.082 1630 l 1
 818.06 1331 l 1
 625.422 558 l 1
330.362 -33 m 0
 491.362 -33 629.729 55 651.795 212 c 0
 673.719 368 558.07 463 401.07 463 c 1
 398.93 462 l 1
 242.93 462 108.578 367 86.7949 212 c 0
 65.1514 58 173.362 -33 330.362 -33 c 0
EndSplineSet
EndChar

StartChar: quotedbl
Encoding: 2 34 3
Width: 1148
Flags: HW
LayerCount: 2
Fore
SplineSet
269.238 1624 m 1
 749.238 1624 l 1
 553.812 945 l 1
 253.812 945 l 1
 269.238 1624 l 1
856.238 1624 m 1
 1336.24 1624 l 1
 1140.81 945 l 1
 840.812 945 l 1
 856.238 1624 l 1
EndSplineSet
EndChar

StartChar: numbersign
Encoding: 3 35 4
Width: 1354
Flags: HW
LayerCount: 2
Fore
SplineSet
557.114 1246 m 1
 694.098 1623 l 1
 1018.1 1623 l 1
 878.114 1246 l 1
 1036.11 1246 l 1
 1173.1 1623 l 1
 1497.1 1623 l 1
 1357.11 1246 l 1
 1497.11 1246 l 1
 1392.09 947 l 1
 1247.09 947 l 1
 1113.22 585 l 1
 1257.22 585 l 1
 1152.19 286 l 1
 1002.19 286 l 1
 897 0 l 1
 584 0 l 1
 687.194 286 l 1
 523.194 286 l 1
 418 0 l 1
 105 0 l 1
 208.194 286 l 1
 72.1943 286 l 1
 177.217 585 l 1
 317.217 585 l 1
 448.092 947 l 1
 312.092 947 l 1
 417.114 1246 l 1
 557.114 1246 l 1
634.217 585 m 1
 796.217 585 l 1
 927.092 947 l 1
 768.092 947 l 1
 634.217 585 l 1
EndSplineSet
EndChar

StartChar: dollar
Encoding: 4 36 5
Width: 1401
Flags: HW
HStem: -29 21G<758.172 934.312> 0 488<103 426> 1117 476<939 1224> 1342.69 280.43<496.494 616 735 810.524>
VStem: 65.5127 388.487<953.925 1303.89> 103 323<0 101.687 383.255 488> 616 119<-227 -28.4424 282.327 538.1 1092.08 1338.67 1623.09 1803> 908 419<313.679 649.822>
LayerCount: 2
Fore
SplineSet
224.882 1133.97 m 0xeb
 265.657 1424.1 524.137 1623.12 838.169 1623.12 c 0xdb
 840.165 1623.12 842.146 1623.11 844.11 1623.09 c 1
 869.396 1803 l 1
 988.396 1803 l 1
 961.125 1608.96 l 1
 1052.94 1584.22 1089.62 1531.2 1114.42 1483 c 1
 1162.88 1593 l 1
 1447.88 1593 l 1
 1380.98 1117 l 1
 1073.98 1117 l 1
 1046.7 1258.21 1004.03 1320.14 923.138 1338.67 c 1
 884.014 1060.29 l 1
 1198.39 980.555 1441.74 816.45 1394.46 480 c 0
 1354.24 193.807 1101.54 -29 758.924 -29 c 0
 749.27 -29 739.971 -28.8145 731.003 -28.4424 c 1
 703.098 -227 l 1
 584.098 -227 l 1
 614.918 -7.69922 l 1
 551.297 15.8486 508.445 58.9805 459.146 122 c 1
 426 0 l 1
 103 0 l 1
 171.584 488 l 1xe7
 493.584 488 l 1
 511.27 359.49 570.967 301.957 655.679 282.327 c 1
 696.614 573.599 l 1
 412.42 664.198 174.274 773.88 224.882 1133.97 c 0xeb
804.703 1342.69 m 1
 699.33 1333.21 635.977 1294.83 627.287 1233 c 0
 616.748 1158.01 687.305 1119.91 769.481 1092.08 c 1
 804.703 1342.69 l 1
773.703 275.388 m 1
 868.313 282.695 952.793 318.716 961.405 380 c 0
 974.84 475.593 926.739 501.207 810.625 538.1 c 1
 773.703 275.388 l 1
EndSplineSet
EndChar

StartChar: percent
Encoding: 5 37 6
Width: 2642
Flags: HW
HStem: -27 260<2031.39 2178.61> 0 21G<864 1176.96> 472.5 260<463.39 610.61> 706 250<2024.59 2185.41> 1205.5 250.5<456.886 617.699> 1295.11 160.886<902.344 1336.95>
VStem: 62 354<777.169 1163.65> 658 354<777.314 1167.31> 1630 354<277.669 664.115> 2226 354<277.669 664.115>
LayerCount: 2
Fore
SplineSet
706.422 1205.5 m 0x2bc0
 625.422 1205.5 573.257 1118.94 553.52 978.5 c 0
 532.485 828.836 560.946 732.5 639.946 732.5 c 0
 718.946 732.5 774.485 828.836 795.52 978.5 c 0
 815.257 1118.94 787.422 1205.5 706.422 1205.5 c 0x2bc0
603.405 472.5 m 0
 295.405 472.5 156.493 672.351 197.974 967.5 c 0
 236.503 1241.65 445.627 1456 741.627 1456 c 2x2bc0
 1855.63 1456 l 1
 1985.03 1281 l 1
 1167 0 l 5
 864 0 l 5
 1519.05 1295.7 l 1
 1084.36 1295.11 l 1x47c0
 1143.32 1209.18 1165.87 1094.84 1147.97 967.5 c 0
 1106.49 672.351 911.405 472.5 603.405 472.5 c 0
2204.22 706 m 0x93c0
 2123.22 706 2071.06 619.44 2051.32 479 c 0
 2030.29 329.336 2058.75 233 2137.75 233 c 0
 2216.75 233 2272.29 329.336 2293.32 479 c 0
 2313.06 619.44 2285.22 706 2204.22 706 c 0x93c0
2101.21 -27 m 0
 1793.21 -27 1654.29 172.851 1695.77 468 c 0
 1734.3 742.146 1943.36 956 2239.36 956 c 0
 2535.36 956 2684.3 742.146 2645.77 468 c 0
 2604.29 172.851 2409.21 -27 2101.21 -27 c 0
EndSplineSet
LCarets2: 2 0 0 
Ligature2: "'dlig' Discretionary Ligatures in Latin lookup 4-1" zero slash zero
EndChar

StartChar: ampersand
Encoding: 6 38 7
Width: 1723
Flags: HW
LayerCount: 2
Fore
SplineSet
1306.15 1168 m 0
 1280.85 988 1202.84 931 1092.62 844 c 1
 1247.02 669 l 1
 1277.39 693 l 2
 1299.92 711 1367.65 766 1372.01 797 c 0
 1375.24 820 1367.93 832 1349.93 832 c 2
 1302.93 832 l 1
 1344.39 1127 l 1
 1827.39 1127 l 1
 1786.77 838 l 1
 1671.43 800 1650.06 776 1556.54 694 c 2
 1354.8 518 l 1
 1357.66 517 1419.72 368 1556.72 368 c 2
 1717.72 368 l 1
 1666 0 l 1
 1127 0 l 1
 1126.58 -3 l 1
 1098.22 30 1048.79 91 978.297 180 c 1
 836.184 44 671.784 -30 487.784 -30 c 0
 230.784 -30 56.1455 122 91.7031 375 c 0
 124.59 609 275.032 726 466.995 804 c 1
 401.94 889 374.136 990 390.579 1107 c 0
 428.104 1374 661.639 1513 929.639 1513 c 0
 1150.64 1513 1337.35 1390 1306.15 1168 c 0
640.076 584 m 1
 609.265 564 571.768 532 565.021 484 c 2
 564.74 482 l 2
 552.514 395 609.379 330 697.379 330 c 0
 738.379 330 778.205 343 817 370 c 1
 640.076 584 l 1
959.347 1269 m 0
 908.347 1269 840.443 1227 829.481 1149 c 1
 937.352 1020 l 1
 937.352 1020 1037.78 1080 1047.34 1148 c 0
 1056.9 1216 1027.35 1269 959.347 1269 c 0
EndSplineSet
EndChar

StartChar: quoteright
Encoding: 345 8217 8
Width: 649
Flags: HW
LayerCount: 2
Fore
SplineSet
209.319 1034 m 1
 208.038 1032 l 1
 209.038 1032 l 1
 209.319 1034 l 1
209.038 1032 m 1
 367.038 1032 407.893 1095 430.379 1255 c 1
 241.379 1255 l 1
 292.816 1621 l 1
 802.816 1621 l 1
 804.341 1518 799.411 1426 788.027 1345 c 0
 736.168 976 545.697 809 177.697 809 c 1
 209.038 1032 l 1
EndSplineSet
EndChar

StartChar: parenleft
Encoding: 8 40 9
Width: 915
Flags: HW
LayerCount: 2
Fore
SplineSet
871.189 -20 m 1
 342.189 -20 60.3193 294 133.682 816 c 0
 214.492 1391 532.314 1653 1111.31 1653 c 1
 1064.65 1321 l 1
 1062.37 1319 l 1
 776.53 1313 675.579 1107 634.822 817 c 0
 596.313 543 642.708 311 917.708 311 c 1
 871.189 -20 l 1
EndSplineSet
EndChar

StartChar: parenright
Encoding: 9 41 10
Width: 915
Flags: HW
HStem: -20 331<41 206.351> 1321 331<38 214.016> 1652 1<36 38>
VStem: 395 501<524.666 1108.73>
LayerCount: 2
Fore
SplineSet
509.822 817 m 0xd0
 550.579 1107 507.812 1315 223.654 1321 c 1
 270.174 1652 l 1
 848.033 1651 1091.21 1389 1010.54 815 c 0
 936.897 291 564.189 -20 38.1895 -20 c 1
 84.708 311 l 1
 359.708 311 471.313 543 509.822 817 c 0xd0
270.174 1652 m 1
 270.314 1653 l 1
 268.174 1652 l 1xb0
 270.174 1652 l 1
EndSplineSet
EndChar

StartChar: asterisk
Encoding: 10 42 11
Width: 1243
Flags: HW
LayerCount: 2
Fore
SplineSet
109.07 648 m 0
 136.335 842 476.222 891 641.671 944 c 1
 522.136 990 161.552 1057 186.146 1232 c 0
 190.222 1261 204.72 1293 232.639 1328 c 1
 221.514 1320 l 1
 257.119 1367 306.773 1393 358.773 1393 c 0
 530.773 1393 619.417 1177 691.503 1078 c 1
 676.524 1192 640.092 1317 659.347 1454 c 0
 673.541 1555 749.644 1634 845.644 1634 c 0
 941.644 1634 995.541 1555 981.347 1454 c 0
 961.53 1313 895.524 1192 844.784 1080 c 1
 948.838 1180 1090.63 1392 1261.63 1392 c 0
 1351.63 1392 1408.09 1317 1396.43 1234 c 0
 1368.88 1038 1028.84 995 864.827 938 c 1
 988.222 891 1350.51 829 1325.63 652 c 0
 1313.55 566 1222.46 480 1139.46 480 c 0
 967.46 480 879.098 698 804.87 796 c 1
 825.552 687 858.141 556 839.309 422 c 0
 825.113 321 749.011 242 653.011 242 c 0
 557.011 242 503.113 321 517.309 422 c 0
 536.562 559 606.973 690 656.433 800 c 1
 562.535 694 406.865 490 243.865 490 c 0
 153.865 490 97.4053 565 109.07 648 c 0
EndSplineSet
EndChar

StartChar: plus
Encoding: 11 43 12
Width: 816
Flags: HW
LayerCount: 2
Fore
SplineSet
119.092 762 m 1
 391.092 762 l 1
 431.708 1051 l 1
 686.708 1051 l 1
 646.092 762 l 1
 911.092 762 l 1
 876.659 517 l 1
 611.659 517 l 1
 572.449 238 l 1
 317.449 238 l 1
 356.659 517 l 1
 84.6592 517 l 1
 119.092 762 l 1
EndSplineSet
EndChar

StartChar: comma
Encoding: 12 44 13
Width: 596
Flags: HW
LayerCount: 2
Fore
SplineSet
5.65918 -223 m 1
 4.51855 -224 l 1
 5.51855 -224 l 1
 5.65918 -223 l 1
5.51855 -224 m 1
 163.519 -224 204.373 -161 226.859 -1 c 1
 37.8594 -1 l 1
 89.2979 365 l 1
 599.298 365 l 1
 600.821 262 595.892 170 584.367 88 c 0
 532.508 -281 342.038 -448 -25.9619 -448 c 1
 5.51855 -224 l 1
EndSplineSet
EndChar

StartChar: hyphen
Encoding: 13 45 14
Width: 759
Flags: HW
LayerCount: 2
Fore
SplineSet
840.492 836 m 1
 798.471 537 l 1
 111.471 537 l 1
 153.492 836 l 1
 840.492 836 l 1
EndSplineSet
EndChar

StartChar: period
Encoding: 14 46 15
Width: 617
Flags: HW
HStem: -28 496<141.562 303 305 470.582>
VStem: 26 565<80.4675 363.322>
LayerCount: 2
Fore
SplineSet
622.341 223 m 0
 600.275 66 459.205 -27 301.205 -27 c 1
 299.064 -28 l 1
 144.064 -28 35.5566 68 57.3408 223 c 0
 78.9844 377 212.773 468 369.773 468 c 0
 530.773 468 644.405 380 622.341 223 c 0
EndSplineSet
EndChar

StartChar: slash
Encoding: 15 47 16
Width: 893
Flags: HW
HStem: 0 21G<19 378.186> 1603 20G<503.949 874>
VStem: 19 353<0 353> 510 364<1259 1623>
DStem2: 19 0 372 0 0.295492 0.955345<104.309 1695.61>
LayerCount: 2
Fore
SplineSet
19 0 m 1
 738.098 1623 l 1
 1102.1 1623 l 1
 372 0 l 1
 19 0 l 1
EndSplineSet
EndChar

StartChar: zero
Encoding: 16 48 17
Width: 1298
Flags: HW
HStem: -26 21G<440.5 862.5> 1104 371<560.845 726.239>
VStem: 30 486<421.23 1052.49> 779 489<423.698 1052.63>
LayerCount: 2
Fore
SplineSet
648.346 -26 m 0
 225.346 -26 71.7783 297.271 137.232 763 c 0
 195.604 1178.33 470.298 1475 857.298 1475 c 0
 1244.3 1475 1433.45 1177.25 1375.37 764 c 0
 1310.24 300.519 1069.35 -26 648.346 -26 c 0
695.908 348 m 1
 696.205 343 l 1
 848.81 343 863.408 600.594 886.936 768 c 0
 907.694 915.708 931.875 1104 801.157 1104 c 0
 669.916 1104 644.578 914.884 623.373 764 c 0
 600.105 598.439 546.305 348 695.908 348 c 1
EndSplineSet
EndChar

StartChar: one
Encoding: 17 49 18
Width: 823
Flags: HW
HStem: 0 324<52 191 691 791> 1355 20G<609.719 689.038>
VStem: 191 500<324 951>
LayerCount: 2
Fore
SplineSet
52 0 m 1
 96.6758 325 l 1
 236.535 324 l 1
 324.654 951 l 1
 160.514 950 l 1
 196.773 1208 l 1
 882.244 1375 l 1
 736.535 324 l 1
 836.535 324 l 1
 791 0 l 1
 52 0 l 1
EndSplineSet
EndChar

StartChar: two
Encoding: 18 50 19
Width: 1247
Flags: HW
HStem: 0 317<74 186.846 663 996.069> 1127 348.598<376.078 707.03>
VStem: 24 323<880.73 1092.18> 619 510<800.98 1076.32> 1039 173<360.326 465>
LayerCount: 2
Fore
SplineSet
868.552 317 m 5xf0
 987.113 321 1087.21 343 1104.35 465 c 5
 1277.35 465 l 5xe8
 1217 0 l 5
 74 0 l 5
 116.584 303 l 5
 362.14 406.567 703.596 601.931 753.217 955 c 4
 765.162 1040 721.39 1127 639.39 1127 c 4
 555.39 1127 497.681 1072.15 486.838 995 c 4
 477.856 931.092 518.614 863.496 546.211 834 c 5
 295.757 660 l 5
 199.015 740.959 145.994 868.033 169.038 1032 c 4
 210.954 1330.25 497.977 1475.6 770.53 1475.6 c 4
 1050.26 1475.6 1314.6 1320.59 1272.21 1019 c 4
 1224.51 679.623 910.439 472.742 707.552 317 c 5
 868.552 317 l 5xf0
EndSplineSet
EndChar

StartChar: three
Encoding: 19 51 20
Width: 1201
Flags: HW
HStem: -19 324<208.611 595.167> 78 346<47 393> 1041 311<230 586>
VStem: 35 195<899 1041> 639 531<349.207 544.596>
LayerCount: 2
Fore
SplineSet
519.33 -19 m 0xb8
 208.33 -19 57.9619 78 57.9619 78 c 25
 106.589 424 l 1x78
 232.829 344.938 366.838 305 509.865 305 c 0
 594.314 305 686.951 341.19 701.541 445 c 0
 717.128 555.91 625.694 592 525.2 592 c 0
 479.208 592 345.39 572 345.39 572 c 9
 324.39 572 l 25
 348 740 l 1
 730.897 1031 l 1
 732.303 1041 l 1
 376.303 1041 l 25
 356.206 898 l 25
 161.347 899 l 1
 225.011 1352 l 1
 1294.01 1352 l 1
 1256.91 1088 l 17
 906.789 831 l 1
 1166.79 831 1262.17 655.788 1236.48 473 c 0
 1188.31 130.303 879.33 -19 519.33 -19 c 0xb8
EndSplineSet
EndChar

StartChar: four
Encoding: 20 52 21
AltUni2: 002074.ffffffff.0
Width: 1268
Flags: HW
HStem: 0 288<428 555 1011 1133> 420 257<366 555 1012 1239>
VStem: 555 457<288 420 677 911>
LayerCount: 2
Fore
SplineSet
1051.48 288 m 1
 1173.48 288 l 1
 1133 0 l 1
 428 0 l 1
 468.476 288 l 1
 595.476 288 l 1
 614.027 420 l 1
 80.8867 419 l 1
 118.692 688 l 1
 761.605 1342 l 1
 1200.46 1341 l 1
 1106.87 675 l 1
 1334.15 677 l 1
 1298.03 420 l 1
 1070.03 420 l 1
 1051.48 288 l 1
650.146 677 m 1
 683.033 911 l 1
 461.287 678 l 1
 650.146 677 l 1
EndSplineSet
EndChar

StartChar: five
Encoding: 21 53 22
Width: 1057
Flags: HW
HStem: -20 300<124.192 588.772> 617 741<77.5679 337.296> 1061 297<341 952>
VStem: 478 549<341.614 547.57>
LayerCount: 2
Fore
SplineSet
1098.82 511 m 0xb0
 1047.8 148 761.189 -20 399.189 -20 c 0
 275.189 -20 100.827 13 47.2598 73 c 1
 48.541 75 l 1
 86.7676 347 l 1
 120.379 330 l 2
 155.989 313 238.352 280 289.352 280 c 0
 400.352 280 524.379 330 540.541 445 c 0
 557.546 566 432.714 617 311.714 617 c 0xd0
 250.714 617 188.763 596 125.719 553 c 1
 115.265 564 l 1
 226.854 1358 l 1
 1142.85 1358 l 1
 1101.11 1061 l 1
 490.114 1061 l 1
 470.579 922 l 1
 496.141 926 l 2
 541.266 934 625.968 939 683.968 939 c 0
 938.968 939 1134.23 763 1098.82 511 c 0xb0
EndSplineSet
EndChar

StartChar: six
Encoding: 22 54 23
Width: 1303
Flags: HW
HStem: -19 328<574.403 720.254>
VStem: 28 512<338.05 719.309> 760 502.012<342.27 708.118>
LayerCount: 2
Back
SplineSet
1262 542 m 4
 1262 254 1011 -19 655 -19 c 4
 305 -19 28 186 28 534 c 4
 28 972.103 399.883 1236.1 617 1458 c 5
 622 1457 l 5
 1158 1457 l 5
 1158 1457 834.473 1083.95 802 993 c 5
 1114 978 1262 767 1262 542 c 4
658 746 m 4
 549 746 540 645 540 531 c 4
 540 438 551 309 644 309 c 4
 757 309 760 472 760 526 c 4
 760 606 738 746 658 746 c 4
EndSplineSet
Fore
SplineSet
1330.3 485.929 m 4
 1293.81 226.271 1006.93 -19 652.33 -19 c 4
 302.33 -19 54.1406 186 103.049 534 c 4
 167.136 990 633.873 1286.79 826.768 1457 c 5
 1362.77 1457 l 5
 1362.77 1457 997.907 1123.95 881.557 993 c 5
 1256.47 993 1364.98 739.574 1330.3 485.929 c 4
762.844 746 m 4
 653.844 746 630.648 645 614.627 531 c 4
 601.557 438 594.427 309 687.427 309 c 4
 800.427 309 826.335 472 833.925 526 c 4
 845.168 606 842.844 746 762.844 746 c 4
EndSplineSet
EndChar

StartChar: seven
Encoding: 23 55 24
Width: 1199
Flags: HW
HStem: 0 21G<117 658.859> 1020 317<269.405 622>
VStem: 32 218<878 1001.16>
DStem2: 117 0 649 0 0.442163 0.896935<235.231 1138.17>
LayerCount: 2
Fore
SplineSet
524.352 1020 m 2
 424.352 1020 388.151 983 373.254 877 c 1
 155.395 878 l 1
 219.903 1337 l 1
 1362.9 1337 l 1
 1324.96 1067 l 1
 649 0 l 1
 117 0 l 1
 765.352 1020 l 1
 524.352 1020 l 2
EndSplineSet
EndChar

StartChar: eight
Encoding: 24 56 25
Width: 1261
Flags: HW
HStem: -18 256<572.098 689.885> 576 248<570.375 690.5> 1121 256<566.613 697.29>
VStem: 30 520<253.617 556.031> 108 442<842.324 1107.71> 710 521<254.563 557.889> 714 439<844.153 1108.3>
LayerCount: 2
Fore
SplineSet
629.471 -18 m 0xe4
 326.471 -18 39.8379 70 82.4219 373 c 0xf4
 106.313 543 209.897 661 393.313 728 c 1
 292.076 769 229.708 866 249.665 1008 c 0
 288.313 1283 556.524 1377 825.524 1377 c 0
 1091.52 1377 1333.45 1284 1294.95 1010 c 0xea
 1274.99 868 1185.36 771 1072.59 730 c 1
 1237.18 663 1307.59 545 1283.7 375 c 0
 1241.12 72 932.471 -18 629.471 -18 c 0xe4
606.778 404 m 0
 591.179 293 610.449 238 663.449 238 c 0
 716.449 238 751.179 293 766.778 404 c 0
 782.94 519 764.951 576 712.951 576 c 0
 657.951 576 622.94 519 606.778 404 c 0
852.292 984 m 0xea
 862.271 1055 859.546 1121 791.546 1121 c 0
 719.546 1121 698.833 1059 688.292 984 c 0
 673.113 876 696.806 824 751.806 824 c 0
 803.806 824 837.113 876 852.292 984 c 0xea
EndSplineSet
EndChar

StartChar: nine
Encoding: 25 57 26
Width: 1308
Flags: HW
HStem: -2 21G<209 758.562> 1149 327<586.235 721.861>
VStem: 28 522<737.483 1115.75> 757 523<737.023 1123.87>
LayerCount: 2
Back
SplineSet
1262 971 m 4
 1262 1231 1010 1476 655 1476 c 4
 305 1476 28 1271 28 923 c 4
 28 467 453 170 622 0 c 5
 1158 0 l 5
 1158 0 840 333 742 464 c 5
 1117 464 1261 717 1262 971 c 4
658 711 m 4
 549 711 540 812 540 926 c 4
 540 1019 551 1148 644 1148 c 4
 757 1148 760 985 760 931 c 4
 760 851 738 711 658 711 c 4
EndSplineSet
Fore
SplineSet
1409.3 920 m 0
 1350.8 503.796 746.719 -2 746.719 -2 c 1
 209 0 l 1
 312.736 111.967 502.573 338.504 599.055 470 c 1
 331.055 470 120.055 655 157.298 920 c 0
 206.487 1270 518.438 1476 877.438 1476 c 0
 1220.44 1476 1457.08 1260 1409.3 920 c 0
887.281 927 m 0
 899.087 1011 905.481 1149 822.481 1149 c 0
 748.481 1149 700.66 1072 679.157 919 c 0
 659.622 780 685.784 710 758.784 710 c 0
 823.784 710 866.903 782 887.281 927 c 0
EndSplineSet
EndChar

StartChar: colon
Encoding: 26 58 27
Width: 629
Flags: HW
LayerCount: 2
Fore
SplineSet
716.897 846 m 0
 694.833 689 553.763 596 395.763 596 c 1
 393.622 595 l 1
 238.622 595 130.113 691 151.897 846 c 0
 173.541 1000 307.33 1091 464.33 1091 c 0
 625.33 1091 738.963 1003 716.897 846 c 0
628.465 231 m 0
 606.4 74 465.33 -19 307.33 -19 c 1
 305.189 -20 l 1
 150.189 -20 41.6807 76 63.4648 231 c 0
 85.1084 385 218.897 476 375.897 476 c 0
 536.897 476 650.53 388 628.465 231 c 0
EndSplineSet
EndChar

StartChar: semicolon
Encoding: 27 59 28
Width: 627
Flags: HW
LayerCount: 2
Fore
SplineSet
234.578 -3 m 1
 212.373 -161 170.659 -223 12.6592 -223 c 1
 -18.9619 -448 l 1
 -18.2432 -450 l 1
 349.757 -450 540.086 -284 592.087 86 c 0
 603.611 168 607.017 363 607.017 363 c 1
 97.0166 363 l 1
 45.5781 -3 l 1
 234.578 -3 l 1
716.476 843 m 0
 694.411 686 553.341 593 395.341 593 c 1
 393.2 592 l 1
 238.2 592 129.692 688 151.476 843 c 0
 173.119 997 306.908 1088 463.908 1088 c 0
 624.908 1088 738.541 1000 716.476 843 c 0
EndSplineSet
EndChar

StartChar: less
Encoding: 28 60 29
AltUni2: 002039.ffffffff.0
Width: 766
Flags: HW
LayerCount: 2
Fore
SplineSet
147.951 946 m 1
 946.714 1542 l 1
 881.362 1077 l 1
 503.951 761 l 1
 792.541 445 l 1
 727.189 -20 l 1
 95.9512 576 l 1
 147.951 946 l 1
EndSplineSet
EndChar

StartChar: equal
Encoding: 29 61 30
Width: 719
Flags: HW
LayerCount: 2
Fore
SplineSet
738.092 392 m 1
 706.751 169 l 1
 59.751 169 l 1
 91.0918 392 l 1
 738.092 392 l 1
789.951 761 m 1
 758.611 538 l 1
 111.611 538 l 1
 142.951 761 l 1
 789.951 761 l 1
EndSplineSet
EndChar

StartChar: greater
Encoding: 30 62 31
AltUni2: 00203a.ffffffff.0
Width: 766
Flags: HW
LayerCount: 2
Fore
SplineSet
831.951 576 m 1
 33.1895 -20 l 1
 98.541 445 l 1
 475.951 761 l 1
 187.362 1077 l 1
 252.714 1542 l 1
 883.951 946 l 1
 831.951 576 l 1
EndSplineSet
EndChar

StartChar: question
Encoding: 31 63 32
Width: 1259
Flags: HW
LayerCount: 2
Fore
SplineSet
1414.91 1273 m 0
 1367.55 936 1042.26 813 776.032 726 c 1
 749.752 539 l 1
 402.752 539 l 1
 453.222 891 l 1
 453.503 893 l 1
 734.228 1012 882.951 1131 899.676 1250 c 0
 909.232 1318 892.087 1381 822.087 1381 c 0
 742.087 1381 691.498 1327 669.319 1219 c 1
 197.319 1219 l 1
 258.605 1527 548.119 1737 879.119 1737 c 0
 1191.12 1737 1457.63 1577 1414.91 1273 c 0
824.622 225 m 0
 802.557 68 661.486 -25 503.486 -25 c 1
 501.346 -26 l 1
 346.346 -26 237.838 70 259.622 225 c 0
 281.265 379 415.055 470 572.055 470 c 0
 733.055 470 846.687 382 824.622 225 c 0
EndSplineSet
EndChar

StartChar: at
Encoding: 32 64 33
Width: 1817
Flags: HW
LayerCount: 2
Fore
SplineSet
1085.48 964 m 0
 1330.48 964 1461.74 852 1426.75 603 c 1
 1398.94 398 l 1
 1403.51 395 l 1
 1540.51 395 1580.63 531 1600.87 675 c 0
 1643.45 978 1419.7 1115 1091.7 1115 c 0
 730.703 1115 473.735 916 424.405 565 c 0
 374.373 209 625.778 34 989.778 34 c 0
 1047.78 34 1102.76 41 1155.87 56 c 1
 1175.83 -172 l 1
 1100.16 -191 1026.75 -201 956.751 -201 c 0
 431.751 -201 37.3086 52 109.124 563 c 0
 181.081 1075 605.26 1368 1126.26 1368 c 0
 1597.26 1368 1949.23 1133 1884.72 674 c 0
 1837.64 339 1585.39 202 1241.39 202 c 2
 1091.39 202 l 1
 1066.04 292 l 1
 1019.17 236 927.562 189 839.562 189 c 0
 655.562 189 581.39 387 609.497 587 c 0
 644.773 838 827.481 964 1085.48 964 c 0
1066.26 813 m 0
 984.26 813 965.46 665 953.373 579 c 1
 952.092 577 l 1
 940.989 498 935 370 996 370 c 0
 1033 370 1080.7 375 1084.92 405 c 2
 1121.74 667 l 2
 1133.69 752 1136.26 813 1066.26 813 c 0
EndSplineSet
EndChar

StartChar: A
Encoding: 33 65 34
Width: 1690
Flags: HW
HStem: 0 359<32 189 567 710 835 956 1535 1662> 523 240<640 869> 1240 353<219 431>
DStem2: 1213 1593 752 1251 0.252677 -0.967551<214.418 716.146>
LayerCount: 2
Fore
SplineSet
990.503 523 m 1
 667.503 523 l 1
 617.454 359 l 1
 760.454 359 l 1
 710 0 l 1
 32 0 l 1
 82.4541 359 l 1
 239.454 359 l 1
 605.271 1240 l 1
 393.271 1240 l 1
 442.882 1593 l 1
 1436.88 1593 l 1
 1585.59 360 l 1
 1712.59 360 l 1
 1662 0 l 1
 835 0 l 1
 885.454 359 l 1
 1005.45 359 l 2
 1006.45 359 1006.59 360 1006.88 362 c 0
 1010.11 385 990.503 523 990.503 523 c 1
927.816 1251 m 1
 747.232 763 l 1
 976.232 763 l 1
 927.816 1251 l 1
EndSplineSet
Substitution2: "'c2sc' Capitals to Small Capitals in Latin lookup 0 subtable" a.sc
EndChar

StartChar: B
Encoding: 34 66 35
Width: 1595
Flags: HW
HStem: 0 359<36 209 736 963.967> 690 261<736 960.061> 1240 353<43 209 736 955.209>
VStem: 209 527<359 689 951 1240> 1000 494<1006.26 1206.43> 1008 555<404.588 627.497>
LayerCount: 2
Fore
SplineSet
1659 1174 m 0xf8
 1635.52 1007 1506.8 888 1367.05 840 c 1
 1548.32 785 1654.49 651 1622.03 420 c 0xf4
 1577.19 101 1299 0 978 0 c 2
 36 0 l 1
 86.4541 359 l 1
 259.454 359 l 1
 383.271 1240 l 1
 217.271 1240 l 1
 266.882 1593 l 1
 1080.88 1593 l 2
 1437.88 1593 1708.89 1529 1659 1174 c 0xf8
1082.07 527 m 0
 1098.65 645 1030.97 690 906.973 690 c 0
 899.973 690 874.973 690 832.833 689 c 1
 786.454 359 l 1
 808.454 359 l 2
 941.454 359 1059.72 368 1082.07 527 c 0
1154.74 1101 m 0xf8
 1166.54 1185 1116.27 1240 1036.27 1240 c 2
 910.271 1240 l 1
 869.654 951 l 1
 910.654 951 l 2
 1048.65 951 1137.31 977 1154.74 1101 c 0xf8
EndSplineSet
Substitution2: "'c2sc' Capitals to Small Capitals in Latin lookup 0 subtable" b.sc
EndChar

StartChar: C
Encoding: 35 67 36
Width: 1454
Flags: HW
HStem: -27 420<596.32 1119.25> 1260 363<476 975.295> 1574 20G<1117.27 1416>
VStem: 26 602<607.346 1071.26> 1118 298<962 1154.16>
LayerCount: 2
Fore
SplineSet
1014.23 393 m 0xd8
 1200.23 393 1380.58 488 1465.12 563 c 1
 1404.69 133 l 1
 1205.65 26 1000.21 -27 815.205 -27 c 0
 387.205 -27 61.8379 255 139.136 805 c 0
 202.238 1254 470.098 1623 938.098 1623 c 0xd8
 1100.1 1623 1228.16 1595 1299.83 1493 c 1
 1348.02 1594 l 1
 1640.02 1594 l 1xb8
 1551.2 962 l 1
 1253.2 962 l 1
 1254.46 971 l 2
 1276.67 1129 1220.08 1260 1060.08 1260 c 0
 901.081 1260 775.989 1053 746.897 846 c 0
 715.136 620 782.232 393 1014.23 393 c 0xd8
EndSplineSet
Substitution2: "'c2sc' Capitals to Small Capitals in Latin lookup 0 subtable" c.sc
EndChar

StartChar: D
Encoding: 36 68 37
Width: 1714
Flags: HW
HStem: 0 359<42 205 752 940.985> 1241 352<36 205 752 940.362>
VStem: 205 547<359 1241> 1094 594<535.136 1070.59>
LayerCount: 2
Fore
SplineSet
1799.87 796 m 0
 1737.19 350 1375 0 844 0 c 2
 42 0 l 1
 92.4541 359 l 1
 255.454 359 l 1
 379.411 1241 l 1
 210.411 1241 l 1
 259.882 1593 l 1
 1089.88 1593 l 2
 1630.88 1593 1874.22 1325 1799.87 796 c 0
1206.01 797 m 0
 1239.04 1032 1214.41 1241 973.411 1241 c 2
 926.411 1241 l 1
 802.454 359 l 1
 837.454 359 l 2
 1076.45 359 1173.83 568 1206.01 797 c 0
EndSplineSet
Substitution2: "'c2sc' Capitals to Small Capitals in Latin lookup 0 subtable" d.sc
EndChar

StartChar: E
Encoding: 37 69 38
Width: 1359
Flags: HW
HStem: 0 359<36 194 747 965> 716 262<747 952> 1240 353<36 194 747 960>
VStem: 194 553<359 716 978 1240>
LayerCount: 2
Fore
SplineSet
1170.78 959 m 1
 1134.27 1240 l 1
 921.271 1240 l 1
 884.449 978 l 1
 1089.45 978 l 1
 1052.63 716 l 1
 847.627 716 l 1
 797.454 359 l 1
 1015.45 359 l 1
 1137.15 677 l 1
 1410.15 677 l 1
 1315 0 l 1
 36 0 l 1
 86.4541 359 l 1
 244.454 359 l 1
 368.271 1240 l 1
 210.271 1240 l 1
 259.882 1593 l 1
 1527.88 1593 l 1
 1438.78 959 l 1
 1170.78 959 l 1
EndSplineSet
Substitution2: "'c2sc' Capitals to Small Capitals in Latin lookup 0 subtable" e.sc
EndChar

StartChar: F
Encoding: 38 70 39
Width: 1338
Flags: HW
LayerCount: 2
Fore
SplineSet
1056.99 683 m 1
 854.989 683 l 1
 809.454 359 l 1
 963.454 359 l 1
 913 0 l 1
 36 0 l 1
 86.4541 359 l 1
 244.454 359 l 1
 368.271 1240 l 1
 210.271 1240 l 1
 259.882 1593 l 1
 1534.88 1593 l 1
 1444.37 949 l 1
 1160.37 949 l 1
 1137.27 1240 l 1
 933.271 1240 l 1
 890.968 939 l 1
 1092.97 939 l 1
 1056.99 683 l 1
EndSplineSet
Substitution2: "'c2sc' Capitals to Small Capitals in Latin lookup 0 subtable" f.sc
EndChar

StartChar: G
Encoding: 39 71 40
Width: 1632
Flags: HW
LayerCount: 2
Fore
SplineSet
741.573 801 m 0
 711.919 590 791.124 378 1004.12 378 c 0
 1103.12 378 1199.46 416 1199.46 416 c 1
 1219.42 558 l 1
 1051.42 558 l 1
 1094.15 862 l 1
 1719.15 862 l 1
 1617.68 140 l 1
 1397.22 30 1145.92 -29 913.924 -29 c 0
 449.924 -29 59.6543 211 141.309 792 c 0
 203.287 1233 520.957 1622 1059.96 1622 c 0
 1188.96 1622 1288.2 1581 1353.7 1485 c 1
 1402.88 1593 l 1
 1747.88 1593 l 1
 1663.56 993 l 1
 1355.56 993 l 1
 1338.42 1177 1242.08 1260 1130.08 1260 c 0
 933.081 1260 782.049 1089 741.573 801 c 0
EndSplineSet
Substitution2: "'c2sc' Capitals to Small Capitals in Latin lookup 0 subtable" g.sc
EndChar

StartChar: H
Encoding: 40 72 41
Width: 1771
Flags: HW
HStem: 0 359<36 183 750 846 935 1019 1588 1735> 635 341<750 1019> 1240 353<36 183 750 845 931 1019 1588 1729>
VStem: 36 810<0 359 1240 1593> 183 567<359 635 976 1240> 935 800<0 359 1240 1593> 1019 569<359 635 976 1240>
LayerCount: 2
Fore
SplineSet
86.4541 359 m 1xf0
 233.454 359 l 1
 357.271 1240 l 1xe8
 210.271 1240 l 1
 259.882 1593 l 1xf0
 1068.88 1593 l 1
 1019.27 1240 l 1
 924.271 1240 l 1
 887.168 976 l 1
 1156.17 976 l 1
 1193.27 1240 l 1
 1105.27 1240 l 1
 1154.88 1593 l 1
 1952.88 1593 l 1
 1903.27 1240 l 1
 1762.27 1240 l 1
 1638.45 359 l 1xea
 1785.45 359 l 1
 1735 0 l 1
 935 0 l 1
 985.454 359 l 1xe4
 1069.45 359 l 1
 1108.24 635 l 1
 839.243 635 l 1
 800.454 359 l 1xea
 896.454 359 l 1
 846 0 l 1
 36 0 l 1
 86.4541 359 l 1xf0
EndSplineSet
Substitution2: "'c2sc' Capitals to Small Capitals in Latin lookup 0 subtable" h.sc
EndChar

StartChar: I
Encoding: 41 73 42
Width: 940
Flags: HW
HStem: 0 359<36 183 757 898> 1240 353<40 183 757 904>
VStem: 36 862<0 359 1240 1593>
LayerCount: 2
Fore
SplineSet
1078.27 1240 m 1
 931.271 1240 l 1
 807.454 359 l 1
 948.454 359 l 1
 898 0 l 1
 36 0 l 1
 86.4541 359 l 1
 233.454 359 l 1
 357.271 1240 l 1
 214.271 1240 l 1
 263.882 1593 l 1
 1127.88 1593 l 1
 1078.27 1240 l 1
EndSplineSet
Substitution2: "'c2sc' Capitals to Small Capitals in Latin lookup 0 subtable" i.sc
EndChar

StartChar: J
Encoding: 42 74 43
Width: 1294
Flags: HW
LayerCount: 2
Fore
SplineSet
505.298 365 m 0
 600.298 365 629.367 458 645.39 572 c 2
 739.271 1240 l 1
 585.271 1240 l 1
 634.882 1593 l 1
 1488.88 1593 l 1
 1439.27 1240 l 1
 1292.27 1240 l 1
 1184.76 475 l 2
 1141.47 167 926.784 -30 617.784 -30 c 0
 484.784 -30 393.843 6 345.103 79 c 1
 295.173 -13 l 1
 25.1729 -13 l 1
 115.962 633 l 1
 419.962 633 l 1
 403.238 514 387.298 365 505.298 365 c 0
EndSplineSet
Substitution2: "'c2sc' Capitals to Small Capitals in Latin lookup 0 subtable" j.sc
EndChar

StartChar: K
Encoding: 43 75 44
Width: 1729
Flags: HW
LayerCount: 2
Fore
SplineSet
1053.15 307 m 2
 1077.74 482 l 2
 1086.31 543 1050.54 630 988.541 630 c 2
 818.541 630 l 1
 780.454 359 l 1
 907.454 359 l 1
 864 0 l 1
 36 0 l 1
 86.4541 359 l 1
 233.454 359 l 1
 357.271 1240 l 1
 210.271 1240 l 1
 259.741 1592 l 1
 1080.74 1592 l 1
 1031.27 1240 l 1
 904.271 1240 l 1
 853.254 877 l 1
 1191.27 1240 l 1
 1240.74 1592 l 1
 1864.74 1592 l 1
 1815.27 1240 l 1
 1678.27 1240 l 1
 1305.02 854 l 1
 1303.05 840 l 1
 1499.05 840 1641.75 788 1614.2 592 c 2
 1594.38 451 l 2
 1588.9 412 1605.45 359 1648.45 359 c 2
 1738.45 359 l 1
 1694 0 l 1
 1346 0 l 2
 1122 0 1024.33 102 1053.15 307 c 2
EndSplineSet
Substitution2: "'c2sc' Capitals to Small Capitals in Latin lookup 0 subtable" k.sc
EndChar

StartChar: L
Encoding: 44 76 45
Width: 1341
Flags: HW
HStem: 0 359<41 183 750 941> 1240 352<36 183 750 904>
VStem: 183 567<359 1240>
LayerCount: 2
Fore
SplineSet
800.454 359 m 1
 991.454 359 l 1
 1127.64 709 l 1
 1413.64 709 l 1
 1314 0 l 1
 41 0 l 1
 91.4541 359 l 1
 233.454 359 l 1
 357.271 1240 l 1
 210.271 1240 l 1
 259.741 1592 l 1
 1127.74 1592 l 1
 1078.27 1240 l 1
 924.271 1240 l 1
 800.454 359 l 1
EndSplineSet
Substitution2: "'c2sc' Capitals to Small Capitals in Latin lookup 0 subtable" l.sc
EndChar

StartChar: M
Encoding: 45 77 46
Width: 2284
Flags: HW
HStem: 0 359<40 204 529 691 1445 1568 2094 2248> 1240 353<36 204 2094 2241>
VStem: 204 325<360 969> 1568 526<359 947>
LayerCount: 2
Fore
SplineSet
741.454 359 m 1
 691 0 l 1
 40 0 l 1
 90.4541 359 l 1
 203.454 359 254.595 360 254.595 360 c 1
 378.271 1240 l 1
 210.271 1240 l 1
 259.882 1593 l 1
 1094.88 1593 l 1
 1297.09 826 l 1
 1680.88 1593 l 1
 2464.88 1593 l 1
 2415.27 1240 l 1
 2268.27 1240 l 1
 2144.45 359 l 1
 2298.45 359 l 1
 2248 0 l 1
 1445 0 l 1
 1495.45 359 l 1
 1618.45 359 l 1
 1701.09 947 l 1
 1226 0 l 1
 945 0 l 1
 665.184 969 l 1
 579.595 360 l 1
 579.595 360 645.454 359 741.454 359 c 1
EndSplineSet
Substitution2: "'c2sc' Capitals to Small Capitals in Latin lookup 0 subtable" m.sc
EndChar

StartChar: N
Encoding: 46 78 47
Width: 1785
Flags: HW
HStem: 0 359<36 199 515 673> 1240 352<42 199 1115 1273 1594 1752>
VStem: 199 316<360 878> 1273 321<647 1240>
LayerCount: 2
Fore
SplineSet
1926.27 1240 m 1
 1768.27 1240 l 1
 1594 0 l 1
 988 0 l 1
 638.395 878 l 1
 565.595 360 l 1
 565.595 360 611.595 360 723.454 359 c 1
 673 0 l 1
 36 0 l 1
 86.4541 359 l 1
 188.454 359 249.595 360 249.595 360 c 1
 373.552 1242 l 1
 216.552 1242 l 1
 265.882 1593 l 1
 1000.88 1593 l 1
 1363.93 647 l 1
 1447.27 1240 l 1
 1289.27 1240 l 1
 1338.74 1592 l 1
 1975.74 1592 l 1
 1926.27 1240 l 1
EndSplineSet
Substitution2: "'c2sc' Capitals to Small Capitals in Latin lookup 0 subtable" n.sc
EndChar

StartChar: O
Encoding: 47 79 48
Width: 1692
Flags: HW
HStem: -29 347<752.934 939.066> 1260 363<747.103 944.897>
VStem: 26 600<521.023 1096.66> 1066 600<521.023 1096.66>
LayerCount: 2
Fore
SplineSet
890.692 318 m 0
 1040.69 318 1145.26 564 1179.28 806 c 0
 1211.74 1037 1179.08 1260 1023.08 1260 c 0
 867.081 1260 771.741 1037 739.276 806 c 0
 705.265 564 740.692 318 890.692 318 c 0
841.924 -29 m 0
 360.924 -29 71.3945 323 138.151 798 c 0
 208 1295 569.098 1623 1074.1 1623 c 0
 1579.1 1623 1848 1295 1778.15 798 c 0
 1711.39 323 1322.92 -29 841.924 -29 c 0
EndSplineSet
Substitution2: "'c2sc' Capitals to Small Capitals in Latin lookup 0 subtable" o.sc
EndChar

StartChar: P
Encoding: 48 80 49
Width: 1588
Flags: HW
HStem: 0 359<36 192 751 897> 559 326<752 940.292> 1240 353<41 192 752 967.784>
VStem: 192 560<359 569 885 1240> 1020 543<952.056 1190.36>
LayerCount: 2
Fore
SplineSet
979.562 559 m 0
 932.562 559 882.984 562 830.968 569 c 1
 801.454 359 l 1
 947.454 359 l 1
 897 0 l 1
 36 0 l 1
 86.4541 359 l 1
 242.454 359 l 1
 366.271 1240 l 1
 215.271 1240 l 1
 264.882 1593 l 1
 1115.88 1593 l 2
 1437.88 1593 1776.48 1519 1722.23 1133 c 0
 1663.35 714 1404.56 559 979.562 559 c 0
1010.27 1240 m 2
 926.271 1240 l 1
 876.379 885 l 1
 917.379 885 l 2
 1068.38 885 1153.79 952 1172.63 1086 c 0
 1186.68 1186 1120.27 1240 1010.27 1240 c 2
EndSplineSet
Substitution2: "'c2sc' Capitals to Small Capitals in Latin lookup 0 subtable" p.sc
EndChar

StartChar: Q
Encoding: 49 81 50
Width: 1744
Flags: HW
HStem: -29 347<752.934 943.954> 1260 363<747.103 944.897>
VStem: 26 600<521.023 1096.66> 1066 600<516.174 1096.66>
LayerCount: 2
Fore
SplineSet
841.924 -29 m 0
 360.924 -29 71.3945 323 138.151 798 c 0
 208 1295 569.098 1623 1074.1 1623 c 0
 1579.1 1623 1848 1295 1778.15 798 c 0
 1754.96 633 1693.02 484 1602.45 359 c 1
 1605.59 360 l 1
 1768.59 360 l 1
 1718.14 1 l 1
 1080.14 1 l 1
 1004.47 -18 923.924 -29 841.924 -29 c 0
890.692 318 m 0
 1040.69 318 1145.26 564 1179.28 806 c 0
 1211.74 1037 1179.08 1260 1023.08 1260 c 0
 867.081 1260 771.741 1037 739.276 806 c 0
 705.265 564 740.692 318 890.692 318 c 0
EndSplineSet
Substitution2: "'c2sc' Capitals to Small Capitals in Latin lookup 0 subtable" q.sc
EndChar

StartChar: R
Encoding: 50 82 51
Width: 1694
Flags: HW
HStem: 0 359<37 191 726 847 1512.22 1662> 683 226<726 956.625> 1239 353<36 191 720 981.462>
VStem: 191 529<359 683 909 1239> 1031 549<985.067 1189.91>
LayerCount: 2
Fore
SplineSet
1743.03 1160 m 0
 1712.25 941 1537.21 834 1333.01 797 c 1
 1481.09 762 1597.22 706 1575.02 548 c 2
 1563.35 465 l 2
 1549.58 367 1610.31 358 1712.31 358 c 1
 1661.86 -1 l 1
 1337.86 -1 l 2
 1140.86 -1 1017.45 53 1045.84 255 c 2
 1071.84 440 l 2
 1093.2 592 1072.99 683 919.989 683 c 2
 821.989 683 l 1
 776.454 359 l 1
 897.454 359 l 1
 847 0 l 1
 671 0 401.141 1 37 0 c 1
 87.4541 359 l 1
 241.454 359 l 1
 365.13 1239 l 1
 210.13 1239 l 1
 259.741 1592 l 1
 1274.74 1592 l 2
 1601.74 1592 1787.02 1473 1743.03 1160 c 0
1183.49 1085 m 0
 1197.26 1183 1128.13 1239 1015.13 1239 c 2
 894.13 1239 l 1
 847.752 909 l 1
 908.752 909 l 2
 1043.75 909 1164.37 949 1183.49 1085 c 0
EndSplineSet
Substitution2: "'c2sc' Capitals to Small Capitals in Latin lookup 0 subtable" r.sc
EndChar

StartChar: S
Encoding: 51 83 52
Width: 1358
Flags: HW
HStem: -29 333<571.825 956.125> 0 488<90 413> 1117 476<926 1211> 1305 318.12<399.497 779.512>
VStem: 52.5127 468.487<936.88 1278.76> 90 323<0 101.687 394.332 488> 805 509<336.3 696.278>
LayerCount: 2
Fore
SplineSet
211.882 1133.97 m 4x8a
 252.657 1424.1 489.972 1623.12 775.169 1623.12 c 4x9a
 993.477 1623.12 1060.4 1548.59 1101.42 1483 c 5
 1149.88 1593 l 5
 1434.88 1593 l 5
 1367.98 1117 l 5
 1060.98 1117 l 5x2a
 1027.66 1260.97 974.331 1305 860.406 1305 c 4
 760.889 1305 699.768 1272 691.477 1213 c 4
 681.498 1142 787.703 1115 884.471 1092 c 4
 1189.73 1017.08 1439.44 892.556 1384.27 500 c 4
 1342.47 202.562 1108.17 -29 795.924 -29 c 4x9a
 613.066 -29 539.752 20.917 446.146 122 c 5
 413 0 l 5
 90 0 l 5
 158.584 488 l 5
 480.584 488 l 5x46
 503.434 344.623 590.725 304 708.725 304 c 4
 780.725 304 853.411 344.465 864.027 420 c 4
 874.427 494 790.8 518 720.611 538 c 4
 417.906 628.259 156.483 739.791 211.882 1133.97 c 4x8a
EndSplineSet
Substitution2: "'c2sc' Capitals to Small Capitals in Latin lookup 0 subtable" s.sc
EndChar

StartChar: T
Encoding: 52 84 53
Width: 1557
Flags: HW
HStem: 0 360<331 495 1058 1222> 965 627<30 311 1246 1527> 1240 352<355 495 1058 1204>
VStem: 495 563<360 1240>
LayerCount: 2
Fore
SplineSet
1381.62 965 m 1xd0
 1378.27 1240 l 1
 1232.27 1240 l 1
 1108.59 360 l 1
 1272.59 360 l 1
 1222 0 l 1
 331 0 l 1
 381.595 360 l 1
 545.595 360 l 1
 669.271 1240 l 1
 529.271 1240 l 1xb0
 446.622 965 l 1
 165.622 965 l 1
 253.741 1592 l 1
 1750.74 1592 l 1
 1662.62 965 l 1
 1381.62 965 l 1xd0
EndSplineSet
Substitution2: "'c2sc' Capitals to Small Capitals in Latin lookup 0 subtable" t.sc
EndChar

StartChar: U
Encoding: 53 85 54
Width: 1655
Flags: HW
LayerCount: 2
Fore
SplineSet
288.94 704 m 2
 364.271 1240 l 1
 203.271 1240 l 1
 252.741 1592 l 1
 1121.74 1592 l 1
 1072.27 1240 l 1
 924.271 1240 l 1
 834.324 600 l 2
 814.93 462 848.627 346 987.627 346 c 0
 1107.63 346 1193.61 417 1210.33 536 c 2
 1309.27 1240 l 1
 1145.27 1240 l 1
 1194.74 1592 l 1
 1848.74 1592 l 1
 1799.27 1240 l 1
 1645.27 1240 l 1
 1544.08 520 l 2
 1496.44 181 1158.92 -29 815.924 -29 c 0
 354.924 -29 224.433 245 288.94 704 c 2
EndSplineSet
Substitution2: "'c2sc' Capitals to Small Capitals in Latin lookup 0 subtable" u.sc
EndChar

StartChar: V
Encoding: 54 86 55
Width: 1690
Flags: HW
LayerCount: 2
Fore
SplineSet
1039.27 1240 m 1
 923.271 1240 l 1
 1023.66 517 l 1
 1300.13 1239 l 1
 1170.13 1239 l 1
 1219.74 1592 l 1
 1913.74 1592 l 1
 1864.27 1240 l 1
 1684.27 1240 l 1
 1111 0 l 1
 527 0 l 1
 340.271 1240 l 1
 174.271 1240 l 1
 223.741 1592 l 1
 1088.74 1592 l 1
 1039.27 1240 l 1
EndSplineSet
Substitution2: "'c2sc' Capitals to Small Capitals in Latin lookup 0 subtable" v.sc
EndChar

StartChar: W
Encoding: 55 87 56
Width: 2497
Flags: HW
HStem: 0 21G<506.371 1054.72 1438.53 1992.5> 1240 353<0 163 740 891 1836 1976 2328 2497>
DStem2: 1821 703 2328 1240 0.265156 0.964205<0 558.878>
LayerCount: 2
Fore
SplineSet
174.271 1240 m 1
 223.882 1593 l 1
 1114.88 1593 l 1
 1065.27 1240 l 1
 914.271 1240 l 1
 993.443 672 l 1
 1382.88 1593 l 1
 1791.88 1593 l 1
 1919.8 703 l 1
 2150.27 1240 l 1
 2010.27 1240 l 1
 2059.88 1593 l 1
 2720.88 1593 l 1
 2671.27 1240 l 1
 2502.27 1240 l 1
 1987 0 l 1
 1444 0 l 1
 1350.22 706 l 1
 1049 0 l 1
 512 0 l 1
 337.271 1240 l 1
 174.271 1240 l 1
EndSplineSet
Substitution2: "'c2sc' Capitals to Small Capitals in Latin lookup 0 subtable" w.sc
EndChar

StartChar: X
Encoding: 56 88 57
Width: 1921
Flags: HW
LayerCount: 2
Fore
SplineSet
907.454 359 m 1
 857 0 l 1
 35 0 l 1
 85.4541 359 l 1
 244.454 359 l 1
 746.335 842 l 1
 431.271 1240 l 1
 260.271 1240 l 1
 309.882 1593 l 1
 1227.88 1593 l 1
 1178.27 1240 l 1
 1096.27 1240 l 1
 1230.72 1044 l 1
 1406.27 1240 l 1
 1262.27 1240 l 1
 1311.88 1593 l 1
 2058.88 1593 l 1
 2009.27 1240 l 1
 1812.27 1240 l 1
 1418.7 809 l 1
 1784.59 360 l 1
 1936.59 360 l 1
 1886 0 l 1
 957 0 l 1
 1007.45 359 l 1
 1133.45 359 l 1
 926.292 614 l 1
 684.454 359 l 1
 684.454 359 724.454 359 907.454 359 c 1
EndSplineSet
Substitution2: "'c2sc' Capitals to Small Capitals in Latin lookup 0 subtable" x.sc
EndChar

StartChar: Y
Encoding: 57 89 58
Width: 1635
Flags: HW
LayerCount: 2
Fore
SplineSet
1290.27 1240 m 1
 1143.27 1240 l 1
 1192.74 1592 l 1
 1829.74 1592 l 1
 1780.27 1240 l 1
 1601.27 1240 l 1
 1216.94 704 l 1
 1168.45 359 l 1
 1325.45 359 l 1
 1275 0 l 1
 406 0 l 1
 456.454 359 l 1
 611.454 359 l 1
 652.633 652 l 1
 314.271 1240 l 1
 202.271 1240 l 1
 251.741 1592 l 1
 1103.74 1592 l 1
 1054.27 1240 l 1
 963.271 1240 l 1
 1108.75 973 l 1
 1290.27 1240 l 1
EndSplineSet
Substitution2: "'c2sc' Capitals to Small Capitals in Latin lookup 0 subtable" y.sc
EndChar

StartChar: Z
Encoding: 58 90 59
Width: 1487
Flags: HW
LayerCount: 2
Fore
SplineSet
1607.5 1263 m 1
 803.454 359 l 1
 1112.45 359 l 1
 1266.68 695 l 1
 1548.68 695 l 1
 1451 0 l 1
 41 0 l 1
 90.1895 350 l 1
 893.271 1240 l 1
 578.271 1240 l 1
 454.422 928 l 1
 166.422 928 l 1
 259.741 1592 l 1
 1653.74 1592 l 1
 1607.5 1263 l 1
EndSplineSet
Substitution2: "'c2sc' Capitals to Small Capitals in Latin lookup 0 subtable" z.sc
EndChar

StartChar: bracketleft
Encoding: 59 91 60
Width: 786
Flags: HW
LayerCount: 2
Fore
SplineSet
36 0 m 1
 264.098 1623 l 1
 978.098 1623 l 1
 935.795 1322 l 1
 738.795 1322 l 1
 596.708 311 l 1
 789.708 311 l 1
 745 0 l 1
 36 0 l 1
EndSplineSet
EndChar

StartChar: backslash
Encoding: 60 92 61
Width: 947
Flags: HW
LayerCount: 2
Fore
SplineSet
358 0 m 1
 244.098 1623 l 1
 818.098 1623 l 1
 931 0 l 1
 358 0 l 1
EndSplineSet
EndChar

StartChar: bracketright
Encoding: 61 93 62
Width: 786
Flags: HW
LayerCount: 2
Fore
SplineSet
41 0 m 1
 83.708 311 l 1
 276.708 311 l 1
 418.795 1322 l 1
 221.795 1322 l 1
 264.098 1623 l 1
 978.098 1623 l 1
 750 0 l 1
 41 0 l 1
EndSplineSet
EndChar

StartChar: asciicircum
Encoding: 62 94 63
Width: 1438
Flags: HW
LayerCount: 2
Fore
SplineSet
1130.24 1624 m 1
 1525.75 909 l 1
 1060.75 909 l 1
 891.552 1242 l 1
 628.752 909 l 1
 163.752 909 l 1
 760.238 1624 l 1
 1130.24 1624 l 1
EndSplineSet
EndChar

StartChar: underscore
Encoding: 63 95 64
Width: 1328
Flags: HW
LayerCount: 2
Fore
SplineSet
1261.86 -1 m 1
 1230.52 -224 l 1
 37.5186 -224 l 1
 68.8594 -1 l 1
 1261.86 -1 l 1
EndSplineSet
EndChar

StartChar: quoteleft
Encoding: 344 8216 65
Width: 651
Flags: HW
LayerCount: 2
Fore
SplineSet
786.692 1428 m 1
 787.411 1426 l 1
 630.411 1426 587.838 1365 565.492 1206 c 1
 754.492 1206 l 1
 703.055 840 l 1
 193.055 840 l 1
 191.53 943 196.46 1035 207.984 1117 c 0
 259.844 1486 450.314 1653 818.314 1653 c 1
 786.692 1428 l 1
EndSplineSet
EndChar

StartChar: a
Encoding: 65 97 66
Width: 1323
Flags: HW
HStem: -18 242<284.422 624> 0 21G<751.429 1292> 438 192<322.59 706.419> 708 314<99 316.86> 803 288<358.704 659.219>
VStem: 32 470<241.382 415.182> 709 487<305 434.375 592 753.49>
LayerCount: 2
Fore
SplineSet
509.541 630 m 0xa6
 622.285 630 710.877 617 792.2 592 c 1
 798.524 637 l 2
 814.125 748 755.854 803 607.854 803 c 0xae
 512.854 803 379.503 708 379.503 708 c 1
 198.503 708 l 1
 242.633 1022 l 1x36
 411.535 1064 615.79 1091 741.33 1091 c 0
 1038.33 1091 1341.04 1032 1301.41 750 c 2
 1238.87 305 l 1
 1334.87 305 l 1
 1292 0 l 1
 760 0 l 1x6e
 725.725 119 l 1
 652.559 44 508.707 -18 372.471 -18 c 0
 191.314 -18 46.6162 104 75.2861 308 c 0
 106.346 529 312.72 630 509.541 630 c 0xa6
633.481 224 m 0
 677.481 224 742.168 236 745.541 260 c 2
 769.011 427 l 1
 744.714 432 708.557 438 672.557 438 c 0
 599.557 438 555.687 382 547.957 327 c 0
 540.648 275 566.481 224 633.481 224 c 0
EndSplineSet
Substitution2: "'smcp' Lowercase to Small Capitals in Latin lookup 0 subtable" a.sc
EndChar

StartChar: b
Encoding: 66 98 67
Width: 1438
Flags: HW
HStem: -18 312<757.999 1097.5> 0 21G<174 632.843> 779 313<782.881 1111> 1222 273<31 168.846> 1540 20G<463.692 656>
VStem: 174 482<318.072 744.454 965 1222> 942 472<345.83 725.75>
LayerCount: 2
Fore
SplineSet
241.108 1495 m 1x7e
 875.244 1560 l 1
 791.622 965 l 1
 908.568 1050 1016.47 1092 1115.47 1092 c 0
 1413.47 1092 1531.63 837 1489.61 538 c 0
 1446.04 228 1251.47 -18 938.471 -18 c 0xbe
 805.471 -18 726.341 38 679.335 102 c 1
 625 0 l 1
 174 0 l 1
 345.741 1222 l 1
 202.741 1222 l 1
 241.108 1495 l 1x7e
1013.54 509 m 0
 1032.79 646 1027.48 779 905.481 779 c 0
 837.481 779 761.206 713 761.206 713 c 1
 709.346 344 l 1
 733.113 321 777.319 294 837.319 294 c 0
 937.319 294 996.67 389 1013.54 509 c 0
EndSplineSet
Substitution2: "'smcp' Lowercase to Small Capitals in Latin lookup 0 subtable" b.sc
EndChar

StartChar: c
Encoding: 67 99 68
Width: 1067
Flags: HW
HStem: -18 313<558.991 734.969> 778 314<389 724.537> 1052 20G<835.351 1021>
VStem: 30 471<349.301 713.565> 779 242<339.012 425 628 744.821>
LayerCount: 2
Fore
SplineSet
765.341 778 m 0xd8
 652.341 778 592.211 649 573.098 513 c 0
 557.076 399 583.46 295 697.46 295 c 0
 779.46 295 842.729 425 842.729 425 c 1
 1082.73 425 l 1
 1040.43 124 l 1
 1040.43 124 829.471 -18 577.471 -18 c 0
 235.471 -18 58.1084 200 106.735 546 c 0
 150.865 860 384.471 1092 700.471 1092 c 0xd8
 791.471 1092 872.974 1060 944.838 995 c 1
 996.66 1072 l 1
 1171.66 1072 l 1xb8
 1109.26 628 l 1
 867.26 628 l 1
 878.362 707 840.341 778 765.341 778 c 0xd8
EndSplineSet
Substitution2: "'smcp' Lowercase to Small Capitals in Latin lookup 0 subtable" c.sc
EndChar

StartChar: d
Encoding: 68 100 69
Width: 1419
Flags: HW
HStem: -19 313<366.618 663.006> 0 21G<783 1387> 779 311<336.5 674.337> 1222 273<629 770.375> 1540 20G<1072.77 1270>
VStem: 25 471<354.485 720.696> 783 487<330.219 748.977 960 1222>
LayerCount: 2
Fore
SplineSet
485.33 -19 m 0xbe
 181.33 -19 59.5732 246 102.298 550 c 0
 142.352 835 346.189 1090 633.189 1090 c 0
 777.189 1090 850.162 1040 917.919 960 c 1
 954.741 1222 l 1
 800.741 1222 l 1
 839.108 1495 l 1
 1489.24 1560 l 1
 1312.87 305 l 1
 1429.87 305 l 1
 1387 0 l 1
 783 0 l 1x7e
 800.989 128 l 1
 728.605 47 617.33 -19 485.33 -19 c 0xbe
574.422 558 m 0
 555.87 426 567.319 294 689.319 294 c 0xbe
 757.319 294 835 370 835 370 c 1
 882.644 709 l 1
 860 740 817.481 779 757.481 779 c 0
 657.481 779 592.271 685 574.422 558 c 0
EndSplineSet
Substitution2: "'smcp' Lowercase to Small Capitals in Latin lookup 0 subtable" d.sc
EndChar

StartChar: e
Encoding: 69 101 70
Width: 1176
Flags: HW
HStem: -17 240<576.734 787.429> 473 176<503 718> 836 256<536.083 693.744>
VStem: 30 473<310.797 473 649 770.953> 718 427<649 801.255>
LayerCount: 2
Fore
SplineSet
757.471 1092 m 0
 1083.47 1092 1270.22 891 1225.95 576 c 0
 1219.63 531 1195.48 473 1195.48 473 c 1
 567.476 473 l 1
 549.064 342 591.341 223 709.341 223 c 0
 800.341 223 854.152 271.467 869.876 362 c 5
 1173.88 362 l 5
 1140.99 128 l 1
 977.266 31 836.785 -17 612.61 -17 c 0
 271.704 -17 58.249 201 106.173 542 c 0
 153.816 881 407.471 1092 757.471 1092 c 0
598.287 678 m 2
 594.211 649 l 1
 809.211 649 l 1
 812.162 670 l 2
 824.53 758 817.492 836 728.492 836 c 0
 653.492 836 608.968 754 598.287 678 c 2
EndSplineSet
Substitution2: "'smcp' Lowercase to Small Capitals in Latin lookup 0 subtable" e.sc
EndChar

StartChar: f
Encoding: 70 102 71
Width: 922
Flags: HW
HStem: 0 305<46 194 681 857> 768 304<28 194 681 887> 1225 345<478.53 877.388>
VStem: 194 487<305 768 1072 1215.86>
LayerCount: 2
Fore
SplineSet
1100.04 1523 m 1
 1056.34 1212 l 1
 1006.6 1221 966.162 1225 932.162 1225 c 0
 862.162 1225 837.838 1180 827.579 1107 c 0
 826.033 1096 824.347 1084 823.66 1072 c 1
 1037.66 1072 l 1
 994.936 768 l 1
 788.936 768 l 1
 723.865 305 l 1
 899.865 305 l 1
 857 0 l 1
 46 0 l 1
 88.8652 305 l 1
 236.865 305 l 1
 301.936 768 l 1
 135.936 768 l 1
 178.66 1072 l 1
 344.66 1072 l 1
 358.011 1167 l 2
 395.816 1436 555.708 1570 842.649 1570 c 4
 929.605 1570 1100.04 1523 1100.04 1523 c 1
EndSplineSet
Substitution2: "'smcp' Lowercase to Small Capitals in Latin lookup 0 subtable" f.sc
EndChar

StartChar: g
Encoding: 71 103 72
Width: 1407
Flags: HW
HStem: -389 302<226.888 717.003> -39 20G<152 214> 38 266<351.5 718.672> 779 311<388.704 728.618> 1052 20G<858.2 1377>
VStem: 31 471<354.562 729.473> 783 487<-26.0426 117 324.969 764.986>
LayerCount: 2
Fore
SplineSet
105.902 -328 m 1xee
 149.33 -19 l 1
 267.006 -64 384.773 -87 503.773 -87 c 0
 673.773 -87 777.552 -53 801.443 117 c 1
 726.26 73 616.341 38 503.341 38 c 0
 210.341 38 66.8379 255 108.017 548 c 0
 148.492 836 380.189 1090 663.189 1090 c 0xf6
 764.189 1090 867.833 1059 974.119 997 c 1
 1017.66 1072 l 1
 1527.66 1072 l 1
 1484.94 768 l 1
 1377.94 768 l 1
 1288.97 135 l 2
 1239.92 -214 975.33 -389 484.33 -389 c 0
 350.33 -389 105.902 -328 105.902 -328 c 1xee
689.725 304 m 0
 760.725 304 831.908 348 831.908 348 c 1
 887.703 745 l 1
 859.654 766 802.481 779 748.481 779 c 0
 639.481 779 593.773 653 576.768 532 c 0
 560.746 418 577.725 304 689.725 304 c 0
EndSplineSet
Substitution2: "'smcp' Lowercase to Small Capitals in Latin lookup 0 subtable" g.sc
EndChar

StartChar: h
Encoding: 72 104 73
Width: 1426
Flags: HW
HStem: 0 305<40 139 626 719 1297 1403> 779 311<693.5 1060> 1540 20G<444.154 626>
VStem: 139 487<305 765.134 916 1222> 810 487<305 767.49>
LayerCount: 2
Fore
SplineSet
1095.19 1090 m 0
 1331.19 1090 1429.67 944 1395.66 702 c 2
 1339.87 305 l 1
 1445.87 305 l 1
 1403 0 l 1
 810 0 l 1
 901.914 654 l 2
 913.578 737 891.481 779 836.481 779 c 0
 769.481 779 730 740 718.897 661 c 2
 668.865 305 l 1
 761.865 305 l 1
 719 0 l 1
 40 0 l 1
 82.8652 305 l 1
 181.865 305 l 1
 310.741 1222 l 1
 206.741 1222 l 1
 245.108 1495 l 1
 845.244 1560 l 1
 754.735 916 l 1
 816.104 1004 929.189 1090 1095.19 1090 c 0
EndSplineSet
Substitution2: "'smcp' Lowercase to Small Capitals in Latin lookup 0 subtable" h.sc
EndChar

StartChar: i
Encoding: 73 105 74
Width: 762
Flags: HW
HStem: 0 305<40 142 629 733> 1052 20G<33 629> 1155 475<175.798 513.902>
VStem: 65 564<1262.91 1530.02> 142 487<305 768>
LayerCount: 2
Fore
SplineSet
779.66 1072 m 1xe8
 671.865 305 l 1
 775.865 305 l 1
 733 0 l 1
 40 0 l 1
 82.8652 305 l 1
 184.865 305 l 1
 249.936 768 l 1
 140.936 768 l 1
 183.66 1072 l 1
 779.66 1072 l 1xe8
825.055 1395 m 0xf0
 804.007 1245.24 662.773 1155 505.324 1155 c 0
 349.765 1155 240.142 1246.2 261.055 1395 c 0
 281.948 1543.67 414.515 1630 572.082 1630 c 0
 732.521 1630 846.219 1545.59 825.055 1395 c 0xf0
EndSplineSet
Substitution2: "'smcp' Lowercase to Small Capitals in Latin lookup 0 subtable" i.sc
EndChar

StartChar: j
Encoding: 74 106 75
Width: 692
Flags: HW
LayerCount: 2
Fore
SplineSet
167.735 -9 m 1
 157.865 -65 86.8809 -72 33.8809 -72 c 2
 21.8809 -72 l 1
 -23.9355 -398 l 1
 393.064 -398 618.194 -269 674.13 129 c 2
 806.66 1072 l 1
 189.66 1072 l 1
 146.936 768 l 1
 276.936 768 l 1
 167.735 -9 l 1
853.649 1385 m 0
 831.725 1229 689.514 1135 531.514 1135 c 0
 376.514 1135 267.865 1230 289.649 1385 c 0
 311.433 1540 444.082 1630 601.082 1630 c 0
 762.082 1630 875.714 1542 853.649 1385 c 0
EndSplineSet
Substitution2: "'smcp' Lowercase to Small Capitals in Latin lookup 0 subtable" j.sc
EndChar

StartChar: k
Encoding: 75 107 76
Width: 1407
Flags: HW
HStem: 0 305<36 139 1229 1384> 768 304<732 827 1195 1366> 1540 20G<444.154 626>
VStem: 36 590<0 305 1222 1495> 139 487<305 438 587 1222>
LayerCount: 2
Fore
SplineSet
687.557 438 m 1xe8
 626 0 l 1
 36 0 l 1
 78.8652 305 l 1xf0
 181.865 305 l 1
 310.741 1222 l 1
 206.741 1222 l 1
 245.108 1495 l 1
 845.244 1560 l 1
 708.497 587 l 1
 934.936 768 l 1
 839.936 768 l 1
 882.66 1072 l 1
 1516.66 1072 l 1
 1473.94 768 l 1
 1302.94 768 l 1
 1303.08 769 1109.85 618 1108.85 618 c 2
 1271.87 305 l 1
 1426.87 305 l 1
 1384 0 l 1
 911 0 l 1
 687.557 438 l 1xe8
EndSplineSet
Substitution2: "'smcp' Lowercase to Small Capitals in Latin lookup 0 subtable" k.sc
EndChar

StartChar: l
Encoding: 76 108 77
Width: 774
Flags: HW
HStem: 0 304<43 158 645 743> 1222 273<33 158> 1540 20G<456.692 645>
VStem: 158 487<304 1222>
LayerCount: 2
Fore
SplineSet
687.725 304 m 5
 785.725 304 l 5
 743 0 l 5
 43 0 l 5
 85.7246 304 l 5
 200.725 304 l 5
 329.741 1222 l 5
 204.741 1222 l 5
 243.108 1495 l 5
 864.244 1560 l 5
 687.725 304 l 5
EndSplineSet
Substitution2: "'smcp' Lowercase to Small Capitals in Latin lookup 0 subtable" l.sc
EndChar

StartChar: m
Encoding: 77 109 78
Width: 2075
Flags: HW
HStem: 0 305<35 149 591 671 1248 1333 1923 2042> 779 313<699 943.809 1354.5 1623.07>
VStem: 149 442<305 751.235> 811 437<305 750.049> 1468 455<305 760.573>
LayerCount: 2
Fore
SplineSet
180.038 1032 m 1
 744.471 1092 l 1
 717.768 902 l 1
 804.963 1003 941.471 1092 1109.47 1092 c 0
 1244.47 1092 1316.98 996 1349.22 891 c 1
 1458.05 1025 1583.47 1092 1726.47 1092 c 0
 1951.47 1092 2057.64 958 2025.45 729 c 2
 1965.87 305 l 1
 2084.87 305 l 1
 2042 0 l 1
 1468 0 l 1
 1562.3 671 l 1
 1564.74 731 1541.48 779 1477.48 779 c 0
 1388.48 779 1346.66 702 1334.43 615 c 2
 1290.87 305 l 1
 1375.87 305 l 1
 1333 0 l 1
 811 0 l 1
 905.725 674 l 2
 915.141 741 883.481 779 808.481 779 c 0
 719.481 779 685.303 671 672.795 582 c 2
 633.725 304 l 1
 713.725 304 l 1
 671 0 l 1
 35 0 l 1
 77.8652 305 l 1
 191.865 305 l 1
 256.795 767 l 1
 142.795 767 l 1
 180.038 1032 l 1
EndSplineSet
Substitution2: "'smcp' Lowercase to Small Capitals in Latin lookup 0 subtable" m.sc
EndChar

StartChar: n
Encoding: 78 110 79
Width: 1470
Flags: HW
HStem: 0 305<35 151 638 726 1319 1439> 768 264<35 151> 1072 20G<437 638 912.5 1106>
VStem: 151 487<305 759.594> 832 487<305 753.706>
LayerCount: 2
Fore
SplineSet
1149.47 1092 m 0
 1369.47 1092 1453.22 955 1414.57 680 c 2
 1361.87 305 l 1
 1481.87 305 l 1
 1439 0 l 1
 832 0 l 1
 926.021 669 l 2
 934.032 726 905.481 779 851.481 779 c 0
 789.481 779 740.313 728 731.601 666 c 2
 680.865 305 l 1
 768.865 305 l 1
 726 0 l 1
 35 0 l 1
 77.8652 305 l 1
 193.865 305 l 1
 258.936 768 l 1
 142.936 768 l 1
 180.038 1032 l 1
 791.471 1092 l 1
 766.735 916 l 1
 849.492 1021 982.471 1092 1149.47 1092 c 0
EndSplineSet
Substitution2: "'smcp' Lowercase to Small Capitals in Latin lookup 0 subtable" n.sc
EndChar

StartChar: o
Encoding: 79 111 80
Width: 1262
Flags: HW
HStem: -18 312<559.924 701.854> 779 312<557.84 704.16>
VStem: 30 471<356.805 729.299> 761 471<356.805 729.299>
LayerCount: 2
Fore
SplineSet
784.33 1091 m 0
 1144.33 1091 1358.77 902 1308.88 547 c 0
 1258.28 187 989.471 -18 628.471 -18 c 0
 267.471 -18 56.2812 187 106.876 547 c 0
 156.768 902 424.33 1091 784.33 1091 c 0
672.319 294 m 0
 756.319 294 820.309 422 837.735 546 c 0
 854.319 664 829.481 779 740.481 779 c 0
 651.481 779 594.319 664 577.735 546 c 0
 560.309 422 587.319 294 672.319 294 c 0
EndSplineSet
Substitution2: "'smcp' Lowercase to Small Capitals in Latin lookup 0 subtable" o.sc
EndChar

StartChar: p
Encoding: 80 112 81
Width: 1431
Flags: HW
HStem: -397 303<35 152 639 750> -17 311<733.5 1101.5> 768 262<35 152> 779 314<739.54 1064.33> 1072 20G<444.161 639>
VStem: 152 487<-94 119 337.506 736.401> 934 471<353.314 718.812>
LayerCount: 2
Fore
SplineSet
1106.61 1093 m 0
 1402.61 1093 1522.91 839 1481.03 541 c 0
 1439.01 242 1249.61 -17 948.61 -17 c 0
 802.61 -17 728.448 53 655.725 119 c 1
 625.508 -96 l 1
 736.508 -96 l 1
 694.205 -397 l 1
 -20.7949 -397 l 1
 21.7891 -94 l 1
 138.789 -94 l 1
 259.936 768 l 1
 142.936 768 l 1
 179.757 1030 l 1
 792.471 1092 l 1
 768.579 922 l 1
 836.963 1003 948.611 1093 1106.61 1093 c 0
1009.19 535 m 0
 1032.24 699 989.481 779 880.481 779 c 0
 810.481 779 735.271 685 735.271 685 c 1
 693.811 390 l 1
 693.811 390 741.319 294 808.319 294 c 0
 934.319 294 990.919 405 1009.19 535 c 0
EndSplineSet
Substitution2: "'smcp' Lowercase to Small Capitals in Latin lookup 0 subtable" p.sc
EndChar

StartChar: q
Encoding: 81 113 82
Width: 1411
Flags: HW
LayerCount: 2
Fore
SplineSet
643.471 1092 m 0
 777.471 1092 840.271 1055 910.433 985 c 1
 995.66 1072 l 1
 1503.66 1072 l 1
 1460.94 768 l 1
 1366.94 768 l 1
 1245.79 -94 l 1
 1363.79 -94 l 1
 1321.06 -398 l 1
 605.064 -398 l 1
 647.508 -96 l 1
 758.508 -96 l 1
 789.989 128 l 1
 711.027 50 610.61 -17 469.61 -17 c 0
 160.61 -17 62.1191 257 106.249 571 c 0
 146.725 859 356.471 1092 643.471 1092 c 0
689.238 329 m 0
 753.238 329 825.968 384 825.968 384 c 1
 871.925 711 l 1
 871.925 711 812.936 768 747.936 768 c 0
 652.936 768 594.957 697 574.859 554 c 0
 558.838 440 576.238 329 689.238 329 c 0
EndSplineSet
Substitution2: "'smcp' Lowercase to Small Capitals in Latin lookup 0 subtable" q.sc
EndChar

StartChar: r
Encoding: 82 114 83
Width: 981
Flags: HW
HStem: 0 305<35 151 619 756> 768 264<34 151> 1072 20G<436 637 888.5 936>
VStem: 151 468<305 632.071>
LayerCount: 2
Fore
SplineSet
179.038 1032 m 1
 790.471 1092 l 1
 765.876 917 l 1
 845.195 1026 994.33 1091 1089.33 1091 c 1
 1036.49 715 l 1
 970.768 717 l 1
 814.768 717 707.119 627 688.708 496 c 2
 661.865 305 l 1
 798.865 305 l 1
 756 0 l 1
 35 0 l 1
 77.8652 305 l 1
 193.865 305 l 1
 258.936 768 l 1
 141.936 768 l 1
 179.038 1032 l 1
EndSplineSet
Substitution2: "'smcp' Lowercase to Small Capitals in Latin lookup 0 subtable" r.sc
EndChar

StartChar: s
Encoding: 83 115 84
Width: 1120
Flags: HW
HStem: -19.6602 262.716<399.247 766.37> 0 21G<67 266.759> 741 331<851 1019> 847.318 243.682<382.877 736.252>
VStem: 67 228<278.038 397> 67 197<0 103.936> 818 201<741 824.424>
LayerCount: 2
Back
SplineSet
579 830 m 4x13
 579 766 656 741 719 724 c 4
 919 672 1050 570 1050 355 c 4
 1050 119 884 -18 599 -18 c 4x93
 456 -18 344 42 280 116 c 5
 264 0 l 5
 67 0 l 5x45
 67 397 l 5
 295 397 l 5x49
 310 314 345 229 445 229 c 4
 497 229 523 255 523 307 c 4
 523 361 479 390 434 406 c 4
 242 476 74 536 74 756 c 4
 74 996 257 1091 510 1091 c 4x93
 708 1091 814 982 814 982 c 5
 851 1072 l 5
 1019 1072 l 5
 1019 741 l 5
 818 741 l 5x23
 782 830 771 897 671 897 c 4
 624 897 579 877 579 830 c 4x13
EndSplineSet
Fore
SplineSet
465.747 243.056 m 0x4a
 523.165 243.056 562.113 267.264 568.972 316.06 c 0
 589.231 460.216 135.024 438.683 179.344 754.029 c 0
 213.324 995.812 409.084 1091 663.33 1091 c 0x5a
 911.33 1091 952.011 982 952.011 982 c 1
 1001.66 1072 l 1
 1169.66 1072 l 1
 1123.14 741 l 1
 922.141 741 l 1x2a
 932.896 817.528 868.221 847.318 804.424 847.318 c 0
 753.14 847.318 719.424 822.685 715.088 791.833 c 0
 710.449 758.824 739.442 718.695 816.535 694 c 1
 1006.92 637.914 1126.48 544.173 1097.08 335 c 0
 1068.98 135.064 895.062 -19.6602 632.152 -19.6602 c 0x9a
 472.543 -19.6602 349.375 28.6348 296.303 116 c 1
 264 0 l 1
 67 0 l 1x46
 122.795 397 l 1
 350.795 397 l 1
 335.611 285.028 402.512 243.056 465.747 243.056 c 0x4a
EndSplineSet
Substitution2: "'smcp' Lowercase to Small Capitals in Latin lookup 0 subtable" s.sc
EndChar

StartChar: t
Encoding: 84 116 85
Width: 870
Flags: HW
HStem: -18 352<403.5 785.684> 768 304<26 148 635 808>
VStem: 148 487<357.361 768 1072 1301>
LayerCount: 2
Fore
SplineSet
779.94 334 m 4
 809.94 334 846.644 339 889.908 348 c 5
 847.887 49 l 5
 747.844 6 621.471 -18 531.471 -18 c 4
 270.471 -18 164.162 115 201.687 382 c 6
 255.936 768 l 5
 133.936 768 l 5
 176.66 1072 l 5
 298.66 1072 l 5
 330.844 1301 l 5
 832.601 1406 l 5
 785.66 1072 l 5
 958.66 1072 l 5
 915.936 768 l 5
 742.936 768 l 5
 696.557 438 l 6
 687.984 377 712.94 334 779.94 334 c 4
EndSplineSet
Substitution2: "'smcp' Lowercase to Small Capitals in Latin lookup 0 subtable" t.sc
Substitution2: "alt endings-t" t.fin
EndChar

StartChar: u
Encoding: 85 117 86
Width: 1466
Flags: HW
HStem: 0 21G<363.5 554 828 1434> 768 264<31 147 728 827> 1072 20G<433 634 1118.67 1314>
VStem: 147 487<336.144 768> 827 487<336.88 768>
LayerCount: 2
Fore
SplineSet
873.038 1032 m 1
 1467.47 1092 l 1
 1356.87 305 l 1
 1476.87 305 l 1
 1434 0 l 1
 828 0 l 1
 849.925 156 l 1
 767.168 51 635.471 -18 467.471 -18 c 0
 254.471 -18 163.303 116 201.108 385 c 2
 254.936 768 l 1
 138.936 768 l 1
 176.038 1032 l 1
 787.471 1092 l 1
 695.557 438 l 2
 687.124 378 712.692 318 768.692 318 c 0
 831.692 318 879.281 372 888.275 436 c 2
 934.936 768 l 1
 835.936 768 l 1
 873.038 1032 l 1
EndSplineSet
Substitution2: "'smcp' Lowercase to Small Capitals in Latin lookup 0 subtable" u.sc
EndChar

StartChar: v
Encoding: 86 118 87
Width: 1405
Flags: HW
HStem: 0 21G<459.37 947.682> 768 304<27 174 640 733 827 930 1235 1378>
LayerCount: 2
Fore
SplineSet
281.936 768 m 1
 134.936 768 l 1
 177.66 1072 l 1
 883.66 1072 l 1
 840.936 768 l 1
 747.936 768 l 1
 842.379 330 l 1
 1037.94 768 l 1
 934.936 768 l 1
 977.66 1072 l 1
 1528.66 1072 l 1
 1485.94 768 l 1
 1342.94 768 l 1
 940 0 l 5
 467 0 l 5
 281.936 768 l 1
EndSplineSet
Substitution2: "'smcp' Lowercase to Small Capitals in Latin lookup 0 subtable" v.sc
EndChar

StartChar: w
Encoding: 87 119 88
Width: 1956
Flags: HW
LayerCount: 2
Fore
SplineSet
1594.94 768 m 1
 1476.94 768 l 1
 1519.66 1072 l 1
 2076.66 1072 l 1
 2033.94 768 l 1
 1891.94 768 l 1
 1558 0 l 1
 1083 0 l 1
 1013.43 430 l 1
 802 0 l 1
 358 0 l 1
 207.936 768 l 1
 138.936 768 l 1
 181.66 1072 l 1
 845.66 1072 l 1
 802.936 768 l 1
 688.936 768 l 1
 749.092 392 l 1
 1054.66 1072 l 1
 1320.66 1072 l 1
 1441.26 379 l 1
 1594.94 768 l 1
EndSplineSet
Substitution2: "'smcp' Lowercase to Small Capitals in Latin lookup 0 subtable" w.sc
EndChar

StartChar: x
Encoding: 88 120 89
Width: 1236
Flags: HW
LayerCount: 2
Fore
SplineSet
1201 0 m 1
 728 0 l 1
 577.93 277 l 1
 332 0 l 1
 35 0 l 1
 77.8652 305 l 1
 228.865 305 l 1
 437.957 512 l 1
 291.936 768 l 1
 162.936 768 l 1
 205.66 1072 l 1
 699.66 1072 l 1
 826.384 821 l 1
 1046.66 1072 l 1
 1320.66 1072 l 1
 1277.94 768 l 1
 1147.94 768 l 1
 958.514 580 l 1
 1112.87 305 l 1
 1243.87 305 l 1
 1201 0 l 1
EndSplineSet
Substitution2: "'smcp' Lowercase to Small Capitals in Latin lookup 0 subtable" x.sc
EndChar

StartChar: y
Encoding: 89 121 90
Width: 1475
Flags: HW
HStem: -377 315<315 567> 768 304<28 156 680 778 888 998 1339 1448>
LayerCount: 2
Fore
SplineSet
262.016 -377 m 1
 306.286 -62 l 1
 558.286 -62 l 1
 626.356 31 l 1
 263.936 768 l 1
 135.936 768 l 1
 178.66 1072 l 1
 928.66 1072 l 1
 885.936 768 l 1
 787.936 768 l 1
 909.806 454 l 1
 1105.94 768 l 1
 995.936 768 l 1
 1038.66 1072 l 1
 1598.66 1072 l 1
 1555.94 768 l 1
 1446.94 768 l 1
 711.438 -374 l 1
 262.016 -377 l 1
EndSplineSet
Substitution2: "'smcp' Lowercase to Small Capitals in Latin lookup 0 subtable" y.sc
EndChar

StartChar: z
Encoding: 90 122 91
Width: 1155
Flags: HW
LayerCount: 2
Fore
SplineSet
432.481 779 m 1
 348.384 636 l 1
 151.384 636 l 1
 212.66 1072 l 1
 1234.66 1072 l 1
 1195.73 795 l 1
 656.319 294 l 1
 943.319 294 l 1
 1000.38 451 l 1
 1183.38 451 l 1
 1120 0 l 1
 35 0 l 1
 74.7734 283 l 1
 638.481 779 l 1
 432.481 779 l 1
EndSplineSet
Substitution2: "'smcp' Lowercase to Small Capitals in Latin lookup 0 subtable" z.sc
EndChar

StartChar: braceleft
Encoding: 91 123 92
Width: 858
Flags: HW
LayerCount: 2
Fore
SplineSet
819.471 -18 m 1
 435.471 -18 202.719 183 255.562 559 c 0
 271.162 670 223.908 718 113.471 722 c 1
 147.2 962 l 1
 257.763 966 318.509 1014 334.108 1125 c 0
 386.952 1501 677.2 1702 1061.2 1702 c 1
 1014.68 1371 l 1
 906.682 1371 841.157 1289 818.108 1125 c 0
 800.26 998 702.908 903 527.195 841 c 1
 685.622 780 756.411 686 738.562 559 c 0
 715.514 395 757.989 313 865.989 313 c 1
 819.471 -18 l 1
147.2 962 m 1
 147.622 965 l 1
 146.2 962 l 1
 147.2 962 l 1
EndSplineSet
EndChar

StartChar: bar
Encoding: 92 124 93
Width: 467
Flags: HW
LayerCount: 2
Fore
SplineSet
659.098 1623 m 1
 431 0 l 1
 36 0 l 1
 264.098 1623 l 1
 659.098 1623 l 1
EndSplineSet
EndChar

StartChar: braceright
Encoding: 93 125 94
Width: 858
Flags: HW
LayerCount: 2
Fore
SplineSet
275.481 1704 m 1
 659.481 1704 892.373 1504 839.53 1128 c 0
 823.93 1017 871.184 969 981.622 965 c 1
 947.752 724 l 1
 837.189 720 776.443 672 760.844 561 c 0
 708 185 417.751 -16 33.751 -16 c 1
 80.2705 315 l 1
 188.271 315 253.795 397 276.844 561 c 0
 294.692 688 391.903 782 567.476 843 c 1
 409.189 905 338.541 1000 356.39 1127 c 0
 379.438 1291 336.963 1373 228.963 1373 c 1
 275.481 1704 l 1
947.752 724 m 1
 947.471 722 l 1
 948.752 724 l 1
 947.752 724 l 1
EndSplineSet
EndChar

StartChar: asciitilde
Encoding: 94 126 95
Width: 1270
Flags: HW
LayerCount: 2
Fore
SplineSet
1036.58 922 m 0
 1114.58 922 1273.84 1116 1273.84 1116 c 1
 1390.9 1031 l 1
 1282.07 897 1200.4 629 983.4 629 c 1
 981.682 631 l 1
 755.682 631 695.07 833 484.07 833 c 0
 405.07 833 244.103 634 244.103 634 c 1
 125.189 720 l 1
 233.303 856 317.546 1121 535.546 1121 c 0
 761.546 1121 823.579 922 1036.58 922 c 0
EndSplineSet
EndChar

StartChar: exclamdown
Encoding: 95 161 96
Width: 689
Flags: HW
LayerCount: 2
Fore
SplineSet
706.66 1072 m 1
 285.94 1074 l 1
 95.0215 299 l 1
 53 0 l 1
 640 0 l 1
 682.021 299 l 1
 706.66 1072 l 1
828.882 1408 m 0
 806.816 1251 665.746 1158 507.746 1158 c 1
 505.605 1157 l 1
 350.605 1157 242.098 1253 263.882 1408 c 0
 285.524 1562 419.314 1653 576.314 1653 c 0
 737.314 1653 850.946 1565 828.882 1408 c 0
EndSplineSet
EndChar

StartChar: cent
Encoding: 96 162 97
Width: 1151
Flags: HW
VStem: 45 475<428.988 791.988> 610 112<-221 62 388 838 1169 1476> 797 242<404.577 505 707 824.281>
LayerCount: 2
Fore
SplineSet
132.838 625 m 4
 176.968 939 412.714 1172 728.714 1172 c 4
 743.714 1172 759.573 1171 774.292 1169 c 5
 817.438 1476 l 5
 929.438 1476 l 5
 881.654 1136 l 5
 912.546 1121 944.595 1100 973.94 1074 c 5
 1025.76 1151 l 5
 1200.76 1151 l 5
 1138.36 707 l 5
 896.362 707 l 5
 905.638 773 881.806 824 840.897 846 c 5
 776.108 385 l 5
 817.217 400 862.946 455 869.973 505 c 5
 1109.97 505 l 5
 1067.67 204 l 5
 988.973 135 731.979 71 731.979 71 c 5
 690.94 -221 l 5
 578.94 -221 l 5
 618.714 62 l 5
 604.714 62 l 6
 262.714 62 84.2109 279 132.838 625 c 4
603.2 592 m 4
 590.411 501 606.605 417 664.53 388 c 5
 727.773 838 l 5
 661.292 799 620.768 717 603.2 592 c 4
EndSplineSet
EndChar

StartChar: sterling
Encoding: 97 163 98
Width: 1235
Flags: HW
LayerCount: 2
Fore
SplineSet
1129.64 1264 m 0
 1000.64 1264 896.849 1237 879.984 1117 c 2
 862.557 993 l 1
 1115.56 993 l 1
 1082.81 760 l 1
 829.811 760 l 1
 811.26 628 792.849 497 774.298 365 c 1
 803.892 355 l 1
 863.784 340 977.379 330 1064.38 330 c 0
 1115.38 330 1173.8 333 1240.64 339 c 1
 1196.94 28 l 1
 1101.58 -3 1008.33 -19 918.33 -19 c 0
 749.33 -19 672.341 38 688.362 152 c 1
 603.2 37 481.189 -20 322.189 -20 c 0
 247.189 -20 45.9355 28 45.9355 28 c 1
 89.6436 339 l 1
 127.379 330 158.816 326 183.816 326 c 0
 283.816 326 304.497 402 321.081 520 c 2
 354.811 760 l 1
 230.811 760 l 1
 263.557 993 l 1
 387.557 993 l 1
 417.633 1207 l 2
 459.232 1503 769.989 1608 1067.99 1608 c 0
 1190.99 1608 1378.52 1562 1378.52 1562 c 1
 1334.82 1251 l 1
 1255.08 1260 1186.64 1264 1129.64 1264 c 0
EndSplineSet
EndChar

StartChar: yen
Encoding: 99 165 99
Width: 1662
Flags: HW
LayerCount: 2
Fore
SplineSet
1270.6 1221 m 0
 1278.61 1278 1238.77 1272 1160.77 1272 c 1
 1209.96 1622 l 1
 1846.96 1622 l 1
 1797.77 1272 l 1
 1723.77 1272 l 2
 1590.77 1272 1550.56 1178 1484.61 1093 c 2
 1361.27 934 l 1
 1672.27 934 l 1
 1647.81 760 l 1
 1233.81 760 l 1
 1215.26 628 l 1
 1629.26 628 l 1
 1604.81 454 l 1
 1190.81 454 l 1
 1178.86 369 l 1
 1335.86 369 l 1
 1283.72 -2 l 1
 414.719 -2 l 1
 466.859 369 l 1
 621.859 369 l 1
 633.806 454 l 1
 211.806 454 l 1
 236.26 628 l 1
 658.26 628 l 1
 664.162 670 l 1
 613.811 760 l 1
 254.811 760 l 1
 282.546 936 l 1
 519.546 936 l 1
 331.049 1274 l 1
 219.049 1274 l 1
 267.957 1622 l 1
 1119.96 1622 l 1
 1071.05 1274 l 1
 980.049 1274 l 1
 994.676 1250 1111.21 1019 1124.56 993 c 1
 1216.72 1108 1265.4 1184 1270.6 1221 c 0
EndSplineSet
EndChar

StartChar: section
Encoding: 101 167 100
Width: 1016
Flags: HW
LayerCount: 2
Fore
SplineSet
504.373 209 m 0
 551.373 209 596.449 238 603.194 286 c 0
 636.784 525 119.687 567 157.633 837 c 1
 148.07 833 l 1
 166.341 963 279.411 1056 387.611 1093 c 1
 288.714 1172 245.801 1258 258.871 1351 c 0
 282.903 1522 471.644 1634 650.644 1634 c 0
 749.644 1634 863.255 1617 904.509 1569 c 1
 938.676 1620 l 1
 1106.68 1620 l 1
 1061.28 1297 l 1
 860.281 1297 l 1
 830.633 1392 l 1
 818.271 1425 784.611 1463 738.611 1463 c 0
 691.611 1463 650.989 1423 643.963 1373 c 0
 616.136 1175 1129.3 1105 1093.74 852 c 0
 1072.66 702 965.778 589 839.719 553 c 1
 937.584 488 979.497 402 964.46 295 c 0
 940.006 121 746.471 -18 564.471 -18 c 0
 432.471 -18 347 0 288.557 68 c 1
 243.141 1 l 1
 73.1406 1 l 1
 126.265 379 l 1
 347.265 379 l 1
 350.319 294 406.373 209 504.373 209 c 0
792.822 817 m 0
 806.595 915 588.433 985 588.433 985 c 1
 588.433 985 476.595 915 470.974 875 c 0
 458.324 785 688.271 685 688.271 685 c 1
 688.271 685 785.654 766 792.822 817 c 0
EndSplineSet
EndChar

StartChar: currency
Encoding: 98 164 101
Width: 1234
Flags: HW
LayerCount: 2
Fore
SplineSet
194.173 1097 m 2
 194.313 1098 l 2
 213.989 1238 268.573 1356 358.925 1451 c 1
 301.481 1519 l 1
 418.957 1622 l 1
 479.838 1550 l 1
 591.676 1620 713.595 1655 846.595 1655 c 0
 983.595 1655 1097.39 1618 1189.14 1545 c 1
 1276.96 1622 l 1
 1365.48 1519 l 1
 1281.08 1445 l 1
 1340.73 1350 1361.43 1234 1342.17 1097 c 0
 1322.22 955 1266.49 836 1175.14 741 c 1
 1244.76 660 l 1
 1127.28 557 l 1
 1053.37 643 l 1
 942.67 574 821.892 540 689.892 540 c 0
 560.892 540 451.53 573 361.665 638 c 1
 269.281 557 l 1
 180.757 660 l 1
 265.157 734 l 1
 197.789 831 173.795 952 194.173 1097 c 2
711.52 701 m 0
 941.52 701 1115.43 864 1148.45 1099 c 0
 1157.31 1162 1154.32 1219 1139.49 1270 c 1
 1136.21 1268 l 1
 1102.34 1397 993.827 1493 821.827 1493 c 0
 591.827 1493 419.06 1331 386.173 1097 c 0
 353.146 862 481.52 701 711.52 701 c 0
EndSplineSet
EndChar

StartChar: quotesingle
Encoding: 7 39 102
Width: 561
Flags: HW
LayerCount: 2
Fore
SplineSet
269.238 1624 m 1
 749.238 1624 l 1
 553.812 945 l 1
 253.812 945 l 1
 269.238 1624 l 1
EndSplineSet
EndChar

StartChar: quotedblleft
Encoding: 347 8220 103
Width: 1282
Flags: HW
LayerCount: 2
Fore
SplineSet
1417.69 1428 m 1
 1418.41 1426 l 1
 1261.41 1426 1218.84 1365 1196.49 1206 c 1
 1385.49 1206 l 1
 1334.05 840 l 1
 824.055 840 l 1
 822.53 943 827.46 1035 838.984 1117 c 0
 890.844 1486 1081.31 1653 1449.31 1653 c 1
 1417.69 1428 l 1
787.411 1426 m 1
 788.13 1424 l 1
 631.13 1424 588.557 1363 566.211 1204 c 1
 755.211 1204 l 1
 703.773 838 l 1
 193.773 838 l 1
 192.249 941 197.179 1033 208.703 1115 c 0
 260.562 1484 451.033 1651 819.033 1651 c 1
 787.411 1426 l 1
EndSplineSet
EndChar

StartChar: guillemotleft
Encoding: 105 171 104
Width: 1314
Flags: HW
LayerCount: 2
Fore
SplineSet
753.021 669 m 1
 1235.8 1073 l 1
 1395.32 849 l 1
 1036.05 534 l 1
 1306.78 219 l 1
 1084.3 -5 l 1
 715.076 399 l 1
 753.021 669 l 1
143.021 669 m 1
 625.801 1073 l 1
 785.319 849 l 1
 426.049 534 l 1
 696.778 219 l 1
 474.297 -5 l 1
 105.076 399 l 1
 143.021 669 l 1
EndSplineSet
EndChar

StartChar: endash
Encoding: 342 8211 107
Width: 783
Flags: HW
LayerCount: 2
Fore
SplineSet
832.492 836 m 1
 790.471 537 l 1
 143.471 537 l 1
 185.492 836 l 1
 832.492 836 l 1
EndSplineSet
EndChar

StartChar: periodcentered
Encoding: 117 183 108
Width: 670
Flags: HW
LayerCount: 2
Fore
SplineSet
722.373 764 m 0
 700.309 607 559.238 514 401.238 514 c 1
 399.098 513 l 1
 244.098 513 135.59 609 157.373 764 c 0
 179.017 918 312.806 1009 469.806 1009 c 0
 630.806 1009 744.438 921 722.373 764 c 0
EndSplineSet
EndChar

StartChar: paragraph
Encoding: 116 182 109
Width: 1461
Flags: HW
LayerCount: 2
Fore
SplineSet
279.979 1181 m 0
 330.573 1541 628.925 1636 1053.92 1636 c 0
 1254.92 1636 1462.1 1623 1635.1 1623 c 1
 1585.21 1268 l 1
 1434.21 1268 l 1
 1307.02 363 l 1
 1463.02 363 l 1
 1412 0 l 1
 1003 0 l 1
 1181.49 1270 l 1
 1056.49 1270 l 1
 878 0 l 1
 421 0 l 1
 472.017 363 l 1
 658.017 363 l 1
 710.719 738 l 1
 418.859 739 244.703 930 279.979 1181 c 0
EndSplineSet
EndChar

StartChar: bullet
Encoding: 350 8226 110
Width: 899
Flags: HW
LayerCount: 2
Fore
SplineSet
465.676 140 m 0
 229.676 140 98.7402 297 132.471 537 c 1
 129.735 546 l 1
 161.919 775 345.876 917 571.876 917 c 0
 804.876 917 953.357 771 920.33 536 c 0
 886.6 296 702.676 140 465.676 140 c 0
EndSplineSet
EndChar

StartChar: quotesinglbase
Encoding: 346 8218 111
Width: 593
Flags: HW
LayerCount: 2
Fore
SplineSet
3.65918 -223 m 1
 2.51855 -224 l 1
 3.51855 -224 l 1
 3.65918 -223 l 1
3.51855 -224 m 1
 161.519 -224 202.373 -161 224.859 -1 c 1
 35.8594 -1 l 1
 87.2979 365 l 1
 597.298 365 l 1
 598.821 262 593.892 170 582.367 88 c 0
 530.508 -281 340.038 -448 -27.9619 -448 c 1
 3.51855 -224 l 1
EndSplineSet
EndChar

StartChar: quotedblbase
Encoding: 349 8222 112
Width: 1235
Flags: HW
LayerCount: 2
Fore
SplineSet
639.659 -223 m 1
 638.519 -224 l 1
 639.519 -224 l 1
 639.659 -223 l 1
3.51855 -224 m 1
 2.37793 -225 l 1
 3.37793 -225 l 1
 3.51855 -224 l 1
639.519 -224 m 1
 797.519 -224 838.373 -161 860.859 -1 c 1
 671.859 -1 l 1
 723.298 365 l 1
 1233.3 365 l 1
 1234.82 262 1229.89 170 1218.37 88 c 0
 1166.51 -281 976.038 -448 608.038 -448 c 1
 639.519 -224 l 1
3.37793 -225 m 1
 161.378 -225 202.232 -162 224.719 -2 c 1
 35.7188 -2 l 1
 87.1572 364 l 1
 597.157 364 l 1
 598.682 261 593.751 169 582.227 87 c 0
 530.367 -282 339.897 -449 -28.1025 -449 c 1
 3.37793 -225 l 1
EndSplineSet
EndChar

StartChar: quotedblright
Encoding: 348 8221 113
Width: 1300
Flags: HW
LayerCount: 2
Fore
SplineSet
860.319 1034 m 1
 859.038 1032 l 1
 860.038 1032 l 1
 860.319 1034 l 1
208.038 1032 m 1
 206.757 1030 l 1
 207.757 1030 l 1
 208.038 1032 l 1
860.038 1032 m 1
 1018.04 1032 1058.89 1095 1081.38 1255 c 1
 892.379 1255 l 1
 943.816 1621 l 1
 1453.82 1621 l 1
 1455.34 1518 1450.41 1426 1439.03 1345 c 0
 1387.17 976 1196.7 809 828.697 809 c 1
 860.038 1032 l 1
207.757 1030 m 1
 365.757 1030 406.611 1093 429.098 1253 c 1
 240.098 1253 l 1
 291.535 1619 l 1
 801.535 1619 l 1
 803.06 1516 798.13 1424 786.746 1343 c 0
 734.887 974 544.416 807 176.416 807 c 1
 207.757 1030 l 1
EndSplineSet
EndChar

StartChar: guillemotright
Encoding: 121 187 114
Width: 1311
Flags: HW
LayerCount: 2
Fore
SplineSet
711.076 399 m 1
 228.297 -5 l 1
 68.7783 219 l 1
 428.049 534 l 1
 157.319 849 l 1
 379.801 1073 l 1
 749.021 669 l 1
 711.076 399 l 1
1321.08 399 m 1
 838.297 -5 l 1
 678.778 219 l 1
 1038.05 534 l 1
 767.319 849 l 1
 989.801 1073 l 1
 1359.02 669 l 1
 1321.08 399 l 1
EndSplineSet
EndChar

StartChar: questiondown
Encoding: 125 191 115
Width: 1288
Flags: HW
LayerCount: 2
Fore
SplineSet
699.784 340 m 0
 629.784 340 612.638 403 622.194 471 c 0
 638.919 590 1068.37 828 1068.37 828 c 1
 1118.84 1180 l 1
 771.838 1180 l 1
 745.838 995 l 1
 479.611 908 154.324 785 106.962 448 c 0
 64.2383 144 330.751 -16 642.751 -16 c 0
 973.751 -16 1263.26 194 1324.55 502 c 1
 852.552 502 l 1
 830.373 394 779.784 340 699.784 340 c 0
948.957 1252 m 0
 787.957 1252 674.324 1340 696.39 1497 c 0
 718.314 1653 861.665 1748 1018.67 1748 c 1
 1018.52 1747 l 1
 1174.53 1747 1282.17 1652 1260.39 1497 c 0
 1238.75 1343 1104.96 1252 948.957 1252 c 0
EndSplineSet
EndChar

StartChar: grave
Encoding: 64 96 116
Width: 756
Flags: HW
LayerCount: 2
Fore
SplineSet
472.044 1708 m 1
 884.627 1271 l 1
 760.812 1130 l 1
 250.801 1443 l 1
 472.044 1708 l 1
EndSplineSet
EndChar

StartChar: acute
Encoding: 114 180 117
Width: 754
Flags: HW
LayerCount: 2
Fore
SplineSet
908.801 1443 m 1
 310.812 1130 l 1
 226.627 1271 l 1
 762.044 1708 l 1
 908.801 1443 l 1
EndSplineSet
EndChar

StartChar: circumflex
Encoding: 331 710 118
Width: 923
Flags: HW
LayerCount: 2
Fore
SplineSet
820.865 1600 m 1
 1042.02 1224 l 1
 873.827 1123 l 1
 653.26 1368 l 1
 363.827 1123 l 1
 224.022 1224 l 1
 550.006 1601 l 1
 820.865 1600 l 1
EndSplineSet
EndChar

StartChar: tilde
Encoding: 337 732 119
Width: 1000
Flags: HW
LayerCount: 2
Fore
SplineSet
515.336 1397 m 0
 653.336 1397 741.044 1523 886.044 1523 c 0
 1052.04 1523 1061.64 1328 1117.01 1231 c 1
 993.605 1157 l 1
 942.616 1214 918.925 1266 862.925 1266 c 0
 738.925 1266 621.06 1146 490.06 1146 c 0
 322.06 1146 311.622 1335 255.535 1434 c 1
 380.076 1509 l 1
 432.784 1450 459.336 1397 515.336 1397 c 0
EndSplineSet
EndChar

StartChar: .notdef
Encoding: 357 -1 120
Width: 885
Flags: HW
HStem: 1183 335<68 816>
LayerCount: 2
Fore
SplineSet
982.26 1183 m 1
 234.26 1183 l 1
 281.341 1518 l 1
 1029.34 1518 l 1
 982.26 1183 l 1
EndSplineSet
EndChar

StartChar: breve
Encoding: 333 728 121
Width: 926
Flags: HW
LayerCount: 2
Fore
SplineSet
1094.82 1621 m 1
 1060.52 1377 889.974 1245 638.974 1245 c 1
 636.692 1243 l 1
 382.692 1243 252.104 1374 286.676 1620 c 1
 538.676 1620 l 1
 525.465 1526 579.189 1460 668.189 1460 c 0
 758.189 1460 829.605 1527 842.816 1621 c 1
 1094.82 1621 l 1
EndSplineSet
EndChar

StartChar: dotaccent
Encoding: 334 729 122
Width: 685
Flags: HW
LayerCount: 2
Fore
SplineSet
820.055 1395 m 0
 797.989 1238 656.919 1145 498.919 1145 c 1
 496.778 1144 l 1
 341.778 1144 233.271 1240 255.055 1395 c 0
 276.697 1549 410.487 1640 567.487 1640 c 0
 728.487 1640 842.119 1552 820.055 1395 c 0
EndSplineSet
EndChar

StartChar: dieresis
Encoding: 102 168 123
Width: 1184
Flags: HW
LayerCount: 2
Fore
SplineSet
244.887 1344 m 0
 263.72 1478 373.79 1571 502.79 1571 c 0
 632.79 1571 715.72 1478 696.605 1342 c 1
 694.465 1341 l 1
 675.492 1206 568.141 1111 439.141 1111 c 0
 308.141 1111 225.633 1207 244.887 1344 c 0
859.746 1343 m 0
 878.579 1477 988.649 1570 1117.65 1570 c 0
 1247.65 1570 1330.58 1477 1311.46 1341 c 1
 1309.32 1340 l 1
 1290.35 1205 1183 1110 1054 1110 c 0
 923 1110 840.492 1206 859.746 1343 c 0
EndSplineSet
EndChar

StartChar: ring
Encoding: 335 730 124
Width: 668
Flags: HW
LayerCount: 2
Fore
SplineSet
364.07 1388 m 0
 351.844 1301 412.271 1240 503.271 1240 c 0
 596.271 1240 675.703 1300 688.07 1388 c 0
 700.438 1476 637.449 1533 544.449 1533 c 0
 452.449 1533 376.298 1475 364.07 1388 c 0
557.503 1633 m 0
 716.503 1633 825.151 1538 804.211 1389 c 0
 783.411 1241 645.936 1138 488.936 1138 c 1
 488.076 1139 l 1
 333.076 1139 231.692 1243 252.352 1390 c 0
 272.871 1536 401.503 1633 557.503 1633 c 0
EndSplineSet
EndChar

StartChar: cedilla
Encoding: 118 184 125
Width: 512
Flags: HW
LayerCount: 2
Fore
SplineSet
208.772 -272 m 0
 218.049 -206 120.275 -119 120.275 -119 c 1
 137 0 l 1
 315.578 -3 l 1
 298.854 -122 l 1
 380.687 -173 416.957 -228 408.665 -287 c 0
 389.551 -423 165.557 -487 12.5566 -487 c 2
 -8.44336 -487 l 1
 7.4375 -374 l 1
 102.578 -373 197.811 -350 208.772 -272 c 0
EndSplineSet
EndChar

StartChar: hungarumlaut
Encoding: 338 733 126
Width: 1011
Flags: HW
LayerCount: 2
Fore
SplineSet
745.217 1695 m 1
 377.53 1128 l 1
 220.963 1188 l 1
 461.941 1814 l 1
 745.217 1695 l 1
1186.43 1604 m 1
 696.671 1129 l 1
 566.584 1228 l 1
 953.271 1795 l 1
 1186.43 1604 l 1
EndSplineSet
EndChar

StartChar: ogonek
Encoding: 336 731 127
Width: 527
Flags: HW
LayerCount: 2
Fore
SplineSet
25.5244 -288 m 0
 39.8594 -186 231 0 231 0 c 1
 411 0 l 1
 411 0 234.552 -238 229.633 -273 c 0
 218.67 -351 307.438 -374 402.297 -375 c 1
 386.416 -488 l 1
 365.416 -488 l 2
 212.416 -488 6.41113 -424 25.5244 -288 c 0
EndSplineSet
EndChar

StartChar: caron
Encoding: 332 711 128
Width: 924
Flags: HW
LayerCount: 2
Fore
SplineSet
488.481 1149 m 1
 268.465 1526 l 1
 436.66 1627 l 1
 657.228 1382 l 1
 946.66 1627 l 1
 1086.46 1526 l 1
 759.622 1150 l 1
 488.481 1149 l 1
EndSplineSet
EndChar

StartChar: emdash
Encoding: 343 8212 129
Width: 1306
Flags: HW
LayerCount: 2
Fore
SplineSet
1355.49 836 m 1
 1313.47 537 l 1
 143.471 537 l 1
 185.492 836 l 1
 1355.49 836 l 1
EndSplineSet
EndChar

StartChar: AE
Encoding: 132 198 130
Width: 2151
Flags: HW
LayerCount: 2
Fore
SplineSet
1944.18 969 m 1
 1908.35 1269 l 1
 1695.35 1269 l 1
 1655.57 986 l 1
 1860.57 986 l 1
 1811.1 634 l 1
 1606.1 634 l 1
 1565.91 348 l 1
 1784.91 348 l 1
 1822.35 465 1908.27 685 1908.27 685 c 1
 2181.27 685 l 1
 2084.72 -2 l 1
 855.719 -2 l 1
 907.562 374 l 1
 1027.56 374 l 1
 1063.88 483 1059.61 538 1014.61 538 c 2
 739.611 538 l 2
 685.611 538 656.703 375 699.703 375 c 2
 783.703 375 l 1
 730.859 -1 l 1
 49.7188 -2 l 1
 99.6113 353 l 1
 256.611 353 324.087 456 386.546 566 c 0
 523.416 807 679.021 1039 826.049 1274 c 1
 614.049 1274 l 1
 734.098 1623 l 1
 2304.1 1623 l 1
 2212.32 970 l 1
 1944.18 969 l 1
1075.08 769 m 1
 1148.3 1290 l 1
 836.076 769 l 1
 1075.08 769 l 1
EndSplineSet
EndChar

StartChar: ordfeminine
Encoding: 104 170 131
Width: 991
Flags: HW
LayerCount: 2
Fore
SplineSet
439.416 807 m 0
 288.416 807 164.925 896 186.006 1046 c 1
 184.725 1044 l 1
 207.914 1209 375.174 1282 540.174 1282 c 0
 612.174 1282 673.908 1273 725.238 1254 c 1
 729.876 1287 l 2
 741.26 1368 695.022 1409 591.022 1409 c 0
 521.022 1409 423.185 1339 423.185 1339 c 1
 293.185 1339 l 1
 325.79 1571 l 1
 377.617 1584 l 1
 448.287 1603 599.238 1624 691.238 1624 c 0
 898.238 1624 1105.34 1582 1076.1 1374 c 2
 1030.01 1046 l 1
 1086.01 1046 l 1
 1054.38 821 l 1
 706.384 821 l 1
 681.752 909 l 1
 631.021 854 532.416 807 439.416 807 c 0
636.217 1140 m 0
 594.217 1140 554.595 1100 548.692 1058 c 1
 546.833 1059 l 1
 540.648 1015 563.151 983 606.151 983 c 0
 641.151 983 688.697 994 691.789 1016 c 2
 707.108 1125 l 1
 690.092 1132 663.217 1140 636.217 1140 c 0
EndSplineSet
EndChar

StartChar: Lslash
Encoding: 247 321 132
Width: 1398
Flags: HW
LayerCount: 2
Fore
SplineSet
1064.03 1160 m 1
 1137.87 981 l 1
 896.741 852 l 1
 827.454 359 l 1
 1018.45 359 l 1
 1154.64 709 l 1
 1440.64 709 l 1
 1341 0 l 1
 68 0 l 1
 117.454 359 l 1
 260.454 359 l 1
 283.503 523 l 1
 199.179 478 l 1
 124.194 656 l 1
 316.671 759 l 1
 388.487 1270 l 1
 241.487 1270 l 1
 290.957 1622 l 1
 1158.96 1622 l 1
 1109.49 1270 l 1
 955.487 1270 l 1
 929.908 1088 l 1
 1064.03 1160 l 1
EndSplineSet
EndChar

StartChar: Oslash
Encoding: 150 216 133
Width: 1715
Flags: HW
LayerCount: 2
Fore
SplineSet
1789.56 808 m 0
 1721.82 326 1332.92 -29 851.924 -29 c 0
 816.924 -29 748.768 -23 748.768 -23 c 1
 686.735 -194 l 1
 530.216 -155 l 1
 593.405 10 l 1
 298.74 112 94.3408 408 150.416 807 c 0
 221.812 1315 586.314 1653 1089.31 1653 c 0
 1121.31 1653 1199.33 1646 1199.33 1646 c 1
 1258.54 1804 l 1
 1407.32 1774 l 1
 1349.11 1616 l 1
 1664.48 1519 1848.87 1230 1789.56 808 c 0
1040.58 1292 m 1
 844.579 1292 795.411 1056 767.021 854 c 0
 745.52 701 717.892 540 751.275 436 c 1
 1069.58 1292 l 1
 1056.72 1293 1046.86 1294 1039.86 1294 c 1
 1040.58 1292 l 1
899.708 311 m 1
 1102.71 311 1146.39 572 1175.9 782 c 0
 1196.56 929 1221.64 1079 1189.56 1178 c 1
 873.989 313 l 1
 878.849 312 887.849 312 899.849 312 c 1
 899.708 311 l 1
EndSplineSet
EndChar

StartChar: OE
Encoding: 261 338 134
Width: 2260
Flags: HW
LayerCount: 2
Fore
SplineSet
146.309 792 m 0
 216.298 1290 597.271 1610 1096.27 1610 c 2
 2411.27 1610 l 1
 2319.5 957 l 1
 2051.36 956 l 1
 2017.8 1258 l 1
 1804.8 1258 l 1
 1766.85 988 l 1
 1971.85 988 l 1
 1922.38 636 l 1
 1717.38 636 l 1
 1677.19 350 l 1
 1896.19 350 l 1
 1933.63 467 2019.55 687 2019.55 687 c 1
 2292.55 687 l 1
 2196 0 l 1
 1755 0 1315 0 874 0 c 0
 377 0 77.584 303 146.309 792 c 0
1040.66 1257 m 2
 831.66 1257 783.038 1032 765.822 817 c 0
 747.903 597 685.189 350 924.189 350 c 2
 1123.19 350 l 1
 1250.66 1257 l 1
 1040.66 1257 l 2
EndSplineSet
EndChar

StartChar: ordmasculine
Encoding: 120 186 135
Width: 993
Flags: HW
LayerCount: 2
Fore
SplineSet
1041.69 688 m 0
 1004.87 426 800.087 271 536.087 271 c 0
 272.087 271 111.87 426 148.692 688 c 0
 185.795 952 385.33 1091 652.33 1091 c 0
 921.33 1091 1078.79 952 1041.69 688 c 0
618.725 859 m 0
 528.725 859 502.919 775 490.271 685 c 0
 472.984 562 498.271 500 565.271 500 c 0
 633.271 500 675.984 562 693.271 685 c 0
 705.919 775 709.725 859 618.725 859 c 0
EndSplineSet
EndChar

StartChar: ae
Encoding: 164 230 136
Width: 1921
Flags: HW
LayerCount: 2
Fore
SplineSet
86.0215 299 m 1
 82.0381 292 l 1
 89.2051 343 108.811 390 139.714 432 c 0
 170.616 474 208.395 508 253.049 534 c 0
 297.703 560 346.514 580 399.481 594 c 0
 452.449 608 506.433 615 561.433 615 c 0
 658.433 615 741.605 602 811.092 577 c 1
 817.416 622 l 2
 833.017 733 770.746 788 629.746 788 c 0
 534.746 788 458.249 756 401.395 693 c 1
 226.395 693 l 1
 270.524 1007 l 1
 339.914 1024 l 2
 386.601 1036 451.287 1048 533.974 1060 c 0
 616.66 1072 693.503 1078 764.503 1078 c 0
 809.503 1078 852.94 1074 894.676 1065 c 0
 936.411 1056 969.006 1046 993.46 1035 c 0
 1017.91 1024 1041.23 1012 1062.26 998 c 0
 1083.29 984 1096.89 974 1103.18 969 c 0
 1109.48 964 1113.92 960 1116.5 957 c 1
 1132.32 970 l 2
 1142.59 979 1158 989 1179.68 1001 c 0
 1201.37 1013 1226.05 1025 1253.74 1037 c 0
 1281.43 1049 1314.83 1059 1355.1 1068 c 0
 1395.36 1077 1436.92 1081 1478.92 1081 c 0
 1593.92 1081 1690.55 1057 1768.67 1008 c 0
 1846.78 959 1900.78 895 1931.54 815 c 0
 1962.3 735 1970.65 645 1956.59 545 c 0
 1953.36 522 1947.71 496 1940.49 466 c 1
 1932.52 452 1927.4 444 1924.12 442 c 0
 1920.84 440 1912.7 439 1899.7 439 c 2
 1297.7 439 l 1
 1288.98 377 1297.54 324 1323.35 280 c 0
 1349.17 236 1389.08 214 1444.08 214 c 0
 1492.08 214 1528.76 226 1553.99 249 c 0
 1579.23 272 1596.29 308 1604.17 357 c 1
 1911.17 357 l 1
 1877.72 119 l 1
 1782.28 66 1691.08 29 1602.98 7 c 0
 1514.89 -15 1417.35 -26 1310.35 -26 c 0
 1184.35 -26 1079.39 17 996.616 104 c 1
 920.448 53 839.529 18 753.859 -1 c 0
 668.189 -20 559.924 -29 429.064 -28 c 0
 359.205 -27 297.032 -14 242.546 11 c 0
 188.06 36 146.4 74 116.427 124 c 0
 86.4541 174 76.6055 232 86.0215 299 c 1
574.567 310 m 1
 575.286 308 l 1
 571.07 278 576.697 254 591.027 235 c 0
 605.356 216 627.092 207 656.092 207 c 0
 677.092 207 697.654 211 717.919 220 c 0
 738.184 229 751.168 236 756.87 241 c 0
 762.573 246 767.135 250 770.557 253 c 1
 791.217 400 l 1
 777.919 405 l 2
 769.341 408 756.902 412 741.465 416 c 0
 726.027 420 711.309 422 696.309 422 c 0
 667.309 422 640.763 411 616.53 388 c 0
 592.298 365 578.644 339 574.567 310 c 1
1321.87 611 m 1
 1536.59 609 l 1
 1540.82 632 1543.63 652 1544.02 669 c 0
 1544.41 686 1543.22 706 1540.31 728 c 0
 1537.41 750 1528.79 767 1514.48 779 c 0
 1500.17 791 1481.01 797 1456.01 797 c 0
 1420.01 797 1390.76 781 1368.27 749 c 0
 1345.77 717 1331.71 681 1325.95 640 c 2
 1321.87 611 l 1
EndSplineSet
EndChar

StartChar: dotlessi
Encoding: 231 305 137
Width: 753
Flags: HW
LayerCount: 2
Fore
SplineSet
668.021 299 m 1
 752.021 299 l 1
 710 0 l 1
 63 0 l 1
 105.021 299 l 1
 187.021 299 l 1
 249.984 747 l 1
 160.984 747 l 1
 206.66 1072 l 1
 776.66 1072 l 1
 668.021 299 l 1
EndSplineSet
EndChar

StartChar: lslash
Encoding: 248 322 138
Width: 892
Flags: HW
LayerCount: 2
Fore
SplineSet
934.044 1153 m 1
 1007.89 974 l 1
 813.271 870 l 1
 733.865 305 l 1
 811.865 305 l 1
 769 0 l 1
 122 0 l 1
 164.865 305 l 1
 238.865 305 l 1
 278.076 584 l 1
 195.892 540 l 1
 120.908 718 l 1
 311.243 820 l 1
 381.092 1317 l 1
 297.092 1317 l 1
 341.082 1630 l 1
 920.082 1630 l 1
 846.438 1106 l 1
 934.044 1153 l 1
EndSplineSet
EndChar

StartChar: oslash
Encoding: 182 248 139
Width: 1273
Flags: HW
LayerCount: 2
Fore
SplineSet
855.584 673 m 1
 606.973 320 l 1
 624.584 303 648.319 294 677.319 294 c 0
 768.319 294 826.124 378 849.595 545 c 0
 854.373 579 857.449 608 857.822 632 c 0
 857.789 646 857.616 659 855.584 673 c 1
114.876 547 m 1
 112.876 547 l 1
 137.189 720 210.021 854 330.373 949 c 0
 450.725 1044 604.33 1091 791.33 1091 c 0
 875.33 1091 949.065 1082 1014.39 1063 c 1
 1105.52 1192 l 1
 1185.5 1142 l 1
 1104.34 1027 l 1
 1145.38 1006 1181.73 980 1212.37 949 c 0
 1306.02 854 1341.19 720 1316.88 547 c 0
 1300.43 430 1261.24 329 1198.15 243 c 0
 1135.06 157 1054.93 92 958.746 48 c 0
 862.562 4 755.471 -18 636.471 -18 c 0
 546.471 -18 466.297 -5 396.811 20 c 1
 309.384 -104 l 1
 229.411 -54 l 1
 310.573 61 l 1
 238.616 104 183.189 165 148.151 243 c 0
 109.238 329 98.4326 430 114.876 547 c 1
577.595 545 m 1
 575.595 545 l 1
 569.271 500 566.93 462 569.292 429 c 1
 806.936 768 l 1
 791.2 777 770.763 781 746.763 781 c 0
 717.763 781 692.919 775 672.092 762 c 0
 651.265 749 634.595 730 622.081 705 c 0
 609.567 680 600.195 656 593.822 632 c 0
 587.449 608 582.373 579 577.595 545 c 1
EndSplineSet
EndChar

StartChar: oe
Encoding: 262 339 140
Width: 1915
Flags: HW
LayerCount: 2
Fore
SplineSet
1005.74 112 m 1
 933.216 30 783.346 -26 636.346 -26 c 0
 275.346 -26 62.8916 170 113.627 531 c 0
 163.66 887 430.081 1075 792.081 1075 c 0
 947.081 1075 1061.77 1023 1129.65 951 c 1
 1212.91 1024 1322.36 1077 1474.36 1077 c 0
 1807.36 1077 1998.13 869 1952.03 541 c 0
 1943.6 481 1895 434 1895 434 c 1
 1293 434 l 1
 1276.69 318 1325.37 209 1439.37 209 c 0
 1536.37 209 1583.98 256 1599.47 352 c 1
 1906.47 352 l 1
 1873.02 114 l 1
 1696.39 17 1545.64 -31 1303.64 -31 c 0
 1160.64 -31 1056.78 34 1005.74 112 c 1
740.611 723 m 0
 627.611 723 593.087 641 577.346 529 c 0
 557.53 388 591.552 317 682.552 317 c 0
 773.552 317 829.39 387 849.205 528 c 0
 864.946 640 853.611 723 740.611 723 c 0
1450.73 795 m 0
 1375.73 795 1331.35 714 1320.67 638 c 2
 1316.31 607 l 1
 1531.31 607 l 1
 1548.66 702 1545.73 795 1450.73 795 c 0
EndSplineSet
EndChar

StartChar: germandbls
Encoding: 157 223 141
Width: 1692
Flags: HW
LayerCount: 2
Fore
SplineSet
1067.05 1274 m 0
 978.049 1274 918.021 1224 904.951 1131 c 2
 796.189 350 l 1
 796.189 350 930.049 349 947.189 350 c 1
 898 0 l 1
 47 0 l 1
 98.8594 369 l 1
 270.859 369 l 1
 372.471 1092 l 2
 428.125 1488 691.098 1623 1087.1 1623 c 1
 1082.54 1619 l 1
 1389.54 1619 1701.89 1529 1660.57 1235 c 0
 1638.5 1078 1508.92 960 1387.07 897 c 1
 1582.79 831 1755.88 668 1721.87 426 c 0
 1677.46 110 1359.05 -21 1033.05 -21 c 1
 1083.63 346 l 1
 1188.36 401 1244.93 462 1254.49 530 c 0
 1276.41 686 1109.12 748 927.125 748 c 1
 945.346 899 l 1
 1057.35 899 1176.37 1013 1191.69 1122 c 0
 1204.76 1215 1163.05 1274 1067.05 1274 c 0
EndSplineSet
EndChar

StartChar: onesuperior
Encoding: 119 185 142
Width: 535
Flags: HW
LayerCount: 2
Fore
SplineSet
125.194 286 m 1
 151.897 476 l 1
 204.897 476 l 1
 256.476 843 l 1
 160.335 842 l 1
 181.557 993 l 1
 582.33 1091 l 1
 495.897 476 l 1
 555.897 476 l 1
 529.194 286 l 1
 125.194 286 l 1
EndSplineSet
EndChar

StartChar: logicalnot
Encoding: 106 172 143
Width: 1137
Flags: HW
LayerCount: 2
Fore
SplineSet
209.471 1092 m 1
 1220.47 1092 l 1
 1143.17 542 l 1
 912.173 542 l 1
 942.951 761 l 1
 163.951 761 l 1
 209.471 1092 l 1
EndSplineSet
EndChar

StartChar: dotlessj
Encoding: 358 567 144
Width: 692
Flags: HW
LayerCount: 2
Fore
SplineSet
167.735 -9 m 1
 157.865 -65 86.8809 -72 33.8809 -72 c 2
 21.8809 -72 l 1
 -23.9355 -398 l 1
 393.064 -398 618.194 -269 674.13 129 c 2
 806.66 1072 l 1
 189.66 1072 l 1
 145.951 761 l 1
 275.951 761 l 1
 167.735 -9 l 1
EndSplineSet
EndChar

StartChar: Eth
Encoding: 142 208 146
AltUni2: 000110.ffffffff.0
Width: 1746
Flags: HW
LayerCount: 2
Fore
SplineSet
1824.68 816 m 0
 1754.55 317 1370 0 863 0 c 2
 61 0 l 1
 110.33 351 l 1
 273.33 351 l 1
 324.206 713 l 1
 194.206 713 l 1
 223.579 922 l 1
 353.579 922 l 1
 402.487 1270 l 1
 235.487 1270 l 1
 284.957 1622 l 1
 1114.96 1622 l 2
 1656.96 1622 1900.01 1352 1824.68 816 c 0
1229.54 815 m 0
 1263.27 1055 1239.35 1269 998.347 1269 c 2
 951.347 1269 l 1
 902.438 921 l 1
 988.438 921 l 1
 959.065 712 l 1
 874.065 712 l 1
 823.189 350 l 1
 857.189 350 l 1
 854.768 347 l 1
 1094.77 347 1195.95 576 1229.54 815 c 0
EndSplineSet
EndChar

StartChar: onehalf
Encoding: 123 189 147
Width: 1741
Flags: HW
LayerCount: 2
Fore
SplineSet
192.963 818 m 1
 218.665 1008 l 1
 271.665 1008 l 1
 323.244 1375 l 1
 227.104 1374 l 1
 248.325 1525 l 1
 649.098 1623 l 1
 566.665 1008 l 1
 622.665 1008 l 1
 595.963 818 l 1
 192.963 818 l 1
342 0 m 1
 1061.1 1623 l 1
 1425.1 1623 l 1
 695 0 l 1
 342 0 l 1
1493.26 194 m 1
 1567.55 196 1626.65 211 1636.77 283 c 1
 1740.77 283 l 1
 1700.86 -1 l 1
 1012.86 -1 l 1
 1034.02 178 l 1
 1181.89 234 1385.52 331 1411.1 513 c 0
 1418.26 564 1392.71 617 1343.71 617 c 0
 1292.71 617 1257.79 582 1250.77 532 c 0
 1246.83 504 1256.18 478 1277.95 455 c 1
 1126.19 350 l 1
 1072.92 405 1055.18 478 1067.97 569 c 0
 1117.3 920 1778.3 920 1727.42 558 c 0
 1701.84 376 1567.71 311 1396.26 194 c 1
 1493.26 194 l 1
EndSplineSet
Ligature2: "'dlig' Discretionary Ligatures in Latin lookup 4-1" one slash two
EndChar

StartChar: plusminus
Encoding: 111 177 148
Width: 814
Flags: HW
LayerCount: 2
Fore
SplineSet
761.341 223 m 1
 729.859 -1 l 1
 82.8594 -1 l 1
 114.341 223 l 1
 761.341 223 l 1
160.092 762 m 1
 392.092 762 l 1
 429.897 1031 l 1
 684.897 1031 l 1
 647.092 762 l 1
 872.092 762 l 1
 837.659 517 l 1
 612.659 517 l 1
 579.07 278 l 1
 324.07 278 l 1
 357.659 517 l 1
 125.659 517 l 1
 160.092 762 l 1
EndSplineSet
EndChar

StartChar: Thorn
Encoding: 156 222 149
Width: 1612
Flags: HW
LayerCount: 2
Fore
SplineSet
1726.82 1066 m 0
 1673.69 688 1377.56 559 996.562 559 c 0
 949.562 559 899.984 562 847.968 569 c 1
 819.017 363 l 1
 965.017 363 l 1
 914 0 l 1
 53 0 l 1
 104.017 363 l 1
 260.876 362 l 1
 418.984 1487 l 1
 267.984 1487 l 1
 317.876 1842 l 1
 1027.88 1842 l 1
 984.714 1542 l 1
 1415.71 1542 1787.39 1497 1726.82 1066 c 0
1205.27 1055 m 0
 1219.61 1157 1143.63 1207 1042.63 1207 c 2
 938.633 1207 l 1
 894.644 894 l 1
 955.644 894 l 2
 1086.64 894 1187.84 931 1205.27 1055 c 0
EndSplineSet
EndChar

StartChar: onequarter
Encoding: 122 188 150
Width: 1674
Flags: HW
HStem: 1 169<1128 1236 1504 1609> 247 151<1102 1236 1504 1638> 1604 20G<885.288 1206>
VStem: 1236 268<170 247 398 596>
DStem2: 347 0 660 0 0.318678 0.947863<99.7462 1713.01> 923 405 1102 398 0.590336 0.807157<100.02 338.942>
LayerCount: 2
Fore
SplineSet
638.446 1624 m 1
 652.238 1624 l 1
 565.665 1008 l 1
 667.665 1008 l 1
 640.963 818 l 1
 138.963 818 l 1
 165.665 1008 l 1
 272.665 1008 l 1
 328.46 1405 l 1
 221.46 1405 l 1
 245.352 1575 l 1
 638.446 1624 l 1
347 0 m 1
 1120.24 1624 l 1
 1434.24 1624 l 1
 660 0 l 1
 347 0 l 1
1527.89 170 m 1
 1632.89 170 l 1
 1609.14 1 l 1
 1128.14 1 l 1
 1151.89 170 l 1
 1259.89 170 l 1
 1270.71 247 l 1
 957.714 247 l 1
 979.919 405 l 1
 1366.18 848 l 1
 1623.18 848 l 1
 1559.94 398 l 1
 1693.94 398 l 1
 1672.71 247 l 1
 1538.71 247 l 1
 1527.89 170 l 1
1291.94 398 m 1
 1319.76 596 l 1
 1157.94 398 l 1
 1291.94 398 l 1
EndSplineSet
LCarets2: 2 0 0 
Ligature2: "'dlig' Discretionary Ligatures in Latin lookup 4-1" one slash four
EndChar

StartChar: divide
Encoding: 181 247 151
Width: 846
Flags: HW
LayerCount: 2
Fore
SplineSet
145.951 761 m 1
 114.611 538 l 1
 888.611 538 l 1
 919.951 761 l 1
 145.951 761 l 1
439.471 -18 m 1
 439.33 -19 l 1
 374.33 -19 323 0 285.2 37 c 0
 247.4 74 232.427 124 241.281 187 c 0
 249.854 248 277.74 297 324.8 333 c 0
 371.859 369 429.39 387 496.39 387 c 0
 565.39 387 619.859 369 658.8 333 c 0
 697.74 297 712.854 248 704.281 187 c 0
 695.427 124 665.4 74 615.2 37 c 0
 565 0 506.471 -18 439.471 -18 c 1
566.379 885 m 1
 566.238 884 l 1
 501.238 884 449.908 903 412.108 940 c 0
 374.309 977 359.336 1027 368.189 1090 c 0
 376.763 1151 404.649 1200 451.709 1236 c 0
 498.768 1272 556.298 1290 623.298 1290 c 0
 692.298 1290 746.768 1272 785.709 1236 c 0
 824.649 1200 839.763 1151 831.189 1090 c 0
 822.336 1027 792.309 977 742.108 940 c 0
 691.908 903 633.379 885 566.379 885 c 1
EndSplineSet
EndChar

StartChar: brokenbar
Encoding: 100 166 152
Width: 544
Flags: HW
LayerCount: 2
Fore
SplineSet
570.33 721 m 1
 469 0 l 1
 74 0 l 1
 175.33 721 l 1
 570.33 721 l 1
697.098 1623 m 1
 595.768 902 l 1
 200.768 902 l 1
 302.098 1623 l 1
 697.098 1623 l 1
EndSplineSet
EndChar

StartChar: degree
Encoding: 110 176 153
Width: 808
Flags: HW
LayerCount: 2
Fore
SplineSet
942.703 1300 m 0
 913.33 1091 743.373 949 529.373 949 c 0
 319.373 949 195.049 1089 224.141 1296 c 0
 252.952 1501 415.644 1634 624.644 1634 c 0
 836.644 1634 971.654 1506 942.703 1300 c 0
605.249 1496 m 0
 486.249 1496 393.303 1411 377.281 1297 c 0
 361.119 1182 431.471 1092 549.471 1092 c 0
 671.471 1092 768.838 1180 785.281 1297 c 0
 801.584 1413 726.249 1496 605.249 1496 c 0
EndSplineSet
EndChar

StartChar: thorn
Encoding: 188 254 154
Width: 1387
Flags: HW
LayerCount: 2
Fore
SplineSet
-26.9355 -398 m 1
 16.5078 -96 l 1
 100.508 -96 l 1
 274.076 1139 l 1
 200.076 1139 l 1
 243.081 1445 l 1
 807.082 1445 l 1
 738.076 954 l 1
 748.076 954 l 1
 797.4 999 845.897 1031 893.708 1051 c 0
 941.52 1071 995.925 1081 1056.92 1081 c 0
 1127.92 1081 1189.82 1066 1243.6 1036 c 0
 1297.38 1006 1339.76 966 1369.59 915 c 0
 1399.43 864 1420.42 807 1431.42 743 c 0
 1442.43 679 1442.87 611 1432.89 540 c 0
 1423.05 470 1403.64 403 1375.5 338 c 0
 1347.37 273 1311.22 215 1267.91 163 c 0
 1224.6 111 1170.7 69 1107.34 38 c 0
 1043.98 7 975.735 -9 902.735 -9 c 0
 833.735 -9 773.562 4 722.076 29 c 0
 670.589 54 632.806 84 608.725 119 c 1
 578.508 -96 l 1
 689.508 -96 l 1
 647.205 -397 l 1
 -26.9355 -398 l 1
651.778 404 m 1
 648.356 401 l 1
 648.373 394 651.108 385 655.703 375 c 0
 660.298 365 665.892 355 673.346 344 c 0
 680.8 333 692.535 324 708.552 317 c 0
 724.567 310 743.006 306 764.006 306 c 0
 796.006 306 823.989 313 848.957 327 c 0
 873.925 341 893.595 360 908.968 384 c 0
 924.341 408 935.854 433 944.508 459 c 0
 953.162 485 960.098 513 964.173 542 c 0
 982.303 671 937.438 736 828.438 736 c 0
 807.438 736 789.017 733 772.032 726 c 0
 755.049 719 741.065 712 730.94 704 c 0
 720.816 696 711.411 686 702.865 675 c 0
 694.319 664 689.335 657 687.773 653 c 0
 686.211 649 684.789 646 683.368 643 c 1
 651.324 415 l 1
 651.778 404 l 1
EndSplineSet
EndChar

StartChar: threequarters
Encoding: 124 190 155
Width: 1778
Flags: HW
HStem: -1 167<1297 1371 1639 1711> 243 151<1260 1371 1640 1743> 822 171<111.169 381.299> 1058 20G<51 86.5> 1358 265<44 176.138> 1440 183<171.543 365>
VStem: 44 113<1358 1428.6> 398 311<1013.96 1153.19> 489 353<0 353> 980 364<1257 1621> 1371 269<166 243 394 532>
DStem2: 489 0 842 0 0.295825 0.955242<104.426 1693.7>
LayerCount: 2
Fore
SplineSet
1426.37 394 m 1xf260
 1445.77 532 l 1
 1315.51 395 l 1
 1426.37 394 l 1xf260
1662.33 166 m 1
 1734.33 166 l 1
 1710.86 -1 l 1
 1296.86 -1 l 1
 1320.33 166 l 1
 1394.33 166 l 1
 1405.15 243 l 1
 1092.15 243 l 1
 1114.36 401 l 1
 1492.32 785 l 1
 1750.18 784 l 1
 1695.23 393 l 1
 1798.37 394 l 1
 1777.15 243 l 1
 1673.15 243 l 1
 1662.33 166 l 1
489 0 m 1xf2e0
 1207.82 1621 l 1
 1571.82 1621 l 1
 842 0 l 1
 489 0 l 1xf2e0
444.524 822 m 0
 323.524 822 174.395 878 174.395 878 c 1
 202.503 1078 l 1
 265.633 1022 332.557 993 406.557 993 c 0
 469.557 993 540.93 1017 549.784 1080 c 0
 559.903 1152 490.557 1178 417.557 1178 c 0
 398.557 1178 354.871 1166 340.871 1166 c 0
 333.871 1166 329.573 1171 329.573 1171 c 1
 342.644 1264 l 1
 566.535 1434 l 1
 567.379 1440 l 1
 439.379 1440 l 2xf760
 377.379 1440 347.854 1358 347.854 1358 c 1
 234.854 1358 l 1
 272.098 1623 l 1xfb60
 898.098 1623 l 1
 876.454 1469 l 2
 876.314 1468 813.849 1422 690.06 1331 c 1
 796.795 1322 881.021 1224 865 1110 c 0xf760
 836.752 909 655.524 822 444.524 822 c 0
EndSplineSet
Ligature2: "'dlig' Discretionary Ligatures in Latin lookup 4-1" three slash four
EndChar

StartChar: twosuperior
Encoding: 112 178 156
Width: 805
Flags: HW
LayerCount: 2
Fore
SplineSet
591.601 481 m 1
 665.881 483 724.989 498 735.108 570 c 1
 839.108 570 l 1
 799.194 286 l 1
 111.194 286 l 1
 132.352 465 l 1
 280.222 521 483.854 618 509.433 800 c 0
 516.601 851 491.049 904 442.049 904 c 0
 391.049 904 356.13 869 349.103 819 c 0
 345.168 791 354.514 765 376.281 742 c 1
 224.524 637 l 1
 171.254 692 153.514 765 166.303 856 c 0
 215.633 1207 876.633 1207 825.757 845 c 0
 800.179 663 666.043 598 494.601 481 c 1
 591.601 481 l 1
EndSplineSet
EndChar

StartChar: registered
Encoding: 108 174 157
Width: 1770
Flags: HW
LayerCount: 2
Fore
SplineSet
881.471 -18 m 0
 409.471 -18 89.2539 322 155.309 792 c 0
 221.362 1262 637.865 1600 1108.87 1600 c 0
 1580.87 1600 1901.36 1262 1835.17 791 c 0
 1768.97 320 1353.47 -18 881.471 -18 c 0
1659.75 788 m 0
 1712.31 1162 1461.22 1446 1086.22 1446 c 2
 1085.22 1446 l 2
 707.222 1446 379.73 1165 326.746 788 c 0
 273.763 411 524.271 130 901.271 130 c 0
 1276.27 130 1607.18 414 1659.75 788 c 0
1079.87 611 m 2
 1092.24 699 1080.98 747 993.984 747 c 2
 939.984 747 l 1
 914.546 566 l 1
 981.546 566 l 1
 952.735 361 l 1
 953.595 360 l 1
 855.595 360 705.595 360 503.454 359 c 1
 531.984 562 l 1
 616.984 562 l 1
 686.692 1058 l 1
 600.692 1058 l 1
 629.362 1262 l 1
 1193.36 1262 l 2
 1377.36 1262 1479.67 1193 1454.09 1011 c 0
 1437.08 890 1339.37 828 1225.7 809 c 1
 1306.89 789 1372.39 757 1360.16 670 c 2
 1352.85 618 l 2
 1345.26 564 1372.56 559 1436.56 559 c 1
 1408.59 360 l 1
 1262.59 360 l 2
 1136.59 360 1046.84 376 1064.55 502 c 2
 1079.87 611 l 2
1142.32 970 m 0
 1150.9 1031 1113.1 1068 1050.1 1068 c 2
 982.098 1068 l 1
 954.552 872 l 1
 988.552 872 l 1
 989.692 873 l 1
 1082.69 873 1133.19 905 1142.32 970 c 0
EndSplineSet
EndChar

StartChar: eth
Encoding: 174 240 158
Width: 1320
Flags: HW
LayerCount: 2
Fore
SplineSet
1425.76 1585 m 1
 1468.41 1426 l 1
 1302.56 1363 l 1
 1382.62 1214 1410.81 1009 1387.12 748 c 0
 1386.3 735 1383.49 715 1379.69 688 c 0
 1368.73 610 1351.47 537 1326.77 468 c 0
 1302.08 399 1269.08 335 1227.65 275 c 0
 1186.22 215 1137.91 163 1082.87 120 c 0
 1027.82 77 963.043 43 887.529 18 c 0
 812.017 -7 730.33 -19 641.33 -19 c 0
 546.33 -19 461.578 -3 387.076 29 c 0
 312.573 61 254.616 104 212.064 157 c 0
 169.514 210 139.946 270 122.222 336 c 0
 104.497 402 101.054 470 110.752 539 c 0
 117.919 590 132.806 639 154.411 686 c 0
 176.017 733 206.341 778 244.243 820 c 0
 282.146 862 326.206 898 376.562 929 c 0
 426.919 960 487.292 984 556.822 1002 c 0
 626.352 1020 700.616 1029 779.616 1029 c 2
 812.616 1029 l 1
 805.189 1090 795.795 1137 784.292 1169 c 1
 519.098 1068 l 1
 478.162 1225 l 1
 668.281 1297 l 1
 629.53 1313 581.654 1321 525.654 1321 c 0
 473.654 1321 431.092 1317 399.108 1310 c 1
 442.816 1621 l 1
 548.908 1643 648.454 1654 741.454 1654 c 0
 938.454 1654 1091.15 1602 1199.67 1499 c 1
 1425.76 1585 l 1
635.546 566 m 0
 614.043 413 640.222 336 714.222 336 c 0
 734.222 336 752.486 345 768.876 362 c 0
 785.265 379 798.356 401 808.151 428 c 0
 817.946 455 825.319 479 830.271 500 c 0
 835.222 521 838.892 540 841.422 558 c 0
 861.8 703 838.919 775 773.919 775 c 0
 700.919 775 655.081 705 635.546 566 c 0
EndSplineSet
EndChar

StartChar: multiply
Encoding: 149 215 159
Width: 810
Flags: HW
LayerCount: 2
Fore
SplineSet
470.633 467 m 1
 251.508 274 l 1
 102.821 447 l 1
 321.946 640 l 1
 146.616 844 l 1
 351.914 1024 l 1
 520.243 820 l 1
 745.914 1024 l 1
 900.616 844 l 1
 667.946 640 l 1
 832.822 447 l 1
 635.508 274 l 1
 470.633 467 l 1
EndSplineSet
EndChar

StartChar: threesuperior
Encoding: 113 179 160
Width: 769
Flags: HW
LayerCount: 2
Fore
SplineSet
380.946 270 m 0
 259.946 270 110.816 326 110.816 326 c 1
 138.925 526 l 1
 202.055 470 268.979 441 342.979 441 c 0
 405.979 441 477.352 465 486.205 528 c 0
 496.324 600 426.979 626 353.979 626 c 0
 334.979 626 291.292 614 277.292 614 c 0
 273.292 614 265.995 619 265.995 619 c 1
 279.065 712 l 1
 502.957 882 l 1
 503.8 888 l 1
 375.8 888 l 2
 313.8 888 284.276 806 284.276 806 c 1
 171.276 806 l 1
 208.52 1071 l 1
 834.52 1071 l 1
 812.876 917 l 2
 812.735 916 750.271 870 626.481 779 c 1
 733.217 770 817.443 672 801.422 558 c 0
 773.173 357 591.946 270 380.946 270 c 0
EndSplineSet
EndChar

StartChar: copyright
Encoding: 103 169 161
Width: 1770
Flags: HW
LayerCount: 2
Fore
SplineSet
881.471 -18 m 0
 409.471 -18 89.2539 322 155.309 792 c 0
 221.362 1262 637.865 1600 1108.87 1600 c 0
 1580.87 1600 1901.36 1262 1835.17 791 c 0
 1768.97 320 1353.47 -18 881.471 -18 c 0
1659.75 788 m 0
 1712.31 1162 1461.22 1446 1086.22 1446 c 2
 1085.22 1446 l 2
 707.222 1446 379.73 1165 326.746 788 c 0
 273.763 411 524.271 130 901.271 130 c 0
 1276.27 130 1607.18 414 1659.75 788 c 0
986.162 485 m 0
 1087.16 485 1137.58 552 1155.2 656 c 1
 1346.2 656 l 1
 1309.65 396 l 1
 1288.56 374 l 1
 1193.58 303 1042.43 245 887.433 245 c 0
 569.433 245 429.806 454 474.778 774 c 0
 516.238 1069 687.812 1315 983.812 1315 c 0
 1091.81 1315 1164.86 1294 1202.82 1251 c 1
 1231.14 1296 l 1
 1428.14 1296 l 1
 1371.78 895 l 1
 1182.78 895 l 1
 1199.98 996 1163.49 1085 1062.49 1085 c 0
 927.486 1085 891.671 944 872.557 808 c 2
 861.735 731 l 2
 843.605 602 856.162 485 986.162 485 c 0
EndSplineSet
EndChar

StartChar: foursuperior
Encoding: 359 -1 215
Width: 820
Flags: HW
LayerCount: 2
Fore
SplineSet
698.946 455 m 1
 770.946 455 l 1
 747.194 286 l 1
 333.194 286 l 1
 356.946 455 l 1
 430.946 455 l 1
 441.768 532 l 1
 128.768 532 l 1
 150.974 690 l 1
 528.94 1074 l 1
 786.801 1073 l 1
 731.849 682 l 1
 864.989 683 l 1
 843.768 532 l 1
 709.768 532 l 1
 698.946 455 l 1
462.989 683 m 1
 482.384 821 l 1
 352.13 684 l 1
 462.989 683 l 1
EndSplineSet
EndChar

StartChar: uni00AD
Encoding: 107 173 216
Width: 778
Flags: HW
LayerCount: 2
Fore
SplineSet
830.492 836 m 1
 788.471 537 l 1
 141.471 537 l 1
 183.492 836 l 1
 830.492 836 l 1
EndSplineSet
EndChar

StartChar: hbar
Encoding: 221 295 219
Width: 1436
Flags: HW
LayerCount: 2
Fore
SplineSet
1103.05 1089 m 0
 1338.05 1089 1440.67 944 1406.66 702 c 2
 1350.87 305 l 1
 1436.87 305 l 1
 1394 0 l 1
 818 0 l 1
 904.995 619 l 1
 915.66 702 893.562 744 838.562 744 c 0
 771.562 744 732.081 705 720.979 626 c 2
 675.865 305 l 1
 755.865 305 l 1
 713 0 l 1
 60 0 l 1
 103.865 305 l 1
 182.865 305 l 1
 299.232 1133 l 1
 215.232 1133 l 1
 233.362 1262 l 1
 317.362 1262 l 1
 327.2 1332 l 1
 243.2 1332 l 1
 286.487 1640 l 1
 859.487 1640 l 1
 806.362 1262 l 1
 981.362 1262 l 1
 963.232 1133 l 1
 788.232 1133 l 1
 757.735 916 l 1
 850.243 1005 935.049 1089 1103.05 1089 c 0
EndSplineSet
EndChar

StartChar: ij
Encoding: 233 307 224
Width: 1490
Flags: HW
LayerCount: 2
Fore
SplineSet
1570.66 1072 m 1
 209.081 1075 l 1
 165.373 764 l 1
 254.373 764 l 1
 190.286 308 l 1
 108.286 308 l 1
 65.4219 3 l 1
 712.422 3 l 1
 755.286 308 l 1
 671.286 308 l 1
 735.232 763 l 1
 1030.23 763 l 1
 922.156 -6 l 2
 918.644 -31 904.254 -48 878.849 -58 c 0
 853.443 -68 828.881 -72 805.303 -69 c 1
 761.486 -395 l 1
 876.486 -395 975.032 -384 1055.98 -363 c 0
 1136.94 -342 1203.57 -309 1255.9 -264 c 0
 1308.22 -219 1348.81 -165 1376.67 -102 c 0
 1404.52 -39 1425.34 38 1438.13 129 c 2
 1570.66 1072 l 1
506.936 1138 m 1
 504.795 1137 l 1
 425.795 1137 363.027 1160 316.352 1205 c 0
 269.676 1250 252.249 1311 263.07 1388 c 0
 273.611 1463 308.044 1523 366.228 1567 c 0
 424.411 1611 494.503 1633 575.503 1633 c 0
 660.503 1633 726.411 1611 773.228 1567 c 0
 820.044 1523 838.611 1463 828.07 1388 c 0
 817.249 1311 781.676 1250 720.352 1205 c 0
 659.027 1160 587.936 1138 506.936 1138 c 1
1295.79 1137 m 1
 1293.65 1136 l 1
 1214.65 1136 1151.89 1159 1105.21 1204 c 0
 1058.54 1249 1041.11 1310 1051.93 1387 c 0
 1062.47 1462 1096.9 1522 1155.09 1566 c 0
 1213.27 1610 1283.36 1632 1364.36 1632 c 0
 1449.36 1632 1515.27 1610 1562.09 1566 c 0
 1608.9 1522 1627.47 1462 1616.93 1387 c 0
 1606.11 1310 1570.54 1249 1509.21 1204 c 0
 1447.89 1159 1376.79 1137 1295.79 1137 c 1
EndSplineSet
Ligature2: "'dlig' Discretionary Ligatures in Latin lookup 4-1" i j
EndChar

StartChar: Euro
Encoding: 352 8364 240
Width: 1499
Flags: HW
LayerCount: 2
Fore
SplineSet
759.049 -21 m 0
 395.049 -21 245.341 223 213.659 517 c 1
 93.6592 517 l 1
 125.141 741 l 1
 213.141 741 l 1
 214.108 755 217.06 776 220.995 804 c 0
 224.93 832 227.881 853 230.849 867 c 1
 142.849 867 l 1
 174.33 1091 l 1
 293.33 1091 l 1
 407.211 1389 624.752 1649 992.752 1649 c 0
 1146.75 1649 1267.66 1627 1337.7 1549 c 1
 1382.1 1623 l 1
 1693.1 1623 l 1
 1604.85 988 l 1
 1306.85 988 l 1
 1334.76 1151 1277.88 1287 1114.88 1287 c 0
 1023.88 1287 953.601 1221 903.908 1088 c 1
 1086.91 1088 l 1
 1055.43 864 l 1
 848.428 864 l 1
 842.524 822 836.622 780 830.719 738 c 1
 1037.72 738 l 1
 1006.24 514 l 1
 826.238 514 l 1
 841.076 399 892.925 341 981.925 341 c 0
 1144.92 341 1240.04 477 1257.95 640 c 1
 1555.95 640 l 1
 1465 0 l 1
 1154 0 l 1
 1131.1 79 l 1
 1039.14 1 913.049 -21 759.049 -21 c 0
EndSplineSet
EndChar

StartChar: uniFB00
Encoding: 360 64256 241
Width: 1763
Flags: HW
HStem: 0 305<46 194 681 857 922 1035 1522 1698> 768 304<28 194 681 1035 1522 1728> 1212 311<761.599 886 1602.6 1727> 1225 345<463.239 877.05 1304.24 1718.05>
VStem: 194 487<305 768 1072 1215.86> 1035 487<305 768 1072 1215.86>
LayerCount: 2
Back
SplineSet
516 1608 m 4
 617 1608 826 1562 826 1562 c 5
 826 1251 l 5
 787 1260 755 1264 730 1264 c 4
 628 1264 612 1191 619 1072 c 5
 1014 1072 l 5
 1014 1074 1013 1119 1012 1207 c 5
 1010 1203 l 5
 1010 1472 1137 1606 1390 1606 c 4
 1491 1606 1700 1560 1700 1560 c 5
 1700 1249 l 5
 1661 1258 1629 1262 1604 1262 c 4
 1502 1262 1486 1189 1493 1070 c 5
 1672 1070 l 5
 1672 759 l 5
 1500 759 l 5
 1500 305 l 5
 1610 305 l 5
 1610 0 l 5
 930 0 l 5
 930 305 l 5
 1014 305 l 5
 1014 759 l 5
 625 759 l 5
 625 305 l 5
 735 305 l 5
 735 0 l 5
 55 0 l 5
 55 305 l 5
 139 305 l 5
 139 759 l 5
 55 759 l 5
 55 1070 l 5
 138 1070 l 5
 138 1072 136 1117 136 1205 c 4
 136 1474 263 1608 516 1608 c 4
EndSplineSet
Fore
SplineSet
1100.04 1523 m 1xec
 1056.34 1212 l 1xec
 1006.6 1221 966.162 1225 932.162 1225 c 0
 862.162 1225 837.838 1180 827.579 1107 c 0
 826.033 1096 824.347 1084 823.66 1072 c 1
 1185.66 1072 l 1
 1199.01 1167 l 2
 1236.82 1436 1389.13 1570 1660.65 1570 c 4xdc
 1755.18 1570 1941.04 1523 1941.04 1523 c 1
 1897.34 1212 l 1xec
 1847.6 1221 1807.16 1225 1773.16 1225 c 0
 1703.16 1225 1678.84 1180 1668.58 1107 c 0
 1667.03 1096 1665.35 1084 1664.66 1072 c 1
 1878.66 1072 l 1
 1835.94 768 l 1
 1629.94 768 l 1
 1564.87 305 l 1
 1740.87 305 l 1
 1698 0 l 1
 922 0 l 1
 964.865 305 l 1
 1077.87 305 l 1
 1142.94 768 l 1
 788.936 768 l 1
 723.865 305 l 1
 899.865 305 l 1
 857 0 l 1
 46 0 l 1
 88.8652 305 l 1
 236.865 305 l 1
 301.936 768 l 1
 135.936 768 l 1
 178.66 1072 l 1
 344.66 1072 l 1
 358.011 1167 l 2
 395.816 1436 548.128 1570 819.649 1570 c 0xdc
 914.18 1570 1100.04 1523 1100.04 1523 c 1xec
EndSplineSet
LCarets2: 1 0 
Ligature2: "'liga' Standard Ligatures in Latin lookup 0-1" f f
EndChar

StartChar: fi
Encoding: 355 64257 242
Width: 1624
Flags: HW
HStem: 0 305<-8 140 627 800 895 1000 1487 1590> 768 304<-26 140 627 1000> 1135 495<1037.9 1367.23> 1225 345<442.479 824.956>
VStem: 140 487<305 768 1072 1215.86> 923 564<1247.4 1525.76> 1000 487<305 768>
LayerCount: 2
Back
SplineSet
832 1523 m 5
 832 1212 l 5
 781 1221 740 1225 706 1225 c 4
 636 1225 618 1180 618 1107 c 4
 618 1096 618 1084 619 1072 c 5
 833 1072 l 5
 833 779 l 5
 627 779 l 5
 627 305 l 5
 803 305 l 5
 803 0 l 5
 -8 0 l 5
 -8 305 l 5
 140 305 l 5
 140 779 l 5
 -26 779 l 5
 -26 1072 l 5
 140 1072 l 5
 140 1167 l 6
 140 1436 257 1570 495 1570 c 4
 606 1570 832 1523 832 1523 c 5
EndSplineSet
Fore
SplineSet
1681.65 1385 m 0xec
 1659.72 1229 1517.51 1135 1359.51 1135 c 0
 1204.51 1135 1095.87 1230 1117.65 1385 c 0
 1139.43 1540 1272.08 1630 1429.08 1630 c 0
 1590.08 1630 1703.71 1542 1681.65 1385 c 0xec
1046.04 1523 m 1
 1002.34 1212 l 1
 952.601 1221 912.162 1225 878.162 1225 c 0
 808.162 1225 783.838 1180 773.579 1107 c 0
 772.033 1096 770.347 1084 769.66 1072 c 1
 1637.66 1072 l 1
 1529.87 305 l 1
 1632.87 305 l 1
 1590 0 l 1
 895 0 l 1
 937.865 305 l 1
 1042.87 305 l 1
 1107.94 768 l 1
 734.936 768 l 1
 669.865 305 l 1
 842.865 305 l 1
 800 0 l 1
 -8 0 l 1
 34.8652 305 l 1
 182.865 305 l 1
 247.936 768 l 1
 81.9355 768 l 1
 124.66 1072 l 1
 290.66 1072 l 1
 304.011 1167 l 2
 341.816 1436 510.607 1570 815.649 1570 c 4xda
 893.711 1570 1046.04 1523 1046.04 1523 c 1
EndSplineSet
LCarets2: 1 0 
Ligature2: "'liga' Standard Ligatures in Latin lookup 0-1" f i
EndChar

StartChar: fl
Encoding: 356 64258 243
Width: 1686
Flags: HW
HStem: 0 305<46 194 681 857 955 1070 1557 1655> 768 304<28 194 681 887> 1225 345<683.192 1070>
VStem: 194 487<305 768 1072 1215.86> 1070 487<304 1225>
LayerCount: 2
Fore
SplineSet
1599.72 304 m 1
 1697.72 304 l 1
 1655 0 l 1
 955 0 l 1
 997.725 304 l 1
 1112.72 304 l 1
 1242.16 1225 l 1
 1138.83 1225 1035.5 1225 932.162 1225 c 0
 862.162 1225 837.838 1180 827.579 1107 c 0
 826.033 1096 824.347 1084 823.66 1072 c 1
 1037.66 1072 l 1
 994.936 768 l 1
 788.936 768 l 1
 723.865 305 l 1
 899.865 305 l 1
 857 0 l 1
 46 0 l 1
 88.8652 305 l 1
 236.865 305 l 1
 301.936 768 l 1
 135.936 768 l 1
 178.66 1072 l 1
 344.66 1072 l 1
 358.011 1167 l 2
 395.816 1436 531.649 1570 769.649 1570 c 2
 1777.65 1570 l 1
 1599.72 304 l 1
EndSplineSet
LCarets2: 1 0 
Ligature2: "'liga' Standard Ligatures in Latin lookup 0-1" f l
EndChar

StartChar: uniFB03
Encoding: 361 64259 244
Width: 2485
Flags: HW
HStem: 0 305<46 194 681 857 922 1035 1522 1698 1763 1865 2352 2456> 768 304<28 194 681 1035 1522 1865> 1135.13 495<1902.9 2232.23> 1212 311<761.599 886 1602.6 1727> 1225 345<483.183 877.491 1324.18 1718.49>
VStem: 194 487<305 768 1072 1215.86> 1035 487<305 768 1072 1215.86> 1788 564<1247.53 1525.89> 1865 487<305.134 768.113>
LayerCount: 2
Fore
SplineSet
1100.04 1523 m 1xd680
 1056.34 1212 l 1xd680
 1006.6 1221 966.162 1225 932.162 1225 c 0
 862.162 1225 837.838 1180 827.579 1107 c 0
 826.033 1096 824.347 1084 823.66 1072 c 1
 1185.66 1072 l 1
 1199.01 1167 l 2
 1236.82 1436 1399.02 1570 1690.65 1570 c 4xce80
 1775.3 1570 1941.04 1523 1941.04 1523 c 1
 1897.34 1212 l 1xd680
 1847.6 1221 1807.16 1225 1773.16 1225 c 0
 1703.16 1225 1678.84 1180 1668.58 1107 c 0
 1667.03 1096 1665.35 1084 1664.66 1072 c 1
 1906.68 1072.13 l 1
 2105.35 1072.13 2304.01 1072.13 2502.68 1072.13 c 1
 2394.88 305.134 l 1
 2498.88 305.134 l 1
 2456.02 0.133789 l 1
 1763.02 0.133789 l 1
 1805.88 305.134 l 1
 1907.88 305.134 l 1
 1972.95 768.113 l 1
 1629.94 768 l 1
 1564.87 305 l 1
 1740.87 305 l 1
 1698 0 l 1
 922 0 l 1
 964.865 305 l 1
 1077.87 305 l 1
 1142.94 768 l 1
 788.936 768 l 1
 723.865 305 l 1
 899.865 305 l 1
 857 0 l 1
 46 0 l 1
 88.8652 305 l 1
 236.865 305 l 1
 301.936 768 l 1
 135.936 768 l 1
 178.66 1072 l 1
 344.66 1072 l 1
 358.011 1167 l 2
 395.816 1436 558.016 1570 849.649 1570 c 4xce80
 934.299 1570 1100.04 1523 1100.04 1523 c 1xd680
2546.67 1385.13 m 0xe7
 2524.74 1229.13 2382.53 1135.13 2224.53 1135.13 c 0
 2069.53 1135.13 1960.88 1230.13 1982.67 1385.13 c 0
 2004.45 1540.13 2137.1 1630.13 2294.1 1630.13 c 0
 2455.1 1630.13 2568.73 1542.13 2546.67 1385.13 c 0xe7
EndSplineSet
LCarets2: 2 0 0 
Ligature2: "'liga' Standard Ligatures in Latin lookup 0-1" f f i
EndChar

StartChar: uniFB04
Encoding: 362 64260 245
Width: 2475
Flags: HW
LayerCount: 2
Fore
SplineSet
1616.99 1608 m 0
 1717.99 1608 1920.52 1562 1920.52 1562 c 1
 1876.82 1251 l 1
 1839.08 1260 1807.64 1264 1782.64 1264 c 0
 1680.64 1264 1654.38 1191 1644.66 1072 c 1
 1823.66 1072 l 1
 1779.95 761 l 1
 1607.95 761 l 1
 1543.87 305 l 1
 1653.87 305 l 1
 1611 0 l 1
 931 0 l 1
 973.865 305 l 1
 1057.87 305 l 1
 1121.95 761 l 1
 732.951 761 l 1
 668.865 305 l 1
 778.865 305 l 1
 736 0 l 1
 56 0 l 1
 98.8652 305 l 1
 182.865 305 l 1
 246.951 761 l 1
 162.951 761 l 1
 206.66 1072 l 1
 289.66 1072 l 1
 289.94 1074 295.266 1119 306.633 1207 c 1
 304.07 1203 l 1
 341.876 1472 487.709 1606 740.709 1606 c 0
 841.709 1606 1044.24 1560 1044.24 1560 c 1
 1000.54 1249 l 1
 962.801 1258 931.362 1262 906.362 1262 c 0
 804.362 1262 778.104 1189 768.379 1070 c 1
 1163.38 1070 l 1
 1163.66 1072 1167.98 1117 1180.35 1205 c 0
 1218.16 1474 1363.99 1608 1616.99 1608 c 0
2396.87 305 m 1
 2474.87 305 l 1
 2432 0 l 1
 1785 0 l 1
 1827.87 305 l 1
 1901.87 305 l 1
 2043.53 1313 l 1
 1959.53 1313 l 1
 2003.52 1626 l 1
 2582.52 1626 l 1
 2396.87 305 l 1
EndSplineSet
EndChar

StartChar: invertedbreve
Encoding: 365 -1 248
Width: 924
Flags: HW
LayerCount: 2
Fore
SplineSet
646.39 1312 m 0
 557.39 1312 485.114 1246 471.903 1152 c 1
 219.903 1152 l 1
 217.763 1151 l 1
 249.104 1374 449.249 1496 671.249 1496 c 0
 894.249 1496 1059.1 1374 1027.76 1151 c 1
 775.763 1151 l 1
 788.974 1245 736.39 1312 646.39 1312 c 0
EndSplineSet
EndChar

StartChar: Delta
Encoding: 366 -1 249
Width: 1160
Flags: HW
LayerCount: 2
Fore
SplineSet
47.7295 55 m 1
 533.989 1238 l 1
 1006.99 1238 l 1
 1130.73 55 l 1
 1123 0 l 1
 40 0 l 1
 47.7295 55 l 1
467.811 205 m 1
 847.811 205 l 1
 799.784 1080 l 1
 467.811 205 l 1
EndSplineSet
EndChar

StartChar: IJ
Encoding: 232 306 252
Width: 2234
Flags: HW
LayerCount: 2
Fore
SplineSet
1078.27 1240 m 1
 931.271 1240 l 1
 807.454 359 l 1
 948.454 359 l 1
 898 0 l 1
 36 0 l 1
 86.4541 359 l 1
 233.454 359 l 1
 357.271 1240 l 1
 214.271 1240 l 1
 263.882 1593 l 1
 1127.88 1593 l 1
 1078.27 1240 l 1
1445.3 365 m 0
 1327.3 365 1343.24 514 1359.96 633 c 1
 1055.96 633 l 1
 965.173 -13 l 1
 1235.17 -13 l 1
 1285.1 79 l 1
 1333.84 6 1424.78 -30 1557.78 -30 c 0
 1866.78 -30 2081.47 167 2124.76 475 c 2
 2232.27 1240 l 1
 2379.27 1240 l 1
 2428.88 1593 l 1
 1574.88 1593 l 1
 1525.27 1240 l 1
 1679.27 1240 l 1
 1585.39 572 l 2
 1569.37 458 1540.3 365 1445.3 365 c 0
EndSplineSet
Ligature2: "'dlig' Discretionary Ligatures in Latin lookup 4-1" I J
EndChar

StartChar: kgreenlandic
Encoding: 238 312 254
Width: 1407
Flags: HW
LayerCount: 2
Fore
SplineSet
687.557 438 m 1
 626 0 l 1
 36 0 l 1
 78.8652 305 l 1
 181.865 305 l 1
 310.741 1222 l 1
 206.741 1222 l 1
 245.108 1495 l 1
 845.244 1560 l 1
 708.497 587 l 1
 933.951 761 l 1
 838.951 761 l 1
 882.66 1072 l 1
 1516.66 1072 l 1
 1472.95 761 l 1
 1301.95 761 l 1
 1302.09 762 1109.85 618 1108.85 618 c 2
 1271.87 305 l 1
 1426.87 305 l 1
 1384 0 l 1
 911 0 l 1
 687.557 438 l 1
EndSplineSet
EndChar

StartChar: uni0311
Encoding: 340 785 255
Width: 926
Flags: HW
LayerCount: 2
Fore
SplineSet
660.319 1404 m 0
 571.319 1404 499.044 1338 485.833 1244 c 1
 233.833 1244 l 1
 268.406 1490 435.816 1621 689.816 1621 c 1
 691.535 1619 l 1
 942.535 1619 1075.98 1487 1041.69 1243 c 1
 789.692 1243 l 1
 802.903 1337 750.319 1404 660.319 1404 c 0
EndSplineSet
EndChar

StartChar: uni0326
Encoding: 341 806 256
Width: 593
Flags: HW
LayerCount: 2
Fore
SplineSet
-68.2979 -735 m 1
 -69.4385 -736 l 1
 -68.4385 -736 l 1
 -68.2979 -735 l 1
-68.4385 -736 m 1
 89.5615 -736 130.416 -673 152.902 -513 c 1
 -36.0977 -513 l 1
 15.3408 -147 l 1
 525.341 -147 l 1
 526.865 -250 521.936 -342 510.411 -424 c 0
 458.551 -793 268.081 -960 -99.9189 -960 c 1
 -68.4385 -736 l 1
EndSplineSet
EndChar

StartChar: uni030F
Encoding: 339 783 257
Width: 1011
Flags: HW
LayerCount: 2
Fore
SplineSet
635.671 1129 m 1
 279.428 1604 l 1
 566.271 1795 l 1
 793.584 1228 l 1
 635.671 1129 l 1
954.53 1128 m 1
 746.217 1695 l 1
 1062.94 1814 l 1
 1127.96 1188 l 1
 954.53 1128 l 1
EndSplineSet
EndChar

StartChar: uni00B5
Encoding: 115 181 366
Width: 1466
Flags: HW
LayerCount: 2
Fore
SplineSet
430.93 -278 m 1
 107.93 -278 l 1
 253.951 761 l 1
 137.951 761 l 1
 176.038 1032 l 1
 787.471 1092 l 1
 695.557 438 l 2
 687.124 378 712.692 318 768.692 318 c 0
 831.692 318 879.281 372 888.275 436 c 2
 933.951 761 l 1
 834.951 761 l 1
 873.038 1032 l 1
 1467.47 1092 l 1
 1356.87 305 l 1
 1476.87 305 l 1
 1434 0 l 1
 828 0 l 1
 849.925 156 l 1
 773.292 59 664.064 -28 565.064 -28 c 0
 532.064 -28 499.33 -19 470.562 4 c 1
 430.93 -278 l 1
EndSplineSet
EndChar

StartChar: dcroat
Encoding: 207 273 367
Width: 1419
Flags: HW
LayerCount: 2
Fore
SplineSet
1554.82 1187 m 1
 1538.52 1071 l 1
 1420.52 1071 l 1
 1312.87 305 l 1
 1429.87 305 l 1
 1387 0 l 1
 783 0 l 1
 800.989 128 l 1
 728.605 47 617.471 -18 485.33 -19 c 1
 181.33 -19 55.3564 216 98.0811 520 c 0
 156.546 936 624.076 1139 913.703 930 c 1
 933.52 1071 l 1
 726.52 1071 l 1
 742.822 1187 l 1
 949.822 1187 l 1
 963.174 1282 l 1
 809.174 1282 l 1
 839.108 1495 l 1
 1489.24 1560 l 1
 1436.82 1187 l 1
 1554.82 1187 l 1
570.205 528 m 0
 551.654 396 567.319 294 689.319 294 c 0
 757.319 294 808.081 335 835 370 c 1
 878.428 679 l 1
 780.26 813 599.859 739 570.205 528 c 0
EndSplineSet
EndChar

StartChar: No
Encoding: 371 -1 371
Width: 3098
Flags: HW
HStem: 0 359<36 199 515 673> 0 166<1847 2884> 276 252<2264.77 2447.14> 983 262<2262.74 2449.25> 1100 352<42 199 1115 1273 1594 1752>
VStem: 199 316<360 878> 1273 321<647 1100> 1795 410.871<597.285 924.082> 2505.97 411.028<597.399 924.187>
LayerCount: 2
Fore
SplineSet
1870.33 166 m 25x4780
 2907.33 166 l 25
 2884 0 l 25
 1847 0 l 25
 1870.33 166 l 25x4780
2530.97 1245 m 0x3780
 2867.01 1245 3068.34 1076.85 3023.95 761 c 0
 2980.52 451.973 2731.76 276 2394.79 276 c 0
 2057.82 276 1858.52 451.973 1901.95 761 c 0
 1946.34 1076.85 2194.93 1245 2530.97 1245 c 0x3780
2430.21 528 m 0
 2528.32 528 2596.73 645.812 2613 761.539 c 0
 2628.7 873.241 2595.81 983 2494.15 983 c 0
 2392.56 983 2328.53 872.8 2312.8 760.867 c 0
 2296.57 645.357 2331.77 528 2430.21 528 c 0
1906.59 1100 m 1x8f80
 1748.59 1100 l 1
 1594 0 l 1
 988 0 l 1x4f80
 638.395 878 l 1
 565.595 360 l 1
 565.595 360 611.595 360 723.454 359 c 1
 673 0 l 1
 36 0 l 1
 86.4541 359 l 1
 188.454 359 249.595 360 249.595 360 c 1
 353.876 1102 l 1
 196.876 1102 l 1
 246.206 1453 l 1
 981.206 1453 l 1
 1363.93 647 l 1
 1427.59 1100 l 1
 1269.59 1100 l 1
 1319.07 1452 l 1
 1956.07 1452 l 1
 1906.59 1100 l 1x8f80
EndSplineSet
LCarets2: 2 0 0 
Ligature2: "'dlig' Discretionary Ligatures in Latin lookup 3-1" N o period
EndChar

StartChar: t.fin
Encoding: 372 -1 372
Width: 1031
Flags: HW
HStem: -18.4905 352.982<409.164 766.721> 768 304<19 139 626 805>
VStem: 139 487<352.02 768 1072 1301>
LayerCount: 2
Back
SplineSet
724 334 m 0
 754 334 790 339 832 348 c 1
 832 49 l 1
 738 6 615 -18 525 -18 c 0
 264 -18 139 115 139 382 c 2
 139 768 l 1
 17 768 l 1
 17 1072 l 1
 139 1072 l 1
 139 1301 l 1
 626 1406 l 1
 626 1072 l 1
 799 1072 l 1
 799 768 l 1
 626 768 l 1
 626 438 l 2
 626 377 657 334 724 334 c 0
EndSplineSet
Fore
SplineSet
522.045 -18.4902 m 0
 291.085 -18.4902 152.441 95.6406 192.124 378 c 2
 246.936 768 l 1
 126.936 768 l 1
 169.66 1072 l 1
 289.66 1072 l 1
 321.844 1301 l 1
 823.601 1406 l 1
 776.66 1072 l 1
 955.66 1072 l 1
 912.936 768 l 1
 733.936 768 l 1
 686.995 434 l 2
 677.7 367.866 712.168 334.491 775.861 334.491 c 0
 804.357 334.491 838.367 338.923 876.596 347.822 c 1
 874.84 75.1758 l 1
 774.708 12.7451 626.253 -18.4902 522.045 -18.4902 c 0
EndSplineSet
EndChar

StartChar: a.sc
Encoding: 381 -1 373
Width: 1516
VWidth: 0
Flags: HW
HStem: 0 313<28 170 514 643 757 898 1382 1492> 433 211<583 803> 1014 308<198 390>
LayerCount: 2
Fore
SplineSet
924.854 433 m 1
 643.854 433 l 1
 557.989 313 l 1
 686.989 313 l 1
 643 0 l 1
 28 0 l 1
 71.9893 313 l 1
 213.989 313 l 1
 532.509 1014 l 1
 340.509 1014 l 1
 383.795 1322 l 1
 1274.79 1322 l 1
 1426.13 314 l 1
 1536.13 314 l 1
 1492 0 l 1
 757 0 l 1
 800.989 313 l 1
 940.989 313 l 2
 941.989 313 942.13 314 942.271 315 c 0
 944.659 332 924.854 433 924.854 433 c 1
836.914 1024 m 1
 670.508 644 l 1
 893.508 644 l 1
 836.914 1024 l 1
EndSplineSet
EndChar

StartChar: b.sc
Encoding: 382 -1 374
Width: 1391
VWidth: 0
Flags: HW
LayerCount: 2
Fore
SplineSet
1438.89 974 m 0xf8
 1419.35 835 1308.58 737 1186.96 697 c 1
 1345.49 651 1439.03 541 1412.05 349 c 0xf4
 1374.81 84 1133 0 853 0 c 2
 31 0 l 1
 74.9893 313 l 1
 225.989 313 l 1
 324.509 1014 l 1
 179.509 1014 l 1
 222.795 1322 l 1
 932.795 1322 l 2
 1243.79 1322 1480.35 1269 1438.89 974 c 0xf8
940.979 441 m 0
 953.627 531 893.546 566 785.546 566 c 0
 779.546 566 757.546 566 720.405 565 c 1
 684.989 313 l 1
 704.989 313 l 2
 820.989 313 923.832 319 940.979 441 c 0
999.611 908 m 0xf8
 1008.61 972 964.509 1014 894.509 1014 c 2
 783.509 1014 l 1
 752.59 794 l 1
 788.59 794 l 2
 909.59 794 986.4 814 999.611 908 c 0xf8
EndSplineSet
EndChar

StartChar: c.sc
Encoding: 383 -1 375
Width: 1266
VWidth: 0
Flags: HW
LayerCount: 2
Fore
SplineSet
887.346 344 m 0xd8
 1049.35 344 1206.03 420 1278.32 479 c 1
 1227.44 117 l 1
 1054.37 24 874.908 -22 713.908 -22 c 0
 340.908 -22 55.7949 212 119.881 668 c 0
 172.303 1041 403.309 1347 811.309 1347 c 0xd8
 952.309 1347 1063.94 1323 1126.29 1233 c 1
 1167.94 1323 l 1
 1422.94 1323 l 1xb8
 1348.73 795 l 1
 1088.73 795 l 1
 1089.71 802 l 2
 1107.28 927 1056.9 1031 917.897 1031 c 0
 779.897 1031 672.849 867 649.8 703 c 0
 624.644 524 685.346 344 887.346 344 c 0xd8
EndSplineSet
EndChar

StartChar: d.sc
Encoding: 384 -1 376
Width: 1497
VWidth: 0
Flags: HW
LayerCount: 2
Fore
SplineSet
1563.9 661 m 0
 1511.9 291 1199 0 736 0 c 2
 37 0 l 1
 80.9893 313 l 1
 221.989 313 l 1
 320.649 1015 l 1
 173.649 1015 l 1
 216.795 1322 l 1
 940.795 1322 l 2
 1412.79 1322 1625.59 1100 1563.9 661 c 0
1046.04 662 m 0
 1072.32 849 1048.65 1015 838.648 1015 c 2
 797.648 1015 l 1
 698.989 313 l 1
 729.989 313 l 2
 937.989 313 1020.46 480 1046.04 662 c 0
EndSplineSet
EndChar

StartChar: e.sc
Encoding: 385 -1 377
Width: 1183
VWidth: 0
Flags: HW
HStem: 0 313<31 168 650 840> 586 229<650 829> 1014 308<31 168 650 836>
VStem: 168 482<313 586 815 1014>
LayerCount: 2
Fore
SplineSet
1014.15 798 m 1
 978.509 1014 l 1
 792.509 1014 l 1
 764.541 815 l 1
 943.541 815 l 1
 911.357 586 l 1
 732.357 586 l 1
 693.989 313 l 1
 883.989 313 l 1
 985.578 552 l 1
 1222.58 552 l 1
 1145 0 l 1
 31 0 l 1
 74.9893 313 l 1
 211.989 313 l 1
 310.509 1014 l 1
 173.509 1014 l 1
 216.795 1322 l 1
 1321.79 1322 l 1
 1248.15 798 l 1
 1014.15 798 l 1
EndSplineSet
EndChar

StartChar: f.sc
Encoding: 386 -1 378
Width: 1163
VWidth: 0
Flags: HW
LayerCount: 2
Fore
SplineSet
914.703 560 m 1
 738.703 560 l 1
 703.989 313 l 1
 837.989 313 l 1
 794 0 l 1
 31 0 l 1
 74.9893 313 l 1
 211.989 313 l 1
 310.509 1014 l 1
 173.509 1014 l 1
 216.795 1322 l 1
 1325.79 1322 l 1
 1251.31 792 l 1
 1004.31 792 l 1
 980.509 1014 l 1
 802.509 1014 l 1
 770.184 784 l 1
 946.184 784 l 1
 914.703 560 l 1
EndSplineSet
EndChar

StartChar: g.sc
Encoding: 387 -1 379
Width: 1420
VWidth: 0
Flags: HW
HStem: -24 355<683.828 991.452> 458 266<847 993> 1031 315<681.794 909.977>
VStem: 26 522<484.963 877.584> 993 398<341.389 458>
LayerCount: 2
Fore
SplineSet
641.74 667 m 0
 618.271 500 689.52 331 874.52 331 c 0
 960.52 331 1042.19 350 1042.19 350 c 1
 1057.37 458 l 1
 911.367 458 l 1
 948.752 724 l 1
 1492.75 724 l 1
 1408.29 123 l 1
 1216.79 27 997.627 -24 795.627 -24 c 0
 391.627 -24 50.5947 175 118.335 657 c 0
 169.773 1023 444.168 1346 913.168 1346 c 0
 1025.17 1346 1112.25 1311 1169.87 1230 c 1
 1211.79 1322 l 1
 1512.79 1322 l 1
 1441.68 816 l 1
 1173.68 816 l 1
 1157.48 964 1071.9 1031 974.897 1031 c 0
 803.897 1031 673.925 896 641.74 667 c 0
EndSplineSet
EndChar

StartChar: h.sc
Encoding: 388 -1 380
Width: 1542
VWidth: 0
Flags: HW
HStem: 0 313<31 159 653 737 814 887 1383 1511> 519 298<653 887> 1014 308<31 159 653 736 811 887 1383 1506>
VStem: 31 706<0 313 1014 1322> 159 494<313 519 817 1014> 814 697<0 313 1014 1322> 887 496<313 519 817 1014>
LayerCount: 2
Fore
SplineSet
74.9893 313 m 1xf0
 202.989 313 l 1
 301.509 1014 l 1xe8
 173.509 1014 l 1
 216.795 1322 l 1xf0
 921.795 1322 l 1
 878.509 1014 l 1
 795.509 1014 l 1
 767.822 817 l 1
 1001.82 817 l 1
 1029.51 1014 l 1
 953.509 1014 l 1
 996.795 1322 l 1
 1691.79 1322 l 1
 1648.51 1014 l 1
 1525.51 1014 l 1
 1426.99 313 l 1xea
 1554.99 313 l 1
 1511 0 l 1
 814 0 l 1
 857.989 313 l 1xe4
 930.989 313 l 1
 959.94 519 l 1
 725.94 519 l 1
 696.989 313 l 1xea
 780.989 313 l 1
 737 0 l 1
 31 0 l 1
 74.9893 313 l 1xf0
EndSplineSet
EndChar

StartChar: i.sc
Encoding: 389 -1 381
Width: 818
VWidth: 0
Flags: HW
HStem: 0 313<31 159 659 782> 1014 308<35 159 659 788>
VStem: 31 751<0 313 1014 1322>
LayerCount: 2
Fore
SplineSet
930.509 1014 m 1
 801.509 1014 l 1
 702.989 313 l 1
 825.989 313 l 1
 782 0 l 1
 31 0 l 1
 74.9893 313 l 1
 202.989 313 l 1
 301.509 1014 l 1
 177.509 1014 l 1
 220.795 1322 l 1
 973.795 1322 l 1
 930.509 1014 l 1
EndSplineSet
EndChar

StartChar: j.sc
Encoding: 390 -1 382
Width: 1127
VWidth: 0
Flags: HW
LayerCount: 2
Fore
SplineSet
440.832 319 m 0
 523.832 319 547.092 392 559.881 483 c 2
 634.509 1014 l 1
 500.509 1014 l 1
 543.795 1322 l 1
 1287.79 1322 l 1
 1244.51 1014 l 1
 1116.51 1014 l 1
 1028.53 388 l 2
 993.113 136 807.486 -25 538.486 -25 c 0
 422.486 -25 342.843 6 300.979 71 c 1
 257.454 -11 l 1
 21.4541 -11 l 1
 97.7676 532 l 1
 362.768 532 l 1
 349.416 437 337.832 319 440.832 319 c 0
EndSplineSet
EndChar

StartChar: k.sc
Encoding: 391 -1 383
Width: 1504
VWidth: 0
Flags: HW
HStem: 0 313<31 158 635 746 1337.87 1469> 1014 307<31 158 635 746 1309 1428>
VStem: 31 715<0 313 1014 1321> 158 477<313 522 712 1014>
LayerCount: 2
Fore
SplineSet
914.697 254 m 2xd0
 935.076 399 l 2
 942.243 450 910.362 522 856.362 522 c 2
 708.362 522 l 1
 678.989 313 l 1xd0
 789.989 313 l 1
 752 0 l 1
 31 0 l 1
 74.9893 313 l 1xe0
 201.989 313 l 1
 300.509 1014 l 1xd0
 173.509 1014 l 1
 216.654 1321 l 1
 931.654 1321 l 1
 888.509 1014 l 1xe0
 777.509 1014 l 1
 735.065 712 l 1
 1027.65 1015 l 1
 1070.65 1321 l 1
 1613.65 1321 l 1
 1570.51 1014 l 1
 1451.51 1014 l 1
 1129.68 695 l 1
 1128.13 684 l 1
 1298.13 684 1423.51 644 1402.29 493 c 2
 1386.97 384 l 2
 1382.75 354 1397.99 313 1434.99 313 c 2
 1512.99 313 l 1
 1474 0 l 1
 1171 0 l 2
 976 0 890.806 84 914.697 254 c 2xd0
EndSplineSet
EndChar

StartChar: l.sc
Encoding: 392 -1 384
Width: 1167
VWidth: 0
Flags: HW
HStem: 0 313<36 159 653 820> 1014 307<31 159 653 787>
VStem: 159 494<313 1014>
LayerCount: 2
Fore
SplineSet
696.989 313 m 1
 863.989 313 l 1
 978.06 591 l 1
 1227.06 591 l 1
 1144 0 l 1
 36 0 l 1
 79.9893 313 l 1
 202.989 313 l 1
 301.509 1014 l 1
 173.509 1014 l 1
 216.654 1321 l 1
 972.654 1321 l 1
 929.509 1014 l 1
 795.509 1014 l 1
 696.989 313 l 1
EndSplineSet
EndChar

StartChar: m.sc
Encoding: 393 -1 385
Width: 1987
VWidth: 0
Flags: HW
HStem: 0 313<35 177 460 601 1257 1364 1822 1956> 1014 308<31 177 1822 1950>
VStem: 177 283<314 783> 1364 458<313 766>
LayerCount: 2
Fore
SplineSet
644.989 313 m 1
 601 0 l 1
 35 0 l 1
 78.9893 313 l 1
 176.989 313 221.13 314 221.13 314 c 1
 319.509 1014 l 1
 173.509 1014 l 1
 216.795 1322 l 1
 943.795 1322 l 1
 1122.58 673 l 1
 1453.79 1322 l 1
 2135.79 1322 l 1
 2092.51 1014 l 1
 1964.51 1014 l 1
 1865.99 313 l 1
 1999.99 313 l 1
 1956 0 l 1
 1257 0 l 1
 1300.99 313 l 1
 1407.99 313 l 1
 1471.65 766 l 1
 1067 0 l 1
 822 0 l 1
 570.043 783 l 1
 504.13 314 l 1
 504.13 314 560.989 313 644.989 313 c 1
EndSplineSet
EndChar

StartChar: n.sc
Encoding: 394 -1 386
Width: 1553
VWidth: 0
Flags: HW
HStem: 0 313<31 173 448 586> 1014 307<37 173 969 1107 1387 1524>
VStem: 173 275<314 713> 1107 280<535 1014>
LayerCount: 2
Fore
SplineSet
1666.51 1014 m 1
 1529.51 1014 l 1
 1387 0 l 1
 859 0 l 1
 548.206 713 l 1
 492.13 314 l 1
 492.13 314 533.13 314 629.989 313 c 1
 586 0 l 1
 31 0 l 1
 74.9893 313 l 1
 163.989 313 217.13 314 217.13 314 c 1
 315.789 1016 l 1
 179.789 1016 l 1
 222.795 1322 l 1
 861.795 1322 l 1
 1182.19 535 l 1
 1249.51 1014 l 1
 1111.51 1014 l 1
 1154.65 1321 l 1
 1709.65 1321 l 1
 1666.51 1014 l 1
EndSplineSet
EndChar

StartChar: o.sc
Encoding: 395 -1 387
Width: 1481
VWidth: 0
Flags: HW
HStem: -24 302<646.006 835.889> 1031 316<640.674 841.211>
VStem: 26 523<417.364 914.947> 932 523<417.364 914.947>
LayerCount: 2
Fore
SplineSet
780.07 278 m 0
 911.07 278 998.757 475 1025.88 668 c 0
 1051.88 853 1021.9 1031 885.897 1031 c 0
 749.897 1031 668.881 853 642.881 668 c 0
 615.757 475 649.07 278 780.07 278 c 0
737.627 -24 m 0
 318.627 -24 63.665 268 119.038 662 c 0
 176.94 1074 490.309 1347 930.309 1347 c 0
 1370.31 1347 1605.94 1074 1548.04 662 c 0
 1492.67 268 1156.63 -24 737.627 -24 c 0
EndSplineSet
EndChar

StartChar: p.sc
Encoding: 396 -1 388
Width: 1383
VWidth: 0
Flags: HW
LayerCount: 2
Fore
SplineSet
849.508 459 m 0
 808.508 459 764.93 462 719.773 468 c 1
 697.989 313 l 1
 824.989 313 l 1
 781 0 l 1
 31 0 l 1
 74.9893 313 l 1
 210.989 313 l 1
 309.509 1014 l 1
 178.509 1014 l 1
 221.795 1322 l 1
 962.795 1322 l 2
 1242.79 1322 1538.08 1260 1492.83 938 c 0
 1443.64 588 1219.51 459 849.508 459 c 0
870.509 1014 m 2
 797.509 1014 l 1
 759.562 744 l 1
 795.562 744 l 2
 926.562 744 999.73 795 1014.07 897 c 0
 1024.75 973 966.509 1014 870.509 1014 c 2
EndSplineSet
EndChar

StartChar: q.sc
Encoding: 397 -1 389
Width: 1527
VWidth: 0
Flags: HW
LayerCount: 2
Fore
SplineSet
736.627 -24 m 0
 317.627 -24 63.665 268 119.038 662 c 0
 176.94 1074 490.309 1347 930.309 1347 c 0
 1370.31 1347 1606.5 1078 1549.3 671 c 0
 1530.33 536 1478.04 413 1399.71 311 c 1
 1401.85 312 l 1
 1543.85 312 l 1
 1500.28 2 l 1
 944.281 2 l 1
 877.892 -15 807.627 -24 736.627 -24 c 0
780.07 278 m 0
 911.07 278 998.757 475 1025.88 668 c 0
 1051.88 853 1021.9 1031 885.897 1031 c 0
 749.897 1031 668.881 853 642.881 668 c 0
 615.757 475 649.07 278 780.07 278 c 0
EndSplineSet
EndChar

StartChar: r.sc
Encoding: 398 -1 390
Width: 1475
VWidth: 0
Flags: HW
LayerCount: 2
Fore
SplineSet
1511.2 962 m 0
 1485.62 780 1334.25 692 1156.9 661 c 1
 1285.96 633 1387.78 589 1370.07 463 c 2
 1360.79 397 l 2
 1349.83 319 1401.85 312 1490.85 312 c 1
 1446.86 -1 l 1
 1164.86 -1 l 2
 993.859 -1 886.043 43 909.373 209 c 2
 930.735 361 l 2
 948.303 486 929.844 561 796.844 561 c 2
 711.844 561 l 1
 676.989 313 l 1
 781.989 313 l 1
 738 0 l 1
 585 0 349.141 1 32 0 c 1
 75.9893 313 l 1
 209.989 313 l 1
 308.368 1013 l 1
 173.368 1013 l 1
 216.654 1321 l 1
 1101.65 1321 l 2
 1386.65 1321 1547.74 1222 1511.2 962 c 0
1023.64 894 m 0
 1034.18 969 973.368 1013 875.368 1013 c 2
 769.368 1013 l 1
 733.671 759 l 1
 786.671 759 l 2
 904.671 759 1008.89 789 1023.64 894 c 0
EndSplineSet
EndChar

StartChar: s.sc
Encoding: 399 -1 391
Width: 1147
VWidth: 0
Flags: HW
LayerCount: 2
Fore
SplineSet
684.725 1044 m 0x1c
 620.725 1044 579.93 1017 573.184 969 c 0
 565.033 911 656.94 889 741.271 870 c 0
 1005.12 812 1221.49 715 1178.62 410 c 0
 1144.33 166 943.627 -24 675.627 -24 c 0x9c
 524.627 -24 464.405 10 385.243 80 c 1
 343 0 l 1
 61 0 l 1
 120.729 425 l 1
 401.729 425 l 1x4c
 424.113 321 501.038 292 604.038 292 c 0
 667.038 292 728.411 316 734.876 362 c 0
 743.449 423 670.26 443 608.508 459 c 0
 337.627 531 116.136 620 161.951 946 c 0
 195.26 1183 402.309 1347 615.309 1347 c 0x9c
 753.309 1347 860.795 1322 938.487 1270 c 1
 942.471 1277 942.795 1322 974.795 1322 c 2
 1222.79 1322 l 1
 1164.47 907 l 1
 897.471 907 l 1x2c
 857.228 1012 801.725 1044 684.725 1044 c 0x1c
EndSplineSet
EndChar

StartChar: t.sc
Encoding: 400 -1 392
Width: 1355
VWidth: 0
Flags: HW
HStem: 0 314<288 431 922 1065> 775 546<26 271 1086 1330> 1014 307<309 431 922 1049>
VStem: 431 491<314 1014>
LayerCount: 2
Fore
SplineSet
1194.92 775 m 1xd0
 1191.51 1014 l 1
 1064.51 1014 l 1
 966.13 314 l 1
 1109.13 314 l 1
 1065 0 l 1
 288 0 l 1
 332.13 314 l 1
 475.13 314 l 1
 573.509 1014 l 1
 451.509 1014 l 1xb0
 379.919 775 l 1
 134.919 775 l 1
 211.654 1321 l 1
 1515.65 1321 l 1
 1438.92 775 l 1
 1194.92 775 l 1xd0
EndSplineSet
EndChar

StartChar: u.sc
Encoding: 401 -1 393
Width: 1441
VWidth: 0
Flags: HW
HStem: -24 327<507.747 944.32> 1014 307<25 165 653 782 846 988 1281 1415>
VStem: 165 488<366.68 1014> 988 293<349.918 1014>
LayerCount: 2
Fore
SplineSet
245.951 576 m 2
 307.509 1014 l 1
 167.509 1014 l 1
 210.654 1321 l 1
 967.654 1321 l 1
 924.509 1014 l 1
 795.509 1014 l 1
 723.973 505 l 2
 708.514 395 739.584 303 860.584 303 c 0
 964.584 303 1038.45 359 1051.81 454 c 2
 1130.51 1014 l 1
 988.509 1014 l 1
 1031.65 1321 l 1
 1600.65 1321 l 1
 1557.51 1014 l 1
 1423.51 1014 l 1
 1340.73 425 l 2
 1301.8 148 1009.63 -24 710.627 -24 c 0
 308.627 -24 193.249 201 245.951 576 c 2
EndSplineSet
EndChar

StartChar: v.sc
Encoding: 402 -1 394
Width: 1466
VWidth: 0
Flags: HW
HStem: 0 21G<453.767 969.844> 1014 307<0 144 655 749 863 976 1310 1467>
LayerCount: 2
Fore
SplineSet
891.509 1014 m 1
 797.509 1014 l 1
 897.729 425 l 1
 1118.37 1013 l 1
 1005.37 1013 l 1
 1048.65 1321 l 1
 1652.65 1321 l 1
 1609.51 1014 l 1
 1452.51 1014 l 1
 963 0 l 1
 460 0 l 1
 286.509 1014 l 1
 142.509 1014 l 1
 185.654 1321 l 1
 934.654 1321 l 1
 891.509 1014 l 1
EndSplineSet
EndChar

StartChar: w.sc
Encoding: 403 -1 395
Width: 2170
VWidth: 0
Flags: HW
LayerCount: 2
Fore
SplineSet
142.509 1014 m 1
 185.795 1322 l 1
 960.795 1322 l 1
 917.509 1014 l 1
 786.509 1014 l 1
 855.438 551 l 1
 1190.79 1322 l 1
 1546.79 1322 l 1
 1662.09 577 l 1
 1851.51 1014 l 1
 1739.51 1014 l 1
 1782.79 1322 l 1
 2356.79 1322 l 1
 2313.51 1014 l 1
 2166.51 1014 l 1
 1726 0 l 1
 1256 0 l 1
 1169.37 579 l 1
 912 0 l 1
 445 0 l 1
 284.509 1014 l 1
 142.509 1014 l 1
EndSplineSet
EndChar

StartChar: x.sc
Encoding: 404 -1 396
Width: 1670
VWidth: 0
Flags: HW
LayerCount: 2
Fore
SplineSet
788.989 313 m 1
 745 0 l 1
 30 0 l 1
 73.9893 313 l 1
 212.989 313 l 1
 643.957 697 l 1
 366.509 1014 l 1
 217.509 1014 l 1
 260.795 1322 l 1
 1058.79 1322 l 1
 1015.51 1014 l 1
 944.509 1014 l 1
 1063.58 858 l 1
 1214.51 1014 l 1
 1088.51 1014 l 1
 1131.79 1322 l 1
 1781.79 1322 l 1
 1738.51 1014 l 1
 1567.51 1014 l 1
 1229.3 671 l 1
 1552.13 314 l 1
 1684.13 314 l 1
 1640 0 l 1
 832 0 l 1
 875.989 313 l 1
 985.989 313 l 1
 803.52 516 l 1
 594.989 313 l 1
 594.989 313 629.989 313 788.989 313 c 1
EndSplineSet
EndChar

StartChar: y.sc
Encoding: 405 -1 397
Width: 1422
VWidth: 0
Flags: HW
LayerCount: 2
Fore
SplineSet
1113.51 1014 m 1
 985.509 1014 l 1
 1028.65 1321 l 1
 1582.65 1321 l 1
 1539.51 1014 l 1
 1384.51 1014 l 1
 1055.64 588 l 1
 1016.99 313 l 1
 1152.99 313 l 1
 1109 0 l 1
 353 0 l 1
 396.989 313 l 1
 531.989 313 l 1
 564.735 546 l 1
 264.509 1014 l 1
 166.509 1014 l 1
 209.654 1321 l 1
 951.654 1321 l 1
 908.509 1014 l 1
 828.509 1014 l 1
 958.714 802 l 1
 1113.51 1014 l 1
EndSplineSet
EndChar

StartChar: z.sc
Encoding: 406 -1 398
Width: 1293
VWidth: 0
Flags: HW
LayerCount: 2
Fore
SplineSet
1389.32 1034 m 1
 698.989 313 l 1
 967.989 313 l 1
 1098.51 580 l 1
 1343.51 580 l 1
 1262 0 l 1
 36 0 l 1
 78.8652 305 l 1
 768.509 1014 l 1
 493.509 1014 l 1
 389.654 766 l 1
 138.654 766 l 1
 216.654 1321 l 1
 1429.65 1321 l 1
 1389.32 1034 l 1
EndSplineSet
EndChar

